"use strict";(self.webpackChunkblog=self.webpackChunkblog||[]).push([[3237],{3358:(i,t,e)=>{e.r(t),e.d(t,{default:()=>f});var n=e(7294),a=e(6010),o=e(9960),m=e(2263),c=e(7452),d=e(7462);const r={features:"features_t9lD"},u={noteBox:"noteBox_w3yj","note-anim":"note-anim_Y0E6",mindFocusBox:"mindFocusBox_tdE6",mindFocus:"mindFocus_AxDs",circle:"circle_qYbo","mind-focus-anim":"mind-focus-anim_gjly","mind-focus-anim-reverse":"mind-focus-anim-reverse_iWeY",codeLife:"codeLife_kTWa",cardBox:"cardBox_rEtZ",cardItem:"cardItem_U8VL",opposite:"opposite_q5MG",codeBg:"codeBg_t7uw"};const s="function bubbleSort(arr) {\n  const n = arr.length;\n  for (let i = 0; i < n - 1; i++) {\n    for (let j = 0; j < n - i - 1; j++) {\n      if (arr[j] > arr[j + 1]) {\n        [arr[j], arr[j + 1]] = [arr[j + 1], arr[j]];\n      }\n    }\n  }\n  return arr;\n}\n\nfunction selectionSort(arr) {\n  const n = arr.length;\n  for (let i = 0; i < n - 1; i++) {\n    let minIndex = i;\n    for (let j = i + 1; j < n; j++) {\n      if (arr[j] < arr[minIndex]) {\n        minIndex = j;\n      }\n    }\n    [arr[i], arr[minIndex]] = [arr[minIndex], arr[i]];\n  }\n  return arr;\n}\n\nfunction insertionSort(arr) {\n  const n = arr.length;\n  for (let i = 1; i < n; i++) {\n    let key = arr[i];\n    let j = i - 1;\n    while (j >= 0 && arr[j] > key) {\n      arr[j + 1] = arr[j];\n      j--;\n    }\n    arr[j + 1] = key;\n  }\n  return arr;\n}\n\nfunction quickSort(arr) {\n  if (arr.length <= 1) {\n    return arr;\n  }\n  const pivot = arr[arr.length - 1];\n  const left = [];\n  const right = [];\n  for (let i = 0; i < arr.length - 1; i++) {\n    if (arr[i] < pivot) {\n      left.push(arr[i]);\n    } else {\n      right.push(arr[i]);\n    }\n  }\n  return [...quickSort(left), pivot, ...quickSort(right)];\n}\n\nfunction mergeSort(arr) {\n  if (arr.length <= 1) {\n    return arr;\n  }\n  const mid = Math.floor(arr.length / 2);\n  const left = mergeSort(arr.slice(0, mid));\n  const right = mergeSort(arr.slice(mid));\n  return merge(left, right);\n}\n\nfunction merge(left, right) {\n  const merged = [];\n  let i = 0;\n  let j = 0;\n  while (i < left.length && j < right.length) {\n    if (left[i] < right[j]) {\n      merged.push(left[i]);\n      i++;\n    } else {\n      merged.push(right[j]);\n      j++;\n    }\n  }\n  return [...merged, ...left.slice(i), ...right.slice(j)];\n}".split("\n").map((i=>i.replace(/^\s*$/,"\n"))),k=[7,6,5,4,3,2,1,0];function l(){const[i,t]=(0,n.useState)([]),e=(0,n.useRef)(null),a=(0,n.useRef)(0);return(0,n.useEffect)((()=>{let i=0;return function n(){e.current=window.requestAnimationFrame((()=>{Date.now()-a.current>=250&&(a.current=Date.now(),10+ ++i>s.length&&(i=0),t(s.slice(i,i+10))),n()}))}(),()=>{window.cancelAnimationFrame(e.current)}}),[]),n.createElement("div",null,i.map(((i,t)=>n.createElement("div",{key:t,className:u.item},i))))}const y=[{title:"\u97f3\u7b26\u95f4\u7684\u5931\u843d",Svg:function(){return n.createElement("div",{className:u.noteBox},[0,1,2,3,4,5,6].map((i=>{return n.createElement("div",{key:i,style:(t=i,{"--idx":t.toString()})});var t})))},description:n.createElement(n.Fragment,null,"\u4ed6\u66fe\u662f\u97f3\u7b26\u95f4\u7684\u7075\u9b42\u5f8b\u52a8\uff0c\u60a0\u626c\u65cb\u5f8b\u5728\u4ed6\u6307\u5c16\u7efd\u653e\uff0c\u7136\u800c\uff0c\u547d\u8fd0\u7684\u8c03\u5b50\u5374\u8ba9\u4ed6\u5931\u843d\u5728\u821e\u53f0\u4e4b\u5916\uff0c\u4ec5\u7559\u4e0b\u4e00\u4efd\u4e13\u6ce8\u7684\u6280\u827a\uff0c\u5b9b\u5982\u4e00\u53ea\u5b64\u72ec\u7684\u9e1f\u513f\u5728\u5e7f\u9614\u5929\u7a7a\u4e2d\u5bfb\u89c5\u5f52\u5bbf\u3002")},{title:"\u5fc3\u7075\u7684\u7126\u70b9",Svg:function(){return n.createElement("div",{className:u.mindFocusBox},n.createElement("div",{className:u.mindFocus},[0,1,2].map((i=>n.createElement("div",{key:i,className:u.circle})))))},description:n.createElement(n.Fragment,null,"\u4e0d\u8981\u8ba9\u8fc7\u53bb\u7684\u9634\u5f71\u963b\u6321\u5f53\u4e0b\u7684\u9633\u5149\uff0c\u4e5f\u4e0d\u8981\u8ba9\u672a\u6765\u7684\u5e7b\u60f3\u906e\u853d\u5f53\u4e0b\u7684\u771f\u5b9e\uff0c\u5c06\u5fc3\u7075\u7684\u7126\u70b9\u6295\u5c04\u5230\u6b64\u523b\uff0c\u611f\u53d7\u5f53\u4e0b\u7684\u7f8e\u597d\u548c\u751f\u547d\u7684\u8109\u52a8\u3002")},{title:"\u4ee3\u7801\u4eba\u751f",Svg:function(){const i=(0,n.useRef)(null),t=(0,n.useRef)(0);return(0,n.useEffect)((()=>{let e=0;return function n(){i.current=window.requestAnimationFrame((()=>{if(Date.now()-t.current>=500){t.current=Date.now(),++e>255&&(e=0);const i=Number(e).toString(2).split("").reverse().join("");k.forEach((t=>{const e=document.getElementById(`cardItem${t}`);e&&(e.style.transform=`rotateX(${180*Number(i[t]??0)}deg)`)}))}n()}))}(),()=>{window.cancelAnimationFrame(i.current)}}),[]),n.createElement("div",{className:u.codeLife},n.createElement("div",{className:u.codeBg},n.createElement(l,null)),n.createElement("div",{className:u.cardBox},k.map((i=>n.createElement("div",{id:`cardItem${i}`,key:i,className:u.cardItem},n.createElement("div",{className:u.front},"0"),n.createElement("div",{className:u.opposite},"1"))))))},description:n.createElement(n.Fragment,null,"\u751f\u547d\u5982\u4ee3\u7801\uff0c\u6ca1\u6709\u5b8c\u7f8e\u7684\u7a0b\u5e8f\uff0c\u53ea\u6709\u4e0d\u65ad\u4f18\u5316\u7684\u53ef\u80fd\u6027\uff0c\u5728\u4ee3\u7801\u7684\u4e16\u754c\u91cc\uff0c\u6bcf\u4e00\u4e2a bug \u90fd\u662f\u4e00\u6b21\u6210\u957f\u7684\u673a\u4f1a\uff0c\u6bcf\u4e00\u6b21\u91cd\u6784\u90fd\u662f\u4e00\u4e2a\u66f4\u597d\u7684\u81ea\u5df1\u3002")}];function v(i){let{title:t,Svg:e,description:o}=i;return n.createElement("div",{className:(0,a.Z)("col col--4")},n.createElement("div",{className:(0,a.Z)("text--center",r.featureSvg)},n.createElement(e,null)),n.createElement("div",{className:"text--center padding-horiz--md"},n.createElement("h3",null,t),n.createElement("p",null,o)))}function T(){return n.createElement("section",{className:r.features},n.createElement("div",{className:"container"},n.createElement("div",{className:"row"},y.map(((i,t)=>n.createElement(v,(0,d.Z)({key:t},i)))))))}const E={heroBanner:"heroBanner_qdFl",buttons:"buttons_AeoN",logoBox:"logoBox_GyS3",logo:"logo_Ukns",playBar:"playBar_fFRe",playBarTip:"playBarTip_jcG6",fadeOut:"fadeOut_EfHH"},B=JSON.parse('{"bpm":70,"notes":[{"duration":0.42857100000000004,"durationTicks":240,"midi":40,"name":"E2","ticks":0,"time":0,"velocity":0.7480314960629921},{"duration":0.42857100000000004,"durationTicks":240,"midi":47,"name":"B2","ticks":240,"time":0.42857100000000004,"velocity":0.7480314960629921},{"duration":0.42857100000000004,"durationTicks":240,"midi":55,"name":"G3","ticks":480,"time":0.8571420000000001,"velocity":0.7480314960629921},{"duration":0.42857100000000004,"durationTicks":240,"midi":47,"name":"B2","ticks":720,"time":1.285713,"velocity":0.7480314960629921},{"duration":0.4285709999999998,"durationTicks":240,"midi":55,"name":"G3","ticks":960,"time":1.7142840000000001,"velocity":0.7480314960629921},{"duration":0.42857100000000026,"durationTicks":240,"midi":47,"name":"B2","ticks":1200,"time":2.142855,"velocity":0.7480314960629921},{"duration":0.42857100000000026,"durationTicks":240,"midi":55,"name":"G3","ticks":1440,"time":2.571426,"velocity":0.7480314960629921},{"duration":0.2142854999999999,"durationTicks":120,"midi":47,"name":"B2","ticks":1680,"time":2.9999970000000005,"velocity":0.7480314960629921},{"duration":0.2142854999999999,"durationTicks":120,"midi":64,"name":"E4","ticks":1800,"time":3.2142825000000004,"velocity":0.7480314960629921},{"duration":0.2142854999999999,"durationTicks":120,"midi":64,"name":"E4","ticks":1920,"time":3.4285680000000003,"velocity":0.7480314960629921},{"duration":0.2142854999999999,"durationTicks":120,"midi":40,"name":"E2","ticks":1920,"time":3.4285680000000003,"velocity":0.7480314960629921},{"duration":0.2142854999999999,"durationTicks":120,"midi":66,"name":"F#4","ticks":2040,"time":3.6428535,"velocity":0.7480314960629921},{"duration":0.2142854999999999,"durationTicks":120,"midi":66,"name":"F#4","ticks":2160,"time":3.857139,"velocity":0.7480314960629921},{"duration":0.2142854999999999,"durationTicks":120,"midi":47,"name":"B2","ticks":2160,"time":3.857139,"velocity":0.7480314960629921},{"duration":0.2142854999999999,"durationTicks":120,"midi":67,"name":"G4","ticks":2280,"time":4.0714245,"velocity":0.7480314960629921},{"duration":0.2142855000000008,"durationTicks":120,"midi":67,"name":"G4","ticks":2400,"time":4.28571,"velocity":0.7480314960629921},{"duration":0.2142855000000008,"durationTicks":120,"midi":55,"name":"G3","ticks":2400,"time":4.28571,"velocity":0.7480314960629921},{"duration":0.2142854999999999,"durationTicks":120,"midi":66,"name":"F#4","ticks":2520,"time":4.499995500000001,"velocity":0.7480314960629921},{"duration":0.2142854999999999,"durationTicks":120,"midi":66,"name":"F#4","ticks":2640,"time":4.714281000000001,"velocity":0.7480314960629921},{"duration":0.2142854999999999,"durationTicks":120,"midi":47,"name":"B2","ticks":2640,"time":4.714281000000001,"velocity":0.7480314960629921},{"duration":0.2142854999999999,"durationTicks":120,"midi":64,"name":"E4","ticks":2760,"time":4.9285665000000005,"velocity":0.7480314960629921},{"duration":0.2142854999999999,"durationTicks":120,"midi":64,"name":"E4","ticks":2880,"time":5.142852,"velocity":0.7480314960629921},{"duration":0.2142854999999999,"durationTicks":120,"midi":55,"name":"G3","ticks":2880,"time":5.142852,"velocity":0.7480314960629921},{"duration":0.2142854999999999,"durationTicks":120,"midi":59,"name":"B3","ticks":3000,"time":5.3571375,"velocity":0.7480314960629921},{"duration":0.2142854999999999,"durationTicks":120,"midi":59,"name":"B3","ticks":3120,"time":5.571423,"velocity":0.7480314960629921},{"duration":0.2142854999999999,"durationTicks":120,"midi":47,"name":"B2","ticks":3120,"time":5.571423,"velocity":0.7480314960629921},{"duration":0.2142855000000008,"durationTicks":120,"midi":55,"name":"G3","ticks":3240,"time":5.7857085,"velocity":0.7480314960629921},{"duration":0.2142854999999999,"durationTicks":120,"midi":55,"name":"G3","ticks":3360,"time":5.999994000000001,"velocity":0.7480314960629921},{"duration":0.2142854999999999,"durationTicks":120,"midi":50,"name":"D3","ticks":3360,"time":5.999994000000001,"velocity":0.7480314960629921},{"duration":0.2142854999999999,"durationTicks":120,"midi":52,"name":"E3","ticks":3480,"time":6.214279500000001,"velocity":0.7480314960629921},{"duration":0.2142854999999999,"durationTicks":120,"midi":52,"name":"E3","ticks":3600,"time":6.428565000000001,"velocity":0.7480314960629921},{"duration":0.2142854999999999,"durationTicks":120,"midi":47,"name":"B2","ticks":3600,"time":6.428565000000001,"velocity":0.7480314960629921},{"duration":0.2142854999999999,"durationTicks":120,"midi":62,"name":"D4","ticks":3720,"time":6.642850500000001,"velocity":0.7480314960629921},{"duration":0.2142854999999999,"durationTicks":120,"midi":62,"name":"D4","ticks":3840,"time":6.857136000000001,"velocity":0.7480314960629921},{"duration":0.2142854999999999,"durationTicks":120,"midi":45,"name":"A2","ticks":3840,"time":6.857136000000001,"velocity":0.7480314960629921},{"duration":0.2142854999999999,"durationTicks":120,"midi":60,"name":"C4","ticks":3960,"time":7.0714215000000005,"velocity":0.7480314960629921},{"duration":0.2142854999999999,"durationTicks":120,"midi":60,"name":"C4","ticks":4080,"time":7.285707,"velocity":0.7480314960629921},{"duration":0.2142854999999999,"durationTicks":120,"midi":52,"name":"E3","ticks":4080,"time":7.285707,"velocity":0.7480314960629921},{"duration":0.2142854999999999,"durationTicks":120,"midi":59,"name":"B3","ticks":4200,"time":7.4999925,"velocity":0.7480314960629921},{"duration":0.2142855000000008,"durationTicks":120,"midi":60,"name":"C4","ticks":4320,"time":7.714278,"velocity":0.7480314960629921},{"duration":0.2142855000000008,"durationTicks":120,"midi":57,"name":"A3","ticks":4320,"time":7.714278,"velocity":0.7480314960629921},{"duration":0.21428549999999902,"durationTicks":120,"midi":62,"name":"D4","ticks":4440,"time":7.928563500000001,"velocity":0.7480314960629921},{"duration":0.4285709999999998,"durationTicks":240,"midi":60,"name":"C4","ticks":4560,"time":8.142849,"velocity":0.7480314960629921},{"duration":0.4285709999999998,"durationTicks":240,"midi":52,"name":"E3","ticks":4560,"time":8.142849,"velocity":0.7480314960629921},{"duration":0.4285710000000016,"durationTicks":240,"midi":57,"name":"A3","ticks":4800,"time":8.57142,"velocity":0.7480314960629921},{"duration":0.4285709999999998,"durationTicks":240,"midi":52,"name":"E3","ticks":5040,"time":8.999991000000001,"velocity":0.7480314960629921},{"duration":0.21428549999999902,"durationTicks":120,"midi":50,"name":"D3","ticks":5280,"time":9.428562000000001,"velocity":0.7480314960629921},{"duration":0.2142855000000008,"durationTicks":120,"midi":60,"name":"C4","ticks":5400,"time":9.6428475,"velocity":0.7480314960629921},{"duration":0.21428549999999902,"durationTicks":120,"midi":60,"name":"C4","ticks":5520,"time":9.857133000000001,"velocity":0.7480314960629921},{"duration":0.21428549999999902,"durationTicks":120,"midi":57,"name":"A3","ticks":5520,"time":9.857133000000001,"velocity":0.7480314960629921},{"duration":0.2142855000000008,"durationTicks":120,"midi":62,"name":"D4","ticks":5640,"time":10.0714185,"velocity":0.7480314960629921},{"duration":0.2142855000000008,"durationTicks":120,"midi":62,"name":"D4","ticks":5760,"time":10.285704,"velocity":0.7480314960629921},{"duration":0.2142855000000008,"durationTicks":120,"midi":50,"name":"D3","ticks":5760,"time":10.285704,"velocity":0.7480314960629921},{"duration":0.21428549999999902,"durationTicks":120,"midi":64,"name":"E4","ticks":5880,"time":10.499989500000002,"velocity":0.7480314960629921},{"duration":0.2142855000000008,"durationTicks":120,"midi":64,"name":"E4","ticks":6000,"time":10.714275,"velocity":0.7480314960629921},{"duration":0.2142855000000008,"durationTicks":120,"midi":57,"name":"A3","ticks":6000,"time":10.714275,"velocity":0.7480314960629921},{"duration":0.21428549999999902,"durationTicks":120,"midi":66,"name":"F#4","ticks":6120,"time":10.928560500000001,"velocity":0.7480314960629921},{"duration":0.2142855000000008,"durationTicks":120,"midi":66,"name":"F#4","ticks":6240,"time":11.142846,"velocity":0.7480314960629921},{"duration":0.2142855000000008,"durationTicks":120,"midi":50,"name":"D3","ticks":6240,"time":11.142846,"velocity":0.7480314960629921},{"duration":0.21428549999999902,"durationTicks":120,"midi":62,"name":"D4","ticks":6360,"time":11.357131500000001,"velocity":0.7480314960629921},{"duration":0.2142855000000008,"durationTicks":120,"midi":62,"name":"D4","ticks":6480,"time":11.571417,"velocity":0.7480314960629921},{"duration":0.2142855000000008,"durationTicks":120,"midi":57,"name":"A3","ticks":6480,"time":11.571417,"velocity":0.7480314960629921},{"duration":0.2142855000000008,"durationTicks":120,"midi":57,"name":"A3","ticks":6600,"time":11.785702500000001,"velocity":0.7480314960629921},{"duration":0.21428549999999902,"durationTicks":120,"midi":57,"name":"A3","ticks":6720,"time":11.999988000000002,"velocity":0.7480314960629921},{"duration":0.21428549999999902,"durationTicks":120,"midi":42,"name":"F#2","ticks":6720,"time":11.999988000000002,"velocity":0.7480314960629921},{"duration":0.2142855000000008,"durationTicks":120,"midi":60,"name":"C4","ticks":6840,"time":12.214273500000001,"velocity":0.7480314960629921},{"duration":0.21428549999999902,"durationTicks":120,"midi":60,"name":"C4","ticks":6960,"time":12.428559000000002,"velocity":0.7480314960629921},{"duration":0.21428549999999902,"durationTicks":120,"midi":43,"name":"G2","ticks":6960,"time":12.428559000000002,"velocity":0.7480314960629921},{"duration":0.2142855000000008,"durationTicks":120,"midi":59,"name":"B3","ticks":7080,"time":12.6428445,"velocity":0.7480314960629921},{"duration":0.21428549999999902,"durationTicks":120,"midi":59,"name":"B3","ticks":7200,"time":12.857130000000002,"velocity":0.7480314960629921},{"duration":0.21428549999999902,"durationTicks":120,"midi":47,"name":"B2","ticks":7200,"time":12.857130000000002,"velocity":0.7480314960629921},{"duration":0.2142855000000008,"durationTicks":120,"midi":57,"name":"A3","ticks":7320,"time":13.0714155,"velocity":0.7480314960629921},{"duration":0.21428549999999902,"durationTicks":120,"midi":59,"name":"B3","ticks":7440,"time":13.285701000000001,"velocity":0.7480314960629921},{"duration":0.21428549999999902,"durationTicks":120,"midi":48,"name":"C3","ticks":7440,"time":13.285701000000001,"velocity":0.7480314960629921},{"duration":0.2142855000000008,"durationTicks":120,"midi":60,"name":"C4","ticks":7560,"time":13.4999865,"velocity":0.7480314960629921},{"duration":0.8571419999999996,"durationTicks":480,"midi":59,"name":"B3","ticks":7680,"time":13.714272000000001,"velocity":0.7480314960629921},{"duration":0.8571419999999996,"durationTicks":480,"midi":57,"name":"A3","ticks":7680,"time":13.714272000000001,"velocity":0.7480314960629921},{"duration":0.8571419999999996,"durationTicks":480,"midi":51,"name":"D#3","ticks":7680,"time":13.714272000000001,"velocity":0.7480314960629921},{"duration":0.8571419999999996,"durationTicks":480,"midi":47,"name":"B2","ticks":7680,"time":13.714272000000001,"velocity":0.7480314960629921},{"duration":0.4285709999999998,"durationTicks":240,"midi":71,"name":"B4","ticks":8160,"time":14.571414,"velocity":0.7480314960629921},{"duration":0.4285709999999998,"durationTicks":240,"midi":59,"name":"B3","ticks":8400,"time":14.999985,"velocity":0.7480314960629921},{"duration":0.4285709999999998,"durationTicks":240,"midi":40,"name":"E2","ticks":8400,"time":14.999985,"velocity":0.7480314960629921},{"duration":0.2142855000000008,"durationTicks":120,"midi":52,"name":"E3","ticks":8640,"time":15.428556,"velocity":0.7480314960629921},{"duration":0.2142855000000008,"durationTicks":120,"midi":47,"name":"B2","ticks":8640,"time":15.428556,"velocity":0.7480314960629921},{"duration":0.2142855000000008,"durationTicks":120,"midi":55,"name":"G3","ticks":8760,"time":15.642841500000001,"velocity":0.7480314960629921},{"duration":0.21428549999999902,"durationTicks":120,"midi":59,"name":"B3","ticks":8880,"time":15.857127000000002,"velocity":0.7480314960629921},{"duration":0.21428549999999902,"durationTicks":120,"midi":52,"name":"E3","ticks":8880,"time":15.857127000000002,"velocity":0.7480314960629921},{"duration":0.21428549999999902,"durationTicks":120,"midi":57,"name":"A3","ticks":9000,"time":16.0714125,"velocity":0.7480314960629921},{"duration":0.4285710000000016,"durationTicks":240,"midi":59,"name":"B3","ticks":9120,"time":16.285698,"velocity":0.7480314960629921},{"duration":0.4285710000000016,"durationTicks":240,"midi":40,"name":"E2","ticks":9120,"time":16.285698,"velocity":0.7480314960629921},{"duration":0.21428549999999902,"durationTicks":120,"midi":52,"name":"E3","ticks":9360,"time":16.714269,"velocity":0.7480314960629921},{"duration":0.21428549999999902,"durationTicks":120,"midi":47,"name":"B2","ticks":9360,"time":16.714269,"velocity":0.7480314960629921},{"duration":0.21428549999999902,"durationTicks":120,"midi":55,"name":"G3","ticks":9480,"time":16.9285545,"velocity":0.7480314960629921},{"duration":0.21428550000000257,"durationTicks":120,"midi":59,"name":"B3","ticks":9600,"time":17.14284,"velocity":0.7480314960629921},{"duration":0.21428550000000257,"durationTicks":120,"midi":52,"name":"E3","ticks":9600,"time":17.14284,"velocity":0.7480314960629921},{"duration":0.21428549999999902,"durationTicks":120,"midi":57,"name":"A3","ticks":9720,"time":17.357125500000002,"velocity":0.7480314960629921},{"duration":0.4285710000000016,"durationTicks":240,"midi":59,"name":"B3","ticks":9840,"time":17.571411,"velocity":0.7480314960629921},{"duration":0.4285710000000016,"durationTicks":240,"midi":40,"name":"E2","ticks":9840,"time":17.571411,"velocity":0.7480314960629921},{"duration":0.21428549999999902,"durationTicks":120,"midi":52,"name":"E3","ticks":10080,"time":17.999982000000003,"velocity":0.7480314960629921},{"duration":0.21428549999999902,"durationTicks":120,"midi":47,"name":"B2","ticks":10080,"time":17.999982000000003,"velocity":0.7480314960629921},{"duration":0.21428549999999902,"durationTicks":120,"midi":55,"name":"G3","ticks":10200,"time":18.214267500000002,"velocity":0.7480314960629921},{"duration":0.21428549999999902,"durationTicks":120,"midi":60,"name":"C4","ticks":10320,"time":18.428553,"velocity":0.7480314960629921},{"duration":0.21428549999999902,"durationTicks":120,"midi":50,"name":"D3","ticks":10320,"time":18.428553,"velocity":0.7480314960629921},{"duration":0.21428550000000257,"durationTicks":120,"midi":59,"name":"B3","ticks":10440,"time":18.6428385,"velocity":0.7480314960629921},{"duration":0.42857099999999804,"durationTicks":240,"midi":60,"name":"C4","ticks":10560,"time":18.857124000000002,"velocity":0.7480314960629921},{"duration":0.42857099999999804,"durationTicks":240,"midi":45,"name":"A2","ticks":10560,"time":18.857124000000002,"velocity":0.7480314960629921},{"duration":0.21428550000000257,"durationTicks":120,"midi":52,"name":"E3","ticks":10800,"time":19.285695,"velocity":0.7480314960629921},{"duration":0.21428549999999902,"durationTicks":120,"midi":55,"name":"G3","ticks":10920,"time":19.499980500000003,"velocity":0.7480314960629921},{"duration":0.21428549999999902,"durationTicks":120,"midi":60,"name":"C4","ticks":11040,"time":19.714266000000002,"velocity":0.7480314960629921},{"duration":0.21428549999999902,"durationTicks":120,"midi":57,"name":"A3","ticks":11040,"time":19.714266000000002,"velocity":0.7480314960629921},{"duration":0.21428549999999902,"durationTicks":120,"midi":59,"name":"B3","ticks":11160,"time":19.9285515,"velocity":0.7480314960629921},{"duration":0.4285710000000016,"durationTicks":240,"midi":60,"name":"C4","ticks":11280,"time":20.142837,"velocity":0.7480314960629921},{"duration":0.4285710000000016,"durationTicks":240,"midi":45,"name":"A2","ticks":11280,"time":20.142837,"velocity":0.7480314960629921},{"duration":0.21428549999999902,"durationTicks":120,"midi":60,"name":"C4","ticks":11520,"time":20.571408,"velocity":0.7480314960629921},{"duration":0.21428549999999902,"durationTicks":120,"midi":52,"name":"E3","ticks":11520,"time":20.571408,"velocity":0.7480314960629921},{"duration":0.21428550000000257,"durationTicks":120,"midi":59,"name":"B3","ticks":11640,"time":20.7856935,"velocity":0.7480314960629921},{"duration":0.21428549999999902,"durationTicks":120,"midi":60,"name":"C4","ticks":11760,"time":20.999979000000003,"velocity":0.7480314960629921},{"duration":0.21428549999999902,"durationTicks":120,"midi":57,"name":"A3","ticks":11760,"time":20.999979000000003,"velocity":0.7480314960629921},{"duration":0.21428549999999902,"durationTicks":120,"midi":61,"name":"C#4","ticks":11880,"time":21.214264500000002,"velocity":0.7480314960629921},{"duration":0.4285710000000016,"durationTicks":240,"midi":62,"name":"D4","ticks":12000,"time":21.42855,"velocity":0.7480314960629921},{"duration":0.4285710000000016,"durationTicks":240,"midi":50,"name":"D3","ticks":12000,"time":21.42855,"velocity":0.7480314960629921},{"duration":0.21428549999999902,"durationTicks":120,"midi":62,"name":"D4","ticks":12240,"time":21.857121000000003,"velocity":0.7480314960629921},{"duration":0.21428549999999902,"durationTicks":120,"midi":57,"name":"A3","ticks":12240,"time":21.857121000000003,"velocity":0.7480314960629921},{"duration":0.21428549999999902,"durationTicks":120,"midi":64,"name":"E4","ticks":12360,"time":22.071406500000002,"velocity":0.7480314960629921},{"duration":0.21428550000000257,"durationTicks":120,"midi":62,"name":"D4","ticks":12480,"time":22.285692,"velocity":0.7480314960629921},{"duration":0.21428550000000257,"durationTicks":120,"midi":54,"name":"F#3","ticks":12480,"time":22.285692,"velocity":0.7480314960629921},{"duration":0.21428549999999902,"durationTicks":120,"midi":64,"name":"E4","ticks":12600,"time":22.499977500000004,"velocity":0.7480314960629921},{"duration":0.42857099999999804,"durationTicks":240,"midi":59,"name":"B3","ticks":12720,"time":22.714263000000003,"velocity":0.7480314960629921},{"duration":0.42857099999999804,"durationTicks":240,"midi":43,"name":"G2","ticks":12720,"time":22.714263000000003,"velocity":0.7480314960629921},{"duration":0.4285710000000016,"durationTicks":240,"midi":55,"name":"G3","ticks":12960,"time":23.142834,"velocity":0.7480314960629921},{"duration":0.4285710000000016,"durationTicks":240,"midi":54,"name":"F#3","ticks":13200,"time":23.571405000000002,"velocity":0.7480314960629921},{"duration":0.4285710000000016,"durationTicks":240,"midi":42,"name":"F#2","ticks":13200,"time":23.571405000000002,"velocity":0.7480314960629921},{"duration":0.42857099999999804,"durationTicks":240,"midi":71,"name":"B4","ticks":13440,"time":23.999976000000004,"velocity":0.7480314960629921},{"duration":0.42857099999999804,"durationTicks":240,"midi":40,"name":"E2","ticks":13440,"time":23.999976000000004,"velocity":0.7480314960629921},{"duration":0.21428549999999902,"durationTicks":120,"midi":64,"name":"E4","ticks":13680,"time":24.428547000000002,"velocity":0.7480314960629921},{"duration":0.21428549999999902,"durationTicks":120,"midi":59,"name":"B3","ticks":13680,"time":24.428547000000002,"velocity":0.7480314960629921},{"duration":0.21428550000000257,"durationTicks":120,"midi":67,"name":"G4","ticks":13800,"time":24.6428325,"velocity":0.7480314960629921},{"duration":0.21428549999999902,"durationTicks":120,"midi":71,"name":"B4","ticks":13920,"time":24.857118000000003,"velocity":0.7480314960629921},{"duration":0.21428549999999902,"durationTicks":120,"midi":64,"name":"E4","ticks":13920,"time":24.857118000000003,"velocity":0.7480314960629921},{"duration":0.21428549999999902,"durationTicks":120,"midi":69,"name":"A4","ticks":14040,"time":25.071403500000002,"velocity":0.7480314960629921},{"duration":0.4285710000000016,"durationTicks":240,"midi":71,"name":"B4","ticks":14160,"time":25.285689,"velocity":0.7480314960629921},{"duration":0.4285710000000016,"durationTicks":240,"midi":40,"name":"E2","ticks":14160,"time":25.285689,"velocity":0.7480314960629921},{"duration":0.21428549999999902,"durationTicks":120,"midi":64,"name":"E4","ticks":14400,"time":25.714260000000003,"velocity":0.7480314960629921},{"duration":0.21428549999999902,"durationTicks":120,"midi":59,"name":"B3","ticks":14400,"time":25.714260000000003,"velocity":0.7480314960629921},{"duration":0.21428549999999902,"durationTicks":120,"midi":67,"name":"G4","ticks":14520,"time":25.928545500000002,"velocity":0.7480314960629921},{"duration":0.21428550000000257,"durationTicks":120,"midi":71,"name":"B4","ticks":14640,"time":26.142831,"velocity":0.7480314960629921},{"duration":0.21428550000000257,"durationTicks":120,"midi":64,"name":"E4","ticks":14640,"time":26.142831,"velocity":0.7480314960629921},{"duration":0.21428549999999902,"durationTicks":120,"midi":69,"name":"A4","ticks":14760,"time":26.357116500000004,"velocity":0.7480314960629921},{"duration":0.42857099999999804,"durationTicks":240,"midi":71,"name":"B4","ticks":14880,"time":26.571402000000003,"velocity":0.7480314960629921},{"duration":0.42857099999999804,"durationTicks":240,"midi":40,"name":"E2","ticks":14880,"time":26.571402000000003,"velocity":0.7480314960629921},{"duration":0.21428550000000257,"durationTicks":120,"midi":64,"name":"E4","ticks":15120,"time":26.999973,"velocity":0.7480314960629921},{"duration":0.21428550000000257,"durationTicks":120,"midi":59,"name":"B3","ticks":15120,"time":26.999973,"velocity":0.7480314960629921},{"duration":0.21428549999999902,"durationTicks":120,"midi":67,"name":"G4","ticks":15240,"time":27.214258500000003,"velocity":0.7480314960629921},{"duration":0.21428549999999902,"durationTicks":120,"midi":72,"name":"C5","ticks":15360,"time":27.428544000000002,"velocity":0.7480314960629921},{"duration":0.21428549999999902,"durationTicks":120,"midi":64,"name":"E4","ticks":15360,"time":27.428544000000002,"velocity":0.7480314960629921},{"duration":0.21428550000000257,"durationTicks":120,"midi":71,"name":"B4","ticks":15480,"time":27.6428295,"velocity":0.7480314960629921},{"duration":0.42857099999999804,"durationTicks":240,"midi":72,"name":"C5","ticks":15600,"time":27.857115000000004,"velocity":0.7480314960629921},{"duration":0.42857099999999804,"durationTicks":240,"midi":45,"name":"A2","ticks":15600,"time":27.857115000000004,"velocity":0.7480314960629921},{"duration":0.21428549999999902,"durationTicks":120,"midi":64,"name":"E4","ticks":15840,"time":28.285686000000002,"velocity":0.7480314960629921},{"duration":0.21428549999999902,"durationTicks":120,"midi":60,"name":"C4","ticks":15840,"time":28.285686000000002,"velocity":0.7480314960629921},{"duration":0.21428550000000257,"durationTicks":120,"midi":67,"name":"G4","ticks":15960,"time":28.4999715,"velocity":0.7480314960629921},{"duration":0.21428549999999902,"durationTicks":120,"midi":72,"name":"C5","ticks":16080,"time":28.714257000000003,"velocity":0.7480314960629921},{"duration":0.21428549999999902,"durationTicks":120,"midi":64,"name":"E4","ticks":16080,"time":28.714257000000003,"velocity":0.7480314960629921},{"duration":0.21428549999999902,"durationTicks":120,"midi":71,"name":"B4","ticks":16200,"time":28.928542500000002,"velocity":0.7480314960629921},{"duration":0.4285710000000016,"durationTicks":240,"midi":72,"name":"C5","ticks":16320,"time":29.142828,"velocity":0.7480314960629921},{"duration":0.4285710000000016,"durationTicks":240,"midi":45,"name":"A2","ticks":16320,"time":29.142828,"velocity":0.7480314960629921},{"duration":0.21428549999999902,"durationTicks":120,"midi":72,"name":"C5","ticks":16560,"time":29.571399000000003,"velocity":0.7480314960629921},{"duration":0.21428549999999902,"durationTicks":120,"midi":60,"name":"C4","ticks":16560,"time":29.571399000000003,"velocity":0.7480314960629921},{"duration":0.21428549999999902,"durationTicks":120,"midi":71,"name":"B4","ticks":16680,"time":29.785684500000002,"velocity":0.7480314960629921},{"duration":0.21428550000000257,"durationTicks":120,"midi":72,"name":"C5","ticks":16800,"time":29.99997,"velocity":0.7480314960629921},{"duration":0.21428550000000257,"durationTicks":120,"midi":64,"name":"E4","ticks":16800,"time":29.99997,"velocity":0.7480314960629921},{"duration":0.21428549999999902,"durationTicks":120,"midi":73,"name":"C#5","ticks":16920,"time":30.214255500000004,"velocity":0.7480314960629921},{"duration":0.42857099999999804,"durationTicks":240,"midi":74,"name":"D5","ticks":17040,"time":30.428541000000003,"velocity":0.7480314960629921},{"duration":0.42857099999999804,"durationTicks":240,"midi":50,"name":"D3","ticks":17040,"time":30.428541000000003,"velocity":0.7480314960629921},{"duration":0.21428550000000257,"durationTicks":120,"midi":74,"name":"D5","ticks":17280,"time":30.857112,"velocity":0.7480314960629921},{"duration":0.21428550000000257,"durationTicks":120,"midi":66,"name":"F#4","ticks":17280,"time":30.857112,"velocity":0.7480314960629921},{"duration":0.21428549999999902,"durationTicks":120,"midi":76,"name":"E5","ticks":17400,"time":31.071397500000003,"velocity":0.7480314960629921},{"duration":0.21428549999999902,"durationTicks":120,"midi":74,"name":"D5","ticks":17520,"time":31.285683000000002,"velocity":0.7480314960629921},{"duration":0.21428549999999902,"durationTicks":120,"midi":69,"name":"A4","ticks":17520,"time":31.285683000000002,"velocity":0.7480314960629921},{"duration":0.21428550000000257,"durationTicks":120,"midi":76,"name":"E5","ticks":17640,"time":31.4999685,"velocity":0.7480314960629921},{"duration":0.42857099999999804,"durationTicks":240,"midi":71,"name":"B4","ticks":17760,"time":31.714254000000004,"velocity":0.7480314960629921},{"duration":0.42857099999999804,"durationTicks":240,"midi":43,"name":"G2","ticks":17760,"time":31.714254000000004,"velocity":0.7480314960629921},{"duration":0.42857099999999804,"durationTicks":240,"midi":55,"name":"G3","ticks":18000,"time":32.142825,"velocity":0.7480314960629921},{"duration":0.42857100000000514,"durationTicks":240,"midi":54,"name":"F#3","ticks":18240,"time":32.571396,"velocity":0.7480314960629921},{"duration":0.42857100000000514,"durationTicks":240,"midi":42,"name":"F#2","ticks":18240,"time":32.571396,"velocity":0.7480314960629921},{"duration":0.42857099999999804,"durationTicks":240,"midi":67,"name":"G4","ticks":18480,"time":32.999967000000005,"velocity":0.7480314960629921},{"duration":0.42857099999999804,"durationTicks":240,"midi":40,"name":"E2","ticks":18480,"time":32.999967000000005,"velocity":0.7480314960629921},{"duration":0.21428550000000257,"durationTicks":120,"midi":47,"name":"B2","ticks":18720,"time":33.428538,"velocity":0.7480314960629921},{"duration":0.21428549999999547,"durationTicks":120,"midi":59,"name":"B3","ticks":18840,"time":33.642823500000006,"velocity":0.7480314960629921},{"duration":0.21428550000000257,"durationTicks":120,"midi":59,"name":"B3","ticks":18960,"time":33.857109,"velocity":0.7480314960629921},{"duration":0.21428550000000257,"durationTicks":120,"midi":52,"name":"E3","ticks":18960,"time":33.857109,"velocity":0.7480314960629921},{"duration":0.21428549999999547,"durationTicks":120,"midi":60,"name":"C4","ticks":19080,"time":34.071394500000004,"velocity":0.7480314960629921},{"duration":0.42857100000000514,"durationTicks":240,"midi":60,"name":"C4","ticks":19200,"time":34.28568,"velocity":0.7480314960629921},{"duration":0.42857100000000514,"durationTicks":240,"midi":45,"name":"A2","ticks":19200,"time":34.28568,"velocity":0.7480314960629921},{"duration":0.21428549999999547,"durationTicks":120,"midi":52,"name":"E3","ticks":19440,"time":34.714251000000004,"velocity":0.7480314960629921},{"duration":0.21428550000000257,"durationTicks":120,"midi":57,"name":"A3","ticks":19560,"time":34.9285365,"velocity":0.7480314960629921},{"duration":0.21428550000000257,"durationTicks":120,"midi":66,"name":"F#4","ticks":19680,"time":35.142822,"velocity":0.7480314960629921},{"duration":0.21428550000000257,"durationTicks":120,"midi":55,"name":"G3","ticks":19680,"time":35.142822,"velocity":0.7480314960629921},{"duration":0.21428549999999547,"durationTicks":120,"midi":64,"name":"E4","ticks":19800,"time":35.357107500000005,"velocity":0.7480314960629921},{"duration":0.42857100000000514,"durationTicks":240,"midi":66,"name":"F#4","ticks":19920,"time":35.571393,"velocity":0.7480314960629921},{"duration":0.42857100000000514,"durationTicks":240,"midi":50,"name":"D3","ticks":19920,"time":35.571393,"velocity":0.7480314960629921},{"duration":0.21428549999999547,"durationTicks":120,"midi":42,"name":"F#2","ticks":20160,"time":35.999964000000006,"velocity":0.7480314960629921},{"duration":0.21428550000000257,"durationTicks":120,"midi":57,"name":"A3","ticks":20280,"time":36.2142495,"velocity":0.7480314960629921},{"duration":0.21428550000000257,"durationTicks":120,"midi":57,"name":"A3","ticks":20400,"time":36.428535000000004,"velocity":0.7480314960629921},{"duration":0.21428550000000257,"durationTicks":120,"midi":45,"name":"A2","ticks":20400,"time":36.428535000000004,"velocity":0.7480314960629921},{"duration":0.21428549999999547,"durationTicks":120,"midi":59,"name":"B3","ticks":20520,"time":36.642820500000006,"velocity":0.7480314960629921},{"duration":0.42857099999999804,"durationTicks":240,"midi":59,"name":"B3","ticks":20640,"time":36.857106,"velocity":0.7480314960629921},{"duration":0.42857099999999804,"durationTicks":240,"midi":43,"name":"G2","ticks":20640,"time":36.857106,"velocity":0.7480314960629921},{"duration":0.21428550000000257,"durationTicks":120,"midi":55,"name":"G3","ticks":20880,"time":37.285677,"velocity":0.7480314960629921},{"duration":0.21428550000000257,"durationTicks":120,"midi":55,"name":"G3","ticks":21000,"time":37.4999625,"velocity":0.7480314960629921},{"duration":0.21428549999999547,"durationTicks":120,"midi":64,"name":"E4","ticks":21120,"time":37.714248000000005,"velocity":0.7480314960629921},{"duration":0.21428549999999547,"durationTicks":120,"midi":42,"name":"F#2","ticks":21120,"time":37.714248000000005,"velocity":0.7480314960629921},{"duration":0.21428550000000257,"durationTicks":120,"midi":62,"name":"D4","ticks":21240,"time":37.9285335,"velocity":0.7480314960629921},{"duration":0.42857099999999804,"durationTicks":240,"midi":64,"name":"E4","ticks":21360,"time":38.142819,"velocity":0.7480314960629921},{"duration":0.42857099999999804,"durationTicks":240,"midi":40,"name":"E2","ticks":21360,"time":38.142819,"velocity":0.7480314960629921},{"duration":0.21428550000000257,"durationTicks":120,"midi":47,"name":"B2","ticks":21600,"time":38.57139,"velocity":0.7480314960629921},{"duration":0.21428550000000257,"durationTicks":120,"midi":55,"name":"G3","ticks":21720,"time":38.7856755,"velocity":0.7480314960629921},{"duration":0.21428549999999547,"durationTicks":120,"midi":55,"name":"G3","ticks":21840,"time":38.999961000000006,"velocity":0.7480314960629921},{"duration":0.21428549999999547,"durationTicks":120,"midi":40,"name":"E2","ticks":21840,"time":38.999961000000006,"velocity":0.7480314960629921},{"duration":0.21428550000000257,"durationTicks":120,"midi":57,"name":"A3","ticks":21960,"time":39.2142465,"velocity":0.7480314960629921},{"duration":0.42857099999999804,"durationTicks":240,"midi":57,"name":"A3","ticks":22080,"time":39.428532000000004,"velocity":0.7480314960629921},{"duration":0.42857099999999804,"durationTicks":240,"midi":42,"name":"F#2","ticks":22080,"time":39.428532000000004,"velocity":0.7480314960629921},{"duration":0.21428550000000257,"durationTicks":120,"midi":49,"name":"C#3","ticks":22320,"time":39.857103,"velocity":0.7480314960629921},{"duration":0.21428549999999547,"durationTicks":120,"midi":54,"name":"F#3","ticks":22440,"time":40.071388500000005,"velocity":0.7480314960629921},{"duration":0.21428550000000257,"durationTicks":120,"midi":59,"name":"B3","ticks":22560,"time":40.285674,"velocity":0.7480314960629921},{"duration":0.21428550000000257,"durationTicks":120,"midi":42,"name":"F#2","ticks":22560,"time":40.285674,"velocity":0.7480314960629921},{"duration":0.21428550000000257,"durationTicks":120,"midi":57,"name":"A3","ticks":22680,"time":40.4999595,"velocity":0.7480314960629921},{"duration":0.42857099999999804,"durationTicks":240,"midi":59,"name":"B3","ticks":22800,"time":40.714245000000005,"velocity":0.7480314960629921},{"duration":0.42857099999999804,"durationTicks":240,"midi":47,"name":"B2","ticks":22800,"time":40.714245000000005,"velocity":0.7480314960629921},{"duration":0.42857099999999804,"durationTicks":240,"midi":49,"name":"C#3","ticks":23040,"time":41.142816,"velocity":0.7480314960629921},{"duration":0.42857100000000514,"durationTicks":240,"midi":51,"name":"D#3","ticks":23280,"time":41.571387,"velocity":0.7480314960629921},{"duration":0.42857099999999804,"durationTicks":240,"midi":67,"name":"G4","ticks":23520,"time":41.99995800000001,"velocity":0.7480314960629921},{"duration":0.42857099999999804,"durationTicks":240,"midi":40,"name":"E2","ticks":23520,"time":41.99995800000001,"velocity":0.7480314960629921},{"duration":0.21428549999999547,"durationTicks":120,"midi":47,"name":"B2","ticks":23760,"time":42.428529000000005,"velocity":0.7480314960629921},{"duration":0.21428550000000257,"durationTicks":120,"midi":67,"name":"G4","ticks":23880,"time":42.6428145,"velocity":0.7480314960629921},{"duration":0.21428550000000257,"durationTicks":120,"midi":67,"name":"G4","ticks":24000,"time":42.8571,"velocity":0.7480314960629921},{"duration":0.21428550000000257,"durationTicks":120,"midi":55,"name":"G3","ticks":24000,"time":42.8571,"velocity":0.7480314960629921},{"duration":0.21428549999999547,"durationTicks":120,"midi":69,"name":"A4","ticks":24120,"time":43.071385500000005,"velocity":0.7480314960629921},{"duration":0.42857100000000514,"durationTicks":240,"midi":69,"name":"A4","ticks":24240,"time":43.285671,"velocity":0.7480314960629921},{"duration":0.42857100000000514,"durationTicks":240,"midi":45,"name":"A2","ticks":24240,"time":43.285671,"velocity":0.7480314960629921},{"duration":0.21428549999999547,"durationTicks":120,"midi":52,"name":"E3","ticks":24480,"time":43.714242000000006,"velocity":0.7480314960629921},{"duration":0.21428550000000257,"durationTicks":120,"midi":67,"name":"G4","ticks":24600,"time":43.9285275,"velocity":0.7480314960629921},{"duration":0.21428550000000257,"durationTicks":120,"midi":66,"name":"F#4","ticks":24720,"time":44.142813000000004,"velocity":0.7480314960629921},{"duration":0.21428550000000257,"durationTicks":120,"midi":57,"name":"A3","ticks":24720,"time":44.142813000000004,"velocity":0.7480314960629921},{"duration":0.21428549999999547,"durationTicks":120,"midi":64,"name":"E4","ticks":24840,"time":44.357098500000006,"velocity":0.7480314960629921},{"duration":0.42857100000000514,"durationTicks":240,"midi":62,"name":"D4","ticks":24960,"time":44.571384,"velocity":0.7480314960629921},{"duration":0.42857100000000514,"durationTicks":240,"midi":50,"name":"D3","ticks":24960,"time":44.571384,"velocity":0.7480314960629921},{"duration":0.21428549999999547,"durationTicks":120,"midi":57,"name":"A3","ticks":25200,"time":44.99995500000001,"velocity":0.7480314960629921},{"duration":0.21428550000000257,"durationTicks":120,"midi":62,"name":"D4","ticks":25320,"time":45.2142405,"velocity":0.7480314960629921},{"duration":0.21428549999999547,"durationTicks":120,"midi":64,"name":"E4","ticks":25440,"time":45.428526000000005,"velocity":0.7480314960629921},{"duration":0.21428549999999547,"durationTicks":120,"midi":54,"name":"F#3","ticks":25440,"time":45.428526000000005,"velocity":0.7480314960629921},{"duration":0.21428550000000257,"durationTicks":120,"midi":62,"name":"D4","ticks":25560,"time":45.6428115,"velocity":0.7480314960629921},{"duration":0.42857099999999804,"durationTicks":240,"midi":59,"name":"B3","ticks":25680,"time":45.857097,"velocity":0.7480314960629921},{"duration":0.42857099999999804,"durationTicks":240,"midi":43,"name":"G2","ticks":25680,"time":45.857097,"velocity":0.7480314960629921},{"duration":0.42857100000000514,"durationTicks":240,"midi":55,"name":"G3","ticks":25920,"time":46.285668,"velocity":0.7480314960629921},{"duration":0.42857099999999804,"durationTicks":240,"midi":54,"name":"F#3","ticks":26160,"time":46.714239000000006,"velocity":0.7480314960629921},{"duration":0.42857099999999804,"durationTicks":240,"midi":42,"name":"F#2","ticks":26160,"time":46.714239000000006,"velocity":0.7480314960629921},{"duration":0.42857099999999804,"durationTicks":240,"midi":67,"name":"G4","ticks":26400,"time":47.142810000000004,"velocity":0.7480314960629921},{"duration":0.42857099999999804,"durationTicks":240,"midi":40,"name":"E2","ticks":26400,"time":47.142810000000004,"velocity":0.7480314960629921},{"duration":0.21428550000000257,"durationTicks":120,"midi":47,"name":"B2","ticks":26640,"time":47.571381,"velocity":0.7480314960629921},{"duration":0.21428550000000257,"durationTicks":120,"midi":67,"name":"G4","ticks":26760,"time":47.785666500000005,"velocity":0.7480314960629921},{"duration":0.21428549999999547,"durationTicks":120,"midi":67,"name":"G4","ticks":26880,"time":47.99995200000001,"velocity":0.7480314960629921},{"duration":0.21428549999999547,"durationTicks":120,"midi":55,"name":"G3","ticks":26880,"time":47.99995200000001,"velocity":0.7480314960629921},{"duration":0.21428550000000257,"durationTicks":120,"midi":69,"name":"A4","ticks":27000,"time":48.2142375,"velocity":0.7480314960629921},{"duration":0.42857099999999804,"durationTicks":240,"midi":69,"name":"A4","ticks":27120,"time":48.428523000000006,"velocity":0.7480314960629921},{"duration":0.42857099999999804,"durationTicks":240,"midi":45,"name":"A2","ticks":27120,"time":48.428523000000006,"velocity":0.7480314960629921},{"duration":0.21428550000000257,"durationTicks":120,"midi":52,"name":"E3","ticks":27360,"time":48.857094000000004,"velocity":0.7480314960629921},{"duration":0.21428549999999547,"durationTicks":120,"midi":67,"name":"G4","ticks":27480,"time":49.071379500000006,"velocity":0.7480314960629921},{"duration":0.21428550000000257,"durationTicks":120,"midi":66,"name":"F#4","ticks":27600,"time":49.285665,"velocity":0.7480314960629921},{"duration":0.21428550000000257,"durationTicks":120,"midi":57,"name":"A3","ticks":27600,"time":49.285665,"velocity":0.7480314960629921},{"duration":0.21428550000000257,"durationTicks":120,"midi":64,"name":"E4","ticks":27720,"time":49.499950500000004,"velocity":0.7480314960629921},{"duration":0.42857099999999804,"durationTicks":240,"midi":62,"name":"D4","ticks":27840,"time":49.71423600000001,"velocity":0.7480314960629921},{"duration":0.42857099999999804,"durationTicks":240,"midi":50,"name":"D3","ticks":27840,"time":49.71423600000001,"velocity":0.7480314960629921},{"duration":0.21428550000000257,"durationTicks":120,"midi":57,"name":"A3","ticks":28080,"time":50.142807000000005,"velocity":0.7480314960629921},{"duration":0.21428549999999547,"durationTicks":120,"midi":62,"name":"D4","ticks":28200,"time":50.35709250000001,"velocity":0.7480314960629921},{"duration":0.21428550000000257,"durationTicks":120,"midi":64,"name":"E4","ticks":28320,"time":50.571378,"velocity":0.7480314960629921},{"duration":0.21428550000000257,"durationTicks":120,"midi":54,"name":"F#3","ticks":28320,"time":50.571378,"velocity":0.7480314960629921},{"duration":0.21428549999999547,"durationTicks":120,"midi":62,"name":"D4","ticks":28440,"time":50.785663500000005,"velocity":0.7480314960629921},{"duration":0.42857100000000514,"durationTicks":240,"midi":64,"name":"E4","ticks":28560,"time":50.999949,"velocity":0.7480314960629921},{"duration":0.42857100000000514,"durationTicks":240,"midi":40,"name":"E2","ticks":28560,"time":50.999949,"velocity":0.7480314960629921},{"duration":0.42857099999999804,"durationTicks":240,"midi":47,"name":"B2","ticks":28800,"time":51.428520000000006,"velocity":0.7480314960629921},{"duration":0.42857099999999804,"durationTicks":240,"midi":59,"name":"B3","ticks":29040,"time":51.857091000000004,"velocity":0.7480314960629921},{"duration":0.42857099999999804,"durationTicks":240,"midi":55,"name":"G3","ticks":29040,"time":51.857091000000004,"velocity":0.7480314960629921},{"duration":0.42857099999999804,"durationTicks":240,"midi":52,"name":"E3","ticks":29040,"time":51.857091000000004,"velocity":0.7480314960629921},{"duration":0.42857100000000514,"durationTicks":240,"midi":67,"name":"G4","ticks":29280,"time":52.285662,"velocity":0.7480314960629921},{"duration":0.42857100000000514,"durationTicks":240,"midi":40,"name":"E2","ticks":29280,"time":52.285662,"velocity":0.7480314960629921},{"duration":0.21428549999999547,"durationTicks":120,"midi":47,"name":"B2","ticks":29520,"time":52.71423300000001,"velocity":0.7480314960629921},{"duration":0.21428550000000257,"durationTicks":120,"midi":67,"name":"G4","ticks":29640,"time":52.9285185,"velocity":0.7480314960629921},{"duration":0.21428550000000257,"durationTicks":120,"midi":67,"name":"G4","ticks":29760,"time":53.142804000000005,"velocity":0.7480314960629921},{"duration":0.21428550000000257,"durationTicks":120,"midi":55,"name":"G3","ticks":29760,"time":53.142804000000005,"velocity":0.7480314960629921},{"duration":0.21428549999999547,"durationTicks":120,"midi":69,"name":"A4","ticks":29880,"time":53.35708950000001,"velocity":0.7480314960629921},{"duration":0.42857099999999804,"durationTicks":240,"midi":69,"name":"A4","ticks":30000,"time":53.571375,"velocity":0.7480314960629921},{"duration":0.42857099999999804,"durationTicks":240,"midi":45,"name":"A2","ticks":30000,"time":53.571375,"velocity":0.7480314960629921},{"duration":0.21428550000000257,"durationTicks":120,"midi":52,"name":"E3","ticks":30240,"time":53.999946,"velocity":0.7480314960629921},{"duration":0.21428550000000257,"durationTicks":120,"midi":67,"name":"G4","ticks":30360,"time":54.214231500000004,"velocity":0.7480314960629921},{"duration":0.21428549999999547,"durationTicks":120,"midi":66,"name":"F#4","ticks":30480,"time":54.42851700000001,"velocity":0.7480314960629921},{"duration":0.21428549999999547,"durationTicks":120,"midi":57,"name":"A3","ticks":30480,"time":54.42851700000001,"velocity":0.7480314960629921},{"duration":0.21428550000000257,"durationTicks":120,"midi":64,"name":"E4","ticks":30600,"time":54.6428025,"velocity":0.7480314960629921},{"duration":0.42857099999999804,"durationTicks":240,"midi":62,"name":"D4","ticks":30720,"time":54.857088000000005,"velocity":0.7480314960629921},{"duration":0.42857099999999804,"durationTicks":240,"midi":50,"name":"D3","ticks":30720,"time":54.857088000000005,"velocity":0.7480314960629921},{"duration":0.21428550000000257,"durationTicks":120,"midi":57,"name":"A3","ticks":30960,"time":55.285659,"velocity":0.7480314960629921},{"duration":0.21428550000000257,"durationTicks":120,"midi":62,"name":"D4","ticks":31080,"time":55.499944500000005,"velocity":0.7480314960629921},{"duration":0.21428549999999547,"durationTicks":120,"midi":64,"name":"E4","ticks":31200,"time":55.71423000000001,"velocity":0.7480314960629921},{"duration":0.21428549999999547,"durationTicks":120,"midi":54,"name":"F#3","ticks":31200,"time":55.71423000000001,"velocity":0.7480314960629921},{"duration":0.21428550000000257,"durationTicks":120,"midi":62,"name":"D4","ticks":31320,"time":55.9285155,"velocity":0.7480314960629921},{"duration":0.42857099999999804,"durationTicks":240,"midi":59,"name":"B3","ticks":31440,"time":56.142801000000006,"velocity":0.7480314960629921},{"duration":0.42857099999999804,"durationTicks":240,"midi":43,"name":"G2","ticks":31440,"time":56.142801000000006,"velocity":0.7480314960629921},{"duration":0.42857099999999804,"durationTicks":240,"midi":55,"name":"G3","ticks":31680,"time":56.571372000000004,"velocity":0.7480314960629921},{"duration":0.42857100000000514,"durationTicks":240,"midi":54,"name":"F#3","ticks":31920,"time":56.999943,"velocity":0.7480314960629921},{"duration":0.42857100000000514,"durationTicks":240,"midi":42,"name":"F#2","ticks":31920,"time":56.999943,"velocity":0.7480314960629921},{"duration":0.42857099999999804,"durationTicks":240,"midi":67,"name":"G4","ticks":32160,"time":57.42851400000001,"velocity":0.7480314960629921},{"duration":0.42857099999999804,"durationTicks":240,"midi":40,"name":"E2","ticks":32160,"time":57.42851400000001,"velocity":0.7480314960629921},{"duration":0.21428550000000257,"durationTicks":120,"midi":47,"name":"B2","ticks":32400,"time":57.857085000000005,"velocity":0.7480314960629921},{"duration":0.21428549999999547,"durationTicks":120,"midi":67,"name":"G4","ticks":32520,"time":58.07137050000001,"velocity":0.7480314960629921},{"duration":0.21428550000000257,"durationTicks":120,"midi":67,"name":"G4","ticks":32640,"time":58.285656,"velocity":0.7480314960629921},{"duration":0.21428550000000257,"durationTicks":120,"midi":55,"name":"G3","ticks":32640,"time":58.285656,"velocity":0.7480314960629921},{"duration":0.21428550000000257,"durationTicks":120,"midi":69,"name":"A4","ticks":32760,"time":58.499941500000006,"velocity":0.7480314960629921},{"duration":0.42857099999999804,"durationTicks":240,"midi":69,"name":"A4","ticks":32880,"time":58.71422700000001,"velocity":0.7480314960629921},{"duration":0.42857099999999804,"durationTicks":240,"midi":45,"name":"A2","ticks":32880,"time":58.71422700000001,"velocity":0.7480314960629921},{"duration":0.21428549999999547,"durationTicks":120,"midi":52,"name":"E3","ticks":33120,"time":59.142798000000006,"velocity":0.7480314960629921},{"duration":0.21428550000000257,"durationTicks":120,"midi":67,"name":"G4","ticks":33240,"time":59.3570835,"velocity":0.7480314960629921},{"duration":0.21428550000000257,"durationTicks":120,"midi":66,"name":"F#4","ticks":33360,"time":59.571369000000004,"velocity":0.7480314960629921},{"duration":0.21428550000000257,"durationTicks":120,"midi":57,"name":"A3","ticks":33360,"time":59.571369000000004,"velocity":0.7480314960629921},{"duration":0.21428549999999547,"durationTicks":120,"midi":64,"name":"E4","ticks":33480,"time":59.78565450000001,"velocity":0.7480314960629921},{"duration":0.42857100000000514,"durationTicks":240,"midi":62,"name":"D4","ticks":33600,"time":59.99994,"velocity":0.7480314960629921},{"duration":0.42857100000000514,"durationTicks":240,"midi":50,"name":"D3","ticks":33600,"time":59.99994,"velocity":0.7480314960629921},{"duration":0.21428549999999547,"durationTicks":120,"midi":57,"name":"A3","ticks":33840,"time":60.42851100000001,"velocity":0.7480314960629921},{"duration":0.21428550000000257,"durationTicks":120,"midi":62,"name":"D4","ticks":33960,"time":60.6427965,"velocity":0.7480314960629921},{"duration":0.21428550000000257,"durationTicks":120,"midi":64,"name":"E4","ticks":34080,"time":60.857082000000005,"velocity":0.7480314960629921},{"duration":0.21428550000000257,"durationTicks":120,"midi":54,"name":"F#3","ticks":34080,"time":60.857082000000005,"velocity":0.7480314960629921},{"duration":0.21428549999999547,"durationTicks":120,"midi":62,"name":"D4","ticks":34200,"time":61.07136750000001,"velocity":0.7480314960629921},{"duration":0.42857099999999804,"durationTicks":240,"midi":64,"name":"E4","ticks":34320,"time":61.285653,"velocity":0.7480314960629921},{"duration":0.42857099999999804,"durationTicks":240,"midi":40,"name":"E2","ticks":34320,"time":61.285653,"velocity":0.7480314960629921},{"duration":0.42857100000000514,"durationTicks":240,"midi":47,"name":"B2","ticks":34560,"time":61.714224,"velocity":0.7480314960629921},{"duration":0.42857099999999804,"durationTicks":240,"midi":52,"name":"E3","ticks":34800,"time":62.14279500000001,"velocity":0.7480314960629921},{"duration":0.42857099999999804,"durationTicks":240,"midi":47,"name":"B2","ticks":35040,"time":62.571366000000005,"velocity":0.7480314960629921},{"duration":0.42857100000000514,"durationTicks":240,"midi":52,"name":"E3","ticks":35280,"time":62.999937,"velocity":0.7480314960629921},{"duration":0.42857099999999804,"durationTicks":240,"midi":55,"name":"G3","ticks":35520,"time":63.42850800000001,"velocity":0.7480314960629921},{"duration":0.42857099999999804,"durationTicks":240,"midi":59,"name":"B3","ticks":35760,"time":63.857079000000006,"velocity":0.7480314960629921},{"duration":0.42857099999999804,"durationTicks":240,"midi":40,"name":"E2","ticks":35760,"time":63.857079000000006,"velocity":0.7480314960629921},{"duration":0.21428550000000257,"durationTicks":120,"midi":52,"name":"E3","ticks":36000,"time":64.28565,"velocity":0.7480314960629921},{"duration":0.21428550000000257,"durationTicks":120,"midi":47,"name":"B2","ticks":36000,"time":64.28565,"velocity":0.7480314960629921},{"duration":0.21428550000000257,"durationTicks":120,"midi":55,"name":"G3","ticks":36120,"time":64.4999355,"velocity":0.7480314960629921},{"duration":0.21428550000000257,"durationTicks":120,"midi":59,"name":"B3","ticks":36240,"time":64.71422100000001,"velocity":0.7480314960629921},{"duration":0.21428550000000257,"durationTicks":120,"midi":52,"name":"E3","ticks":36240,"time":64.71422100000001,"velocity":0.7480314960629921},{"duration":0.21428549999998836,"durationTicks":120,"midi":57,"name":"A3","ticks":36360,"time":64.92850650000001,"velocity":0.7480314960629921},{"duration":0.42857100000000514,"durationTicks":240,"midi":59,"name":"B3","ticks":36480,"time":65.142792,"velocity":0.7480314960629921},{"duration":0.42857100000000514,"durationTicks":240,"midi":40,"name":"E2","ticks":36480,"time":65.142792,"velocity":0.7480314960629921},{"duration":0.21428550000000257,"durationTicks":120,"midi":52,"name":"E3","ticks":36720,"time":65.571363,"velocity":0.7480314960629921},{"duration":0.21428550000000257,"durationTicks":120,"midi":47,"name":"B2","ticks":36720,"time":65.571363,"velocity":0.7480314960629921},{"duration":0.21428550000000257,"durationTicks":120,"midi":55,"name":"G3","ticks":36840,"time":65.78564850000001,"velocity":0.7480314960629921},{"duration":0.21428549999998836,"durationTicks":120,"midi":59,"name":"B3","ticks":36960,"time":65.99993400000001,"velocity":0.7480314960629921},{"duration":0.21428549999998836,"durationTicks":120,"midi":52,"name":"E3","ticks":36960,"time":65.99993400000001,"velocity":0.7480314960629921},{"duration":0.21428550000000257,"durationTicks":120,"midi":57,"name":"A3","ticks":37080,"time":66.2142195,"velocity":0.7480314960629921},{"duration":0.42857100000000514,"durationTicks":240,"midi":59,"name":"B3","ticks":37200,"time":66.428505,"velocity":0.7480314960629921},{"duration":0.42857100000000514,"durationTicks":240,"midi":40,"name":"E2","ticks":37200,"time":66.428505,"velocity":0.7480314960629921},{"duration":0.21428550000000257,"durationTicks":120,"midi":52,"name":"E3","ticks":37440,"time":66.857076,"velocity":0.7480314960629921},{"duration":0.21428550000000257,"durationTicks":120,"midi":47,"name":"B2","ticks":37440,"time":66.857076,"velocity":0.7480314960629921},{"duration":0.21428550000000257,"durationTicks":120,"midi":55,"name":"G3","ticks":37560,"time":67.07136150000001,"velocity":0.7480314960629921},{"duration":0.21428549999998836,"durationTicks":120,"midi":60,"name":"C4","ticks":37680,"time":67.28564700000001,"velocity":0.7480314960629921},{"duration":0.21428549999998836,"durationTicks":120,"midi":50,"name":"D3","ticks":37680,"time":67.28564700000001,"velocity":0.7480314960629921},{"duration":0.21428550000000257,"durationTicks":120,"midi":59,"name":"B3","ticks":37800,"time":67.4999325,"velocity":0.7480314960629921},{"duration":0.42857100000000514,"durationTicks":240,"midi":60,"name":"C4","ticks":37920,"time":67.714218,"velocity":0.7480314960629921},{"duration":0.42857100000000514,"durationTicks":240,"midi":45,"name":"A2","ticks":37920,"time":67.714218,"velocity":0.7480314960629921},{"duration":0.21428550000000257,"durationTicks":120,"midi":52,"name":"E3","ticks":38160,"time":68.14278900000001,"velocity":0.7480314960629921},{"duration":0.21428549999998836,"durationTicks":120,"midi":55,"name":"G3","ticks":38280,"time":68.35707450000001,"velocity":0.7480314960629921},{"duration":0.21428550000000257,"durationTicks":120,"midi":60,"name":"C4","ticks":38400,"time":68.57136,"velocity":0.7480314960629921},{"duration":0.21428550000000257,"durationTicks":120,"midi":57,"name":"A3","ticks":38400,"time":68.57136,"velocity":0.7480314960629921},{"duration":0.21428550000000257,"durationTicks":120,"midi":59,"name":"B3","ticks":38520,"time":68.7856455,"velocity":0.7480314960629921},{"duration":0.42857100000000514,"durationTicks":240,"midi":60,"name":"C4","ticks":38640,"time":68.999931,"velocity":0.7480314960629921},{"duration":0.42857100000000514,"durationTicks":240,"midi":45,"name":"A2","ticks":38640,"time":68.999931,"velocity":0.7480314960629921},{"duration":0.21428550000000257,"durationTicks":120,"midi":60,"name":"C4","ticks":38880,"time":69.42850200000001,"velocity":0.7480314960629921},{"duration":0.21428550000000257,"durationTicks":120,"midi":52,"name":"E3","ticks":38880,"time":69.42850200000001,"velocity":0.7480314960629921},{"duration":0.21428549999998836,"durationTicks":120,"midi":59,"name":"B3","ticks":39000,"time":69.64278750000001,"velocity":0.7480314960629921},{"duration":0.21428550000000257,"durationTicks":120,"midi":60,"name":"C4","ticks":39120,"time":69.857073,"velocity":0.7480314960629921},{"duration":0.21428550000000257,"durationTicks":120,"midi":57,"name":"A3","ticks":39120,"time":69.857073,"velocity":0.7480314960629921},{"duration":0.21428550000000257,"durationTicks":120,"midi":61,"name":"C#4","ticks":39240,"time":70.0713585,"velocity":0.7480314960629921},{"duration":0.42857100000000514,"durationTicks":240,"midi":62,"name":"D4","ticks":39360,"time":70.285644,"velocity":0.7480314960629921},{"duration":0.42857100000000514,"durationTicks":240,"midi":50,"name":"D3","ticks":39360,"time":70.285644,"velocity":0.7480314960629921},{"duration":0.21428550000000257,"durationTicks":120,"midi":62,"name":"D4","ticks":39600,"time":70.71421500000001,"velocity":0.7480314960629921},{"duration":0.21428550000000257,"durationTicks":120,"midi":57,"name":"A3","ticks":39600,"time":70.71421500000001,"velocity":0.7480314960629921},{"duration":0.21428549999998836,"durationTicks":120,"midi":64,"name":"E4","ticks":39720,"time":70.92850050000001,"velocity":0.7480314960629921},{"duration":0.21428550000000257,"durationTicks":120,"midi":62,"name":"D4","ticks":39840,"time":71.142786,"velocity":0.7480314960629921},{"duration":0.21428550000000257,"durationTicks":120,"midi":54,"name":"F#3","ticks":39840,"time":71.142786,"velocity":0.7480314960629921},{"duration":0.21428550000000257,"durationTicks":120,"midi":64,"name":"E4","ticks":39960,"time":71.3570715,"velocity":0.7480314960629921},{"duration":0.42857100000000514,"durationTicks":240,"midi":59,"name":"B3","ticks":40080,"time":71.571357,"velocity":0.7480314960629921},{"duration":0.42857100000000514,"durationTicks":240,"midi":43,"name":"G2","ticks":40080,"time":71.571357,"velocity":0.7480314960629921},{"duration":0.42857099999999093,"durationTicks":240,"midi":55,"name":"G3","ticks":40320,"time":71.99992800000001,"velocity":0.7480314960629921},{"duration":0.42857100000000514,"durationTicks":240,"midi":54,"name":"F#3","ticks":40560,"time":72.428499,"velocity":0.7480314960629921},{"duration":0.42857100000000514,"durationTicks":240,"midi":42,"name":"F#2","ticks":40560,"time":72.428499,"velocity":0.7480314960629921},{"duration":0.42857100000000514,"durationTicks":240,"midi":71,"name":"B4","ticks":40800,"time":72.85707000000001,"velocity":0.7480314960629921},{"duration":0.42857100000000514,"durationTicks":240,"midi":40,"name":"E2","ticks":40800,"time":72.85707000000001,"velocity":0.7480314960629921},{"duration":0.21428549999998836,"durationTicks":120,"midi":64,"name":"E4","ticks":41040,"time":73.28564100000001,"velocity":0.7480314960629921},{"duration":0.21428549999998836,"durationTicks":120,"midi":59,"name":"B3","ticks":41040,"time":73.28564100000001,"velocity":0.7480314960629921},{"duration":0.21428550000000257,"durationTicks":120,"midi":67,"name":"G4","ticks":41160,"time":73.4999265,"velocity":0.7480314960629921},{"duration":0.21428550000000257,"durationTicks":120,"midi":71,"name":"B4","ticks":41280,"time":73.714212,"velocity":0.7480314960629921},{"duration":0.21428550000000257,"durationTicks":120,"midi":64,"name":"E4","ticks":41280,"time":73.714212,"velocity":0.7480314960629921},{"duration":0.21428550000000257,"durationTicks":120,"midi":69,"name":"A4","ticks":41400,"time":73.9284975,"velocity":0.7480314960629921},{"duration":0.42857099999999093,"durationTicks":240,"midi":71,"name":"B4","ticks":41520,"time":74.14278300000001,"velocity":0.7480314960629921},{"duration":0.42857099999999093,"durationTicks":240,"midi":40,"name":"E2","ticks":41520,"time":74.14278300000001,"velocity":0.7480314960629921},{"duration":0.21428550000000257,"durationTicks":120,"midi":64,"name":"E4","ticks":41760,"time":74.571354,"velocity":0.7480314960629921},{"duration":0.21428550000000257,"durationTicks":120,"midi":59,"name":"B3","ticks":41760,"time":74.571354,"velocity":0.7480314960629921},{"duration":0.21428550000000257,"durationTicks":120,"midi":67,"name":"G4","ticks":41880,"time":74.7856395,"velocity":0.7480314960629921},{"duration":0.21428550000000257,"durationTicks":120,"midi":71,"name":"B4","ticks":42000,"time":74.999925,"velocity":0.7480314960629921},{"duration":0.21428550000000257,"durationTicks":120,"midi":64,"name":"E4","ticks":42000,"time":74.999925,"velocity":0.7480314960629921},{"duration":0.21428550000000257,"durationTicks":120,"midi":69,"name":"A4","ticks":42120,"time":75.21421050000001,"velocity":0.7480314960629921},{"duration":0.42857099999999093,"durationTicks":240,"midi":71,"name":"B4","ticks":42240,"time":75.42849600000001,"velocity":0.7480314960629921},{"duration":0.42857099999999093,"durationTicks":240,"midi":40,"name":"E2","ticks":42240,"time":75.42849600000001,"velocity":0.7480314960629921},{"duration":0.21428550000000257,"durationTicks":120,"midi":64,"name":"E4","ticks":42480,"time":75.857067,"velocity":0.7480314960629921},{"duration":0.21428550000000257,"durationTicks":120,"midi":59,"name":"B3","ticks":42480,"time":75.857067,"velocity":0.7480314960629921},{"duration":0.21428550000000257,"durationTicks":120,"midi":67,"name":"G4","ticks":42600,"time":76.0713525,"velocity":0.7480314960629921},{"duration":0.21428550000000257,"durationTicks":120,"midi":72,"name":"C5","ticks":42720,"time":76.285638,"velocity":0.7480314960629921},{"duration":0.21428550000000257,"durationTicks":120,"midi":64,"name":"E4","ticks":42720,"time":76.285638,"velocity":0.7480314960629921},{"duration":0.21428550000000257,"durationTicks":120,"midi":71,"name":"B4","ticks":42840,"time":76.49992350000001,"velocity":0.7480314960629921},{"duration":0.42857099999999093,"durationTicks":240,"midi":72,"name":"C5","ticks":42960,"time":76.71420900000001,"velocity":0.7480314960629921},{"duration":0.42857099999999093,"durationTicks":240,"midi":45,"name":"A2","ticks":42960,"time":76.71420900000001,"velocity":0.7480314960629921},{"duration":0.21428550000000257,"durationTicks":120,"midi":64,"name":"E4","ticks":43200,"time":77.14278,"velocity":0.7480314960629921},{"duration":0.21428550000000257,"durationTicks":120,"midi":60,"name":"C4","ticks":43200,"time":77.14278,"velocity":0.7480314960629921},{"duration":0.21428550000000257,"durationTicks":120,"midi":67,"name":"G4","ticks":43320,"time":77.3570655,"velocity":0.7480314960629921},{"duration":0.21428550000000257,"durationTicks":120,"midi":72,"name":"C5","ticks":43440,"time":77.571351,"velocity":0.7480314960629921},{"duration":0.21428550000000257,"durationTicks":120,"midi":64,"name":"E4","ticks":43440,"time":77.571351,"velocity":0.7480314960629921},{"duration":0.21428550000000257,"durationTicks":120,"midi":71,"name":"B4","ticks":43560,"time":77.78563650000001,"velocity":0.7480314960629921},{"duration":0.42857099999999093,"durationTicks":240,"midi":72,"name":"C5","ticks":43680,"time":77.99992200000001,"velocity":0.7480314960629921},{"duration":0.42857099999999093,"durationTicks":240,"midi":45,"name":"A2","ticks":43680,"time":77.99992200000001,"velocity":0.7480314960629921},{"duration":0.21428550000000257,"durationTicks":120,"midi":72,"name":"C5","ticks":43920,"time":78.428493,"velocity":0.7480314960629921},{"duration":0.21428550000000257,"durationTicks":120,"midi":60,"name":"C4","ticks":43920,"time":78.428493,"velocity":0.7480314960629921},{"duration":0.21428550000000257,"durationTicks":120,"midi":71,"name":"B4","ticks":44040,"time":78.6427785,"velocity":0.7480314960629921},{"duration":0.21428550000000257,"durationTicks":120,"midi":72,"name":"C5","ticks":44160,"time":78.85706400000001,"velocity":0.7480314960629921},{"duration":0.21428550000000257,"durationTicks":120,"midi":64,"name":"E4","ticks":44160,"time":78.85706400000001,"velocity":0.7480314960629921},{"duration":0.21428550000000257,"durationTicks":120,"midi":73,"name":"C#5","ticks":44280,"time":79.07134950000001,"velocity":0.7480314960629921},{"duration":0.42857099999999093,"durationTicks":240,"midi":74,"name":"D5","ticks":44400,"time":79.28563500000001,"velocity":0.7480314960629921},{"duration":0.42857099999999093,"durationTicks":240,"midi":50,"name":"D3","ticks":44400,"time":79.28563500000001,"velocity":0.7480314960629921},{"duration":0.21428550000000257,"durationTicks":120,"midi":74,"name":"D5","ticks":44640,"time":79.714206,"velocity":0.7480314960629921},{"duration":0.21428550000000257,"durationTicks":120,"midi":66,"name":"F#4","ticks":44640,"time":79.714206,"velocity":0.7480314960629921},{"duration":0.21428550000000257,"durationTicks":120,"midi":76,"name":"E5","ticks":44760,"time":79.9284915,"velocity":0.7480314960629921},{"duration":0.21428550000000257,"durationTicks":120,"midi":74,"name":"D5","ticks":44880,"time":80.14277700000001,"velocity":0.7480314960629921},{"duration":0.21428550000000257,"durationTicks":120,"midi":69,"name":"A4","ticks":44880,"time":80.14277700000001,"velocity":0.7480314960629921},{"duration":0.21428549999998836,"durationTicks":120,"midi":76,"name":"E5","ticks":45000,"time":80.35706250000001,"velocity":0.7480314960629921},{"duration":0.42857100000000514,"durationTicks":240,"midi":71,"name":"B4","ticks":45120,"time":80.571348,"velocity":0.7480314960629921},{"duration":0.42857100000000514,"durationTicks":240,"midi":43,"name":"G2","ticks":45120,"time":80.571348,"velocity":0.7480314960629921},{"duration":0.42857100000000514,"durationTicks":240,"midi":55,"name":"G3","ticks":45360,"time":80.999919,"velocity":0.7480314960629921},{"duration":0.42857099999999093,"durationTicks":240,"midi":54,"name":"F#3","ticks":45600,"time":81.42849000000001,"velocity":0.7480314960629921},{"duration":0.42857099999999093,"durationTicks":240,"midi":42,"name":"F#2","ticks":45600,"time":81.42849000000001,"velocity":0.7480314960629921},{"duration":0.42857100000000514,"durationTicks":240,"midi":67,"name":"G4","ticks":45840,"time":81.857061,"velocity":0.7480314960629921},{"duration":0.42857100000000514,"durationTicks":240,"midi":40,"name":"E2","ticks":45840,"time":81.857061,"velocity":0.7480314960629921},{"duration":0.21428550000000257,"durationTicks":120,"midi":47,"name":"B2","ticks":46080,"time":82.285632,"velocity":0.7480314960629921},{"duration":0.21428550000000257,"durationTicks":120,"midi":67,"name":"G4","ticks":46200,"time":82.49991750000001,"velocity":0.7480314960629921},{"duration":0.21428549999998836,"durationTicks":120,"midi":67,"name":"G4","ticks":46320,"time":82.71420300000001,"velocity":0.7480314960629921},{"duration":0.21428549999998836,"durationTicks":120,"midi":55,"name":"G3","ticks":46320,"time":82.71420300000001,"velocity":0.7480314960629921},{"duration":0.21428550000000257,"durationTicks":120,"midi":69,"name":"A4","ticks":46440,"time":82.9284885,"velocity":0.7480314960629921},{"duration":0.42857100000000514,"durationTicks":240,"midi":69,"name":"A4","ticks":46560,"time":83.142774,"velocity":0.7480314960629921},{"duration":0.42857100000000514,"durationTicks":240,"midi":45,"name":"A2","ticks":46560,"time":83.142774,"velocity":0.7480314960629921},{"duration":0.21428550000000257,"durationTicks":120,"midi":52,"name":"E3","ticks":46800,"time":83.57134500000001,"velocity":0.7480314960629921},{"duration":0.21428550000000257,"durationTicks":120,"midi":67,"name":"G4","ticks":46920,"time":83.78563050000001,"velocity":0.7480314960629921},{"duration":0.21428549999998836,"durationTicks":120,"midi":66,"name":"F#4","ticks":47040,"time":83.99991600000001,"velocity":0.7480314960629921},{"duration":0.21428549999998836,"durationTicks":120,"midi":57,"name":"A3","ticks":47040,"time":83.99991600000001,"velocity":0.7480314960629921},{"duration":0.21428550000000257,"durationTicks":120,"midi":64,"name":"E4","ticks":47160,"time":84.2142015,"velocity":0.7480314960629921},{"duration":0.42857100000000514,"durationTicks":240,"midi":62,"name":"D4","ticks":47280,"time":84.428487,"velocity":0.7480314960629921},{"duration":0.42857100000000514,"durationTicks":240,"midi":50,"name":"D3","ticks":47280,"time":84.428487,"velocity":0.7480314960629921},{"duration":0.21428550000000257,"durationTicks":120,"midi":57,"name":"A3","ticks":47520,"time":84.85705800000001,"velocity":0.7480314960629921},{"duration":0.21428549999998836,"durationTicks":120,"midi":62,"name":"D4","ticks":47640,"time":85.07134350000001,"velocity":0.7480314960629921},{"duration":0.21428550000000257,"durationTicks":120,"midi":64,"name":"E4","ticks":47760,"time":85.285629,"velocity":0.7480314960629921},{"duration":0.21428550000000257,"durationTicks":120,"midi":54,"name":"F#3","ticks":47760,"time":85.285629,"velocity":0.7480314960629921},{"duration":0.21428550000000257,"durationTicks":120,"midi":62,"name":"D4","ticks":47880,"time":85.4999145,"velocity":0.7480314960629921},{"duration":0.42857100000000514,"durationTicks":240,"midi":59,"name":"B3","ticks":48000,"time":85.7142,"velocity":0.7480314960629921},{"duration":0.42857100000000514,"durationTicks":240,"midi":43,"name":"G2","ticks":48000,"time":85.7142,"velocity":0.7480314960629921},{"duration":0.42857099999999093,"durationTicks":240,"midi":55,"name":"G3","ticks":48240,"time":86.14277100000001,"velocity":0.7480314960629921},{"duration":0.42857100000000514,"durationTicks":240,"midi":54,"name":"F#3","ticks":48480,"time":86.571342,"velocity":0.7480314960629921},{"duration":0.42857100000000514,"durationTicks":240,"midi":42,"name":"F#2","ticks":48480,"time":86.571342,"velocity":0.7480314960629921},{"duration":0.42857100000000514,"durationTicks":240,"midi":67,"name":"G4","ticks":48720,"time":86.999913,"velocity":0.7480314960629921},{"duration":0.42857100000000514,"durationTicks":240,"midi":40,"name":"E2","ticks":48720,"time":86.999913,"velocity":0.7480314960629921},{"duration":0.21428550000000257,"durationTicks":120,"midi":47,"name":"B2","ticks":48960,"time":87.42848400000001,"velocity":0.7480314960629921},{"duration":0.21428549999998836,"durationTicks":120,"midi":67,"name":"G4","ticks":49080,"time":87.64276950000001,"velocity":0.7480314960629921},{"duration":0.21428550000000257,"durationTicks":120,"midi":67,"name":"G4","ticks":49200,"time":87.857055,"velocity":0.7480314960629921},{"duration":0.21428550000000257,"durationTicks":120,"midi":55,"name":"G3","ticks":49200,"time":87.857055,"velocity":0.7480314960629921},{"duration":0.21428550000000257,"durationTicks":120,"midi":69,"name":"A4","ticks":49320,"time":88.0713405,"velocity":0.7480314960629921},{"duration":0.42857100000000514,"durationTicks":240,"midi":69,"name":"A4","ticks":49440,"time":88.28562600000001,"velocity":0.7480314960629921},{"duration":0.42857100000000514,"durationTicks":240,"midi":45,"name":"A2","ticks":49440,"time":88.28562600000001,"velocity":0.7480314960629921},{"duration":0.21428549999998836,"durationTicks":120,"midi":52,"name":"E3","ticks":49680,"time":88.71419700000001,"velocity":0.7480314960629921},{"duration":0.21428550000000257,"durationTicks":120,"midi":67,"name":"G4","ticks":49800,"time":88.9284825,"velocity":0.7480314960629921},{"duration":0.21428550000000257,"durationTicks":120,"midi":66,"name":"F#4","ticks":49920,"time":89.142768,"velocity":0.7480314960629921},{"duration":0.21428550000000257,"durationTicks":120,"midi":57,"name":"A3","ticks":49920,"time":89.142768,"velocity":0.7480314960629921},{"duration":0.21428550000000257,"durationTicks":120,"midi":64,"name":"E4","ticks":50040,"time":89.3570535,"velocity":0.7480314960629921},{"duration":0.42857100000000514,"durationTicks":240,"midi":62,"name":"D4","ticks":50160,"time":89.57133900000001,"velocity":0.7480314960629921},{"duration":0.42857100000000514,"durationTicks":240,"midi":50,"name":"D3","ticks":50160,"time":89.57133900000001,"velocity":0.7480314960629921},{"duration":0.21428549999998836,"durationTicks":120,"midi":57,"name":"A3","ticks":50400,"time":89.99991000000001,"velocity":0.7480314960629921},{"duration":0.21428550000000257,"durationTicks":120,"midi":62,"name":"D4","ticks":50520,"time":90.2141955,"velocity":0.7480314960629921},{"duration":0.21428550000000257,"durationTicks":120,"midi":64,"name":"E4","ticks":50640,"time":90.428481,"velocity":0.7480314960629921},{"duration":0.21428550000000257,"durationTicks":120,"midi":54,"name":"F#3","ticks":50640,"time":90.428481,"velocity":0.7480314960629921},{"duration":0.21428550000000257,"durationTicks":120,"midi":62,"name":"D4","ticks":50760,"time":90.64276650000001,"velocity":0.7480314960629921},{"duration":0.42857099999999093,"durationTicks":240,"midi":64,"name":"E4","ticks":50880,"time":90.85705200000001,"velocity":0.7480314960629921},{"duration":0.42857099999999093,"durationTicks":240,"midi":40,"name":"E2","ticks":50880,"time":90.85705200000001,"velocity":0.7480314960629921},{"duration":0.42857100000000514,"durationTicks":240,"midi":47,"name":"B2","ticks":51120,"time":91.285623,"velocity":0.7480314960629921},{"duration":0.42857100000000514,"durationTicks":240,"midi":59,"name":"B3","ticks":51360,"time":91.714194,"velocity":0.7480314960629921},{"duration":0.42857100000000514,"durationTicks":240,"midi":55,"name":"G3","ticks":51360,"time":91.714194,"velocity":0.7480314960629921},{"duration":0.42857100000000514,"durationTicks":240,"midi":52,"name":"E3","ticks":51360,"time":91.714194,"velocity":0.7480314960629921},{"duration":0.42857099999999093,"durationTicks":240,"midi":67,"name":"G4","ticks":51600,"time":92.14276500000001,"velocity":0.7480314960629921},{"duration":0.42857099999999093,"durationTicks":240,"midi":40,"name":"E2","ticks":51600,"time":92.14276500000001,"velocity":0.7480314960629921},{"duration":0.21428550000000257,"durationTicks":120,"midi":47,"name":"B2","ticks":51840,"time":92.571336,"velocity":0.7480314960629921},{"duration":0.21428550000000257,"durationTicks":120,"midi":67,"name":"G4","ticks":51960,"time":92.7856215,"velocity":0.7480314960629921},{"duration":0.21428550000000257,"durationTicks":120,"midi":67,"name":"G4","ticks":52080,"time":92.99990700000001,"velocity":0.7480314960629921},{"duration":0.21428550000000257,"durationTicks":120,"midi":55,"name":"G3","ticks":52080,"time":92.99990700000001,"velocity":0.7480314960629921},{"duration":0.21428550000000257,"durationTicks":120,"midi":69,"name":"A4","ticks":52200,"time":93.21419250000001,"velocity":0.7480314960629921},{"duration":0.42857099999999093,"durationTicks":240,"midi":69,"name":"A4","ticks":52320,"time":93.42847800000001,"velocity":0.7480314960629921},{"duration":0.42857099999999093,"durationTicks":240,"midi":45,"name":"A2","ticks":52320,"time":93.42847800000001,"velocity":0.7480314960629921},{"duration":0.21428550000000257,"durationTicks":120,"midi":52,"name":"E3","ticks":52560,"time":93.857049,"velocity":0.7480314960629921},{"duration":0.21428550000000257,"durationTicks":120,"midi":67,"name":"G4","ticks":52680,"time":94.0713345,"velocity":0.7480314960629921},{"duration":0.21428550000000257,"durationTicks":120,"midi":66,"name":"F#4","ticks":52800,"time":94.28562000000001,"velocity":0.7480314960629921},{"duration":0.21428550000000257,"durationTicks":120,"midi":57,"name":"A3","ticks":52800,"time":94.28562000000001,"velocity":0.7480314960629921},{"duration":0.21428550000000257,"durationTicks":120,"midi":64,"name":"E4","ticks":52920,"time":94.49990550000001,"velocity":0.7480314960629921},{"duration":0.42857099999999093,"durationTicks":240,"midi":62,"name":"D4","ticks":53040,"time":94.71419100000001,"velocity":0.7480314960629921},{"duration":0.42857099999999093,"durationTicks":240,"midi":50,"name":"D3","ticks":53040,"time":94.71419100000001,"velocity":0.7480314960629921},{"duration":0.21428550000000257,"durationTicks":120,"midi":57,"name":"A3","ticks":53280,"time":95.142762,"velocity":0.7480314960629921},{"duration":0.21428550000000257,"durationTicks":120,"midi":62,"name":"D4","ticks":53400,"time":95.35704750000001,"velocity":0.7480314960629921},{"duration":0.21428550000000257,"durationTicks":120,"midi":64,"name":"E4","ticks":53520,"time":95.57133300000001,"velocity":0.7480314960629921},{"duration":0.21428550000000257,"durationTicks":120,"midi":54,"name":"F#3","ticks":53520,"time":95.57133300000001,"velocity":0.7480314960629921},{"duration":0.21428550000000257,"durationTicks":120,"midi":62,"name":"D4","ticks":53640,"time":95.78561850000001,"velocity":0.7480314960629921},{"duration":0.42857099999999093,"durationTicks":240,"midi":59,"name":"B3","ticks":53760,"time":95.99990400000002,"velocity":0.7480314960629921},{"duration":0.42857099999999093,"durationTicks":240,"midi":43,"name":"G2","ticks":53760,"time":95.99990400000002,"velocity":0.7480314960629921},{"duration":0.42857100000000514,"durationTicks":240,"midi":55,"name":"G3","ticks":54000,"time":96.428475,"velocity":0.7480314960629921},{"duration":0.42857099999999093,"durationTicks":240,"midi":54,"name":"F#3","ticks":54240,"time":96.85704600000001,"velocity":0.7480314960629921},{"duration":0.42857099999999093,"durationTicks":240,"midi":42,"name":"F#2","ticks":54240,"time":96.85704600000001,"velocity":0.7480314960629921},{"duration":0.42857100000000514,"durationTicks":240,"midi":67,"name":"G4","ticks":54480,"time":97.285617,"velocity":0.7480314960629921},{"duration":0.42857100000000514,"durationTicks":240,"midi":40,"name":"E2","ticks":54480,"time":97.285617,"velocity":0.7480314960629921},{"duration":0.21428550000000257,"durationTicks":120,"midi":47,"name":"B2","ticks":54720,"time":97.71418800000001,"velocity":0.7480314960629921},{"duration":0.21428550000000257,"durationTicks":120,"midi":67,"name":"G4","ticks":54840,"time":97.92847350000001,"velocity":0.7480314960629921},{"duration":0.21428550000000257,"durationTicks":120,"midi":67,"name":"G4","ticks":54960,"time":98.14275900000001,"velocity":0.7480314960629921},{"duration":0.21428550000000257,"durationTicks":120,"midi":55,"name":"G3","ticks":54960,"time":98.14275900000001,"velocity":0.7480314960629921},{"duration":0.21428549999998836,"durationTicks":120,"midi":69,"name":"A4","ticks":55080,"time":98.35704450000001,"velocity":0.7480314960629921},{"duration":0.42857100000000514,"durationTicks":240,"midi":69,"name":"A4","ticks":55200,"time":98.57133,"velocity":0.7480314960629921},{"duration":0.42857100000000514,"durationTicks":240,"midi":45,"name":"A2","ticks":55200,"time":98.57133,"velocity":0.7480314960629921},{"duration":0.21428550000000257,"durationTicks":120,"midi":52,"name":"E3","ticks":55440,"time":98.99990100000001,"velocity":0.7480314960629921},{"duration":0.21428550000000257,"durationTicks":120,"midi":67,"name":"G4","ticks":55560,"time":99.21418650000001,"velocity":0.7480314960629921},{"duration":0.21428549999998836,"durationTicks":120,"midi":66,"name":"F#4","ticks":55680,"time":99.42847200000001,"velocity":0.7480314960629921},{"duration":0.21428549999998836,"durationTicks":120,"midi":57,"name":"A3","ticks":55680,"time":99.42847200000001,"velocity":0.7480314960629921},{"duration":0.21428550000000257,"durationTicks":120,"midi":64,"name":"E4","ticks":55800,"time":99.6427575,"velocity":0.7480314960629921},{"duration":0.42857100000000514,"durationTicks":240,"midi":62,"name":"D4","ticks":55920,"time":99.857043,"velocity":0.7480314960629921},{"duration":0.42857100000000514,"durationTicks":240,"midi":50,"name":"D3","ticks":55920,"time":99.857043,"velocity":0.7480314960629921},{"duration":0.21428550000000257,"durationTicks":120,"midi":57,"name":"A3","ticks":56160,"time":100.28561400000001,"velocity":0.7480314960629921},{"duration":0.21428550000000257,"durationTicks":120,"midi":62,"name":"D4","ticks":56280,"time":100.49989950000001,"velocity":0.7480314960629921},{"duration":0.21428549999998836,"durationTicks":120,"midi":64,"name":"E4","ticks":56400,"time":100.71418500000001,"velocity":0.7480314960629921},{"duration":0.21428549999998836,"durationTicks":120,"midi":54,"name":"F#3","ticks":56400,"time":100.71418500000001,"velocity":0.7480314960629921},{"duration":0.21428550000000257,"durationTicks":120,"midi":62,"name":"D4","ticks":56520,"time":100.9284705,"velocity":0.7480314960629921},{"duration":0.42857100000000514,"durationTicks":240,"midi":64,"name":"E4","ticks":56640,"time":101.142756,"velocity":0.7480314960629921},{"duration":0.42857100000000514,"durationTicks":240,"midi":59,"name":"B3","ticks":56640,"time":101.142756,"velocity":0.7480314960629921},{"duration":0.42857100000000514,"durationTicks":240,"midi":55,"name":"G3","ticks":56640,"time":101.142756,"velocity":0.7480314960629921},{"duration":0.42857100000000514,"durationTicks":240,"midi":40,"name":"E2","ticks":56640,"time":101.142756,"velocity":0.7480314960629921},{"duration":0.42857099999999093,"durationTicks":240,"midi":47,"name":"B2","ticks":56880,"time":101.57132700000001,"velocity":0.7480314960629921},{"duration":0.42857100000000514,"durationTicks":240,"midi":55,"name":"G3","ticks":57120,"time":101.999898,"velocity":0.7480314960629921},{"duration":0.42857100000000514,"durationTicks":240,"midi":47,"name":"B2","ticks":57360,"time":102.428469,"velocity":0.7480314960629921},{"duration":0.42857099999999093,"durationTicks":240,"midi":55,"name":"G3","ticks":57600,"time":102.85704000000001,"velocity":0.7480314960629921},{"duration":0.21428550000000257,"durationTicks":120,"midi":47,"name":"B2","ticks":57840,"time":103.285611,"velocity":0.7480314960629921},{"duration":0.21428550000000257,"durationTicks":120,"midi":64,"name":"E4","ticks":57960,"time":103.4998965,"velocity":0.7480314960629921},{"duration":0.21428550000000257,"durationTicks":120,"midi":64,"name":"E4","ticks":58080,"time":103.71418200000001,"velocity":0.7480314960629921},{"duration":0.21428550000000257,"durationTicks":120,"midi":40,"name":"E2","ticks":58080,"time":103.71418200000001,"velocity":0.7480314960629921},{"duration":0.21428550000000257,"durationTicks":120,"midi":66,"name":"F#4","ticks":58200,"time":103.92846750000001,"velocity":0.7480314960629921},{"duration":0.21428549999998836,"durationTicks":120,"midi":66,"name":"F#4","ticks":58320,"time":104.14275300000001,"velocity":0.7480314960629921},{"duration":0.21428549999998836,"durationTicks":120,"midi":47,"name":"B2","ticks":58320,"time":104.14275300000001,"velocity":0.7480314960629921},{"duration":0.21428550000000257,"durationTicks":120,"midi":67,"name":"G4","ticks":58440,"time":104.3570385,"velocity":0.7480314960629921},{"duration":0.21428550000000257,"durationTicks":120,"midi":67,"name":"G4","ticks":58560,"time":104.571324,"velocity":0.7480314960629921},{"duration":0.21428550000000257,"durationTicks":120,"midi":55,"name":"G3","ticks":58560,"time":104.571324,"velocity":0.7480314960629921},{"duration":0.21428550000000257,"durationTicks":120,"midi":66,"name":"F#4","ticks":58680,"time":104.7856095,"velocity":0.7480314960629921},{"duration":0.21428550000000257,"durationTicks":120,"midi":66,"name":"F#4","ticks":58800,"time":104.99989500000001,"velocity":0.7480314960629921},{"duration":0.21428550000000257,"durationTicks":120,"midi":47,"name":"B2","ticks":58800,"time":104.99989500000001,"velocity":0.7480314960629921},{"duration":0.21428550000000257,"durationTicks":120,"midi":64,"name":"E4","ticks":58920,"time":105.21418050000001,"velocity":0.7480314960629921},{"duration":0.21428549999998836,"durationTicks":120,"midi":64,"name":"E4","ticks":59040,"time":105.42846600000001,"velocity":0.7480314960629921},{"duration":0.21428549999998836,"durationTicks":120,"midi":55,"name":"G3","ticks":59040,"time":105.42846600000001,"velocity":0.7480314960629921},{"duration":0.21428550000000257,"durationTicks":120,"midi":59,"name":"B3","ticks":59160,"time":105.6427515,"velocity":0.7480314960629921},{"duration":0.21428550000000257,"durationTicks":120,"midi":59,"name":"B3","ticks":59280,"time":105.857037,"velocity":0.7480314960629921},{"duration":0.21428550000000257,"durationTicks":120,"midi":47,"name":"B2","ticks":59280,"time":105.857037,"velocity":0.7480314960629921},{"duration":0.21428550000000257,"durationTicks":120,"midi":55,"name":"G3","ticks":59400,"time":106.07132250000001,"velocity":0.7480314960629921},{"duration":0.21428550000000257,"durationTicks":120,"midi":55,"name":"G3","ticks":59520,"time":106.28560800000001,"velocity":0.7480314960629921},{"duration":0.21428550000000257,"durationTicks":120,"midi":50,"name":"D3","ticks":59520,"time":106.28560800000001,"velocity":0.7480314960629921},{"duration":0.21428550000000257,"durationTicks":120,"midi":52,"name":"E3","ticks":59640,"time":106.49989350000001,"velocity":0.7480314960629921},{"duration":0.21428549999998836,"durationTicks":120,"midi":52,"name":"E3","ticks":59760,"time":106.71417900000002,"velocity":0.7480314960629921},{"duration":0.21428549999998836,"durationTicks":120,"midi":47,"name":"B2","ticks":59760,"time":106.71417900000002,"velocity":0.7480314960629921},{"duration":0.21428550000000257,"durationTicks":120,"midi":62,"name":"D4","ticks":59880,"time":106.9284645,"velocity":0.7480314960629921},{"duration":0.21428550000000257,"durationTicks":120,"midi":62,"name":"D4","ticks":60000,"time":107.14275,"velocity":0.7480314960629921},{"duration":0.21428550000000257,"durationTicks":120,"midi":45,"name":"A2","ticks":60000,"time":107.14275,"velocity":0.7480314960629921},{"duration":0.21428550000000257,"durationTicks":120,"midi":60,"name":"C4","ticks":60120,"time":107.35703550000001,"velocity":0.7480314960629921},{"duration":0.21428550000000257,"durationTicks":120,"midi":60,"name":"C4","ticks":60240,"time":107.57132100000001,"velocity":0.7480314960629921},{"duration":0.21428550000000257,"durationTicks":120,"midi":52,"name":"E3","ticks":60240,"time":107.57132100000001,"velocity":0.7480314960629921},{"duration":0.21428549999998836,"durationTicks":120,"midi":59,"name":"B3","ticks":60360,"time":107.78560650000001,"velocity":0.7480314960629921},{"duration":0.21428550000000257,"durationTicks":120,"midi":60,"name":"C4","ticks":60480,"time":107.999892,"velocity":0.7480314960629921},{"duration":0.21428550000000257,"durationTicks":120,"midi":57,"name":"A3","ticks":60480,"time":107.999892,"velocity":0.7480314960629921},{"duration":0.21428550000000257,"durationTicks":120,"midi":62,"name":"D4","ticks":60600,"time":108.2141775,"velocity":0.7480314960629921},{"duration":0.42857100000000514,"durationTicks":240,"midi":60,"name":"C4","ticks":60720,"time":108.42846300000001,"velocity":0.7480314960629921},{"duration":0.42857100000000514,"durationTicks":240,"midi":52,"name":"E3","ticks":60720,"time":108.42846300000001,"velocity":0.7480314960629921},{"duration":0.42857099999999093,"durationTicks":240,"midi":57,"name":"A3","ticks":60960,"time":108.85703400000001,"velocity":0.7480314960629921},{"duration":0.42857100000000514,"durationTicks":240,"midi":52,"name":"E3","ticks":61200,"time":109.285605,"velocity":0.7480314960629921},{"duration":0.21428550000000257,"durationTicks":120,"midi":50,"name":"D3","ticks":61440,"time":109.71417600000001,"velocity":0.7480314960629921},{"duration":0.21428550000000257,"durationTicks":120,"midi":60,"name":"C4","ticks":61560,"time":109.92846150000001,"velocity":0.7480314960629921},{"duration":0.21428549999998836,"durationTicks":120,"midi":60,"name":"C4","ticks":61680,"time":110.14274700000001,"velocity":0.7480314960629921},{"duration":0.21428549999998836,"durationTicks":120,"midi":57,"name":"A3","ticks":61680,"time":110.14274700000001,"velocity":0.7480314960629921},{"duration":0.21428550000000257,"durationTicks":120,"midi":62,"name":"D4","ticks":61800,"time":110.3570325,"velocity":0.7480314960629921},{"duration":0.21428550000000257,"durationTicks":120,"midi":62,"name":"D4","ticks":61920,"time":110.571318,"velocity":0.7480314960629921},{"duration":0.21428550000000257,"durationTicks":120,"midi":50,"name":"D3","ticks":61920,"time":110.571318,"velocity":0.7480314960629921},{"duration":0.21428550000000257,"durationTicks":120,"midi":64,"name":"E4","ticks":62040,"time":110.78560350000001,"velocity":0.7480314960629921},{"duration":0.21428550000000257,"durationTicks":120,"midi":64,"name":"E4","ticks":62160,"time":110.99988900000001,"velocity":0.7480314960629921},{"duration":0.21428550000000257,"durationTicks":120,"midi":57,"name":"A3","ticks":62160,"time":110.99988900000001,"velocity":0.7480314960629921},{"duration":0.21428550000000257,"durationTicks":120,"midi":66,"name":"F#4","ticks":62280,"time":111.21417450000001,"velocity":0.7480314960629921},{"duration":0.21428549999998836,"durationTicks":120,"midi":66,"name":"F#4","ticks":62400,"time":111.42846000000002,"velocity":0.7480314960629921},{"duration":0.21428549999998836,"durationTicks":120,"midi":50,"name":"D3","ticks":62400,"time":111.42846000000002,"velocity":0.7480314960629921},{"duration":0.21428550000000257,"durationTicks":120,"midi":62,"name":"D4","ticks":62520,"time":111.6427455,"velocity":0.7480314960629921},{"duration":0.21428550000000257,"durationTicks":120,"midi":62,"name":"D4","ticks":62640,"time":111.857031,"velocity":0.7480314960629921},{"duration":0.21428550000000257,"durationTicks":120,"midi":57,"name":"A3","ticks":62640,"time":111.857031,"velocity":0.7480314960629921},{"duration":0.21428550000000257,"durationTicks":120,"midi":57,"name":"A3","ticks":62760,"time":112.07131650000001,"velocity":0.7480314960629921},{"duration":0.21428550000000257,"durationTicks":120,"midi":57,"name":"A3","ticks":62880,"time":112.28560200000001,"velocity":0.7480314960629921},{"duration":0.21428550000000257,"durationTicks":120,"midi":42,"name":"F#2","ticks":62880,"time":112.28560200000001,"velocity":0.7480314960629921},{"duration":0.21428549999998836,"durationTicks":120,"midi":60,"name":"C4","ticks":63000,"time":112.49988750000001,"velocity":0.7480314960629921},{"duration":0.21428550000000257,"durationTicks":120,"midi":60,"name":"C4","ticks":63120,"time":112.714173,"velocity":0.7480314960629921},{"duration":0.21428550000000257,"durationTicks":120,"midi":43,"name":"G2","ticks":63120,"time":112.714173,"velocity":0.7480314960629921},{"duration":0.21428550000000257,"durationTicks":120,"midi":59,"name":"B3","ticks":63240,"time":112.9284585,"velocity":0.7480314960629921},{"duration":0.21428550000000257,"durationTicks":120,"midi":59,"name":"B3","ticks":63360,"time":113.14274400000001,"velocity":0.7480314960629921},{"duration":0.21428550000000257,"durationTicks":120,"midi":47,"name":"B2","ticks":63360,"time":113.14274400000001,"velocity":0.7480314960629921},{"duration":0.21428550000000257,"durationTicks":120,"midi":57,"name":"A3","ticks":63480,"time":113.35702950000001,"velocity":0.7480314960629921},{"duration":0.21428550000000257,"durationTicks":120,"midi":59,"name":"B3","ticks":63600,"time":113.57131500000001,"velocity":0.7480314960629921},{"duration":0.21428550000000257,"durationTicks":120,"midi":48,"name":"C3","ticks":63600,"time":113.57131500000001,"velocity":0.7480314960629921},{"duration":0.21428549999998836,"durationTicks":120,"midi":60,"name":"C4","ticks":63720,"time":113.78560050000002,"velocity":0.7480314960629921},{"duration":0.8571420000000103,"durationTicks":480,"midi":59,"name":"B3","ticks":63840,"time":113.999886,"velocity":0.7480314960629921},{"duration":0.8571420000000103,"durationTicks":480,"midi":57,"name":"A3","ticks":63840,"time":113.999886,"velocity":0.7480314960629921},{"duration":0.8571420000000103,"durationTicks":480,"midi":51,"name":"D#3","ticks":63840,"time":113.999886,"velocity":0.7480314960629921},{"duration":0.8571420000000103,"durationTicks":480,"midi":47,"name":"B2","ticks":63840,"time":113.999886,"velocity":0.7480314960629921},{"duration":0.42857099999999093,"durationTicks":240,"midi":71,"name":"B4","ticks":64320,"time":114.85702800000001,"velocity":0.7480314960629921},{"duration":0.42857100000000514,"durationTicks":240,"midi":59,"name":"B3","ticks":64560,"time":115.285599,"velocity":0.7480314960629921},{"duration":0.42857100000000514,"durationTicks":240,"midi":40,"name":"E2","ticks":64560,"time":115.285599,"velocity":0.7480314960629921},{"duration":0.21428550000000257,"durationTicks":120,"midi":52,"name":"E3","ticks":64800,"time":115.71417000000001,"velocity":0.7480314960629921},{"duration":0.21428550000000257,"durationTicks":120,"midi":47,"name":"B2","ticks":64800,"time":115.71417000000001,"velocity":0.7480314960629921},{"duration":0.21428550000000257,"durationTicks":120,"midi":55,"name":"G3","ticks":64920,"time":115.92845550000001,"velocity":0.7480314960629921},{"duration":0.21428549999998836,"durationTicks":120,"midi":59,"name":"B3","ticks":65040,"time":116.14274100000002,"velocity":0.7480314960629921},{"duration":0.21428549999998836,"durationTicks":120,"midi":52,"name":"E3","ticks":65040,"time":116.14274100000002,"velocity":0.7480314960629921},{"duration":0.21428550000000257,"durationTicks":120,"midi":57,"name":"A3","ticks":65160,"time":116.3570265,"velocity":0.7480314960629921},{"duration":0.42857100000000514,"durationTicks":240,"midi":59,"name":"B3","ticks":65280,"time":116.571312,"velocity":0.7480314960629921},{"duration":0.42857100000000514,"durationTicks":240,"midi":40,"name":"E2","ticks":65280,"time":116.571312,"velocity":0.7480314960629921},{"duration":0.21428550000000257,"durationTicks":120,"midi":52,"name":"E3","ticks":65520,"time":116.99988300000001,"velocity":0.7480314960629921},{"duration":0.21428550000000257,"durationTicks":120,"midi":47,"name":"B2","ticks":65520,"time":116.99988300000001,"velocity":0.7480314960629921},{"duration":0.21428550000000257,"durationTicks":120,"midi":55,"name":"G3","ticks":65640,"time":117.21416850000001,"velocity":0.7480314960629921},{"duration":0.21428549999998836,"durationTicks":120,"midi":59,"name":"B3","ticks":65760,"time":117.42845400000002,"velocity":0.7480314960629921},{"duration":0.21428549999998836,"durationTicks":120,"midi":52,"name":"E3","ticks":65760,"time":117.42845400000002,"velocity":0.7480314960629921},{"duration":0.21428550000000257,"durationTicks":120,"midi":57,"name":"A3","ticks":65880,"time":117.6427395,"velocity":0.7480314960629921},{"duration":0.42857100000000514,"durationTicks":240,"midi":59,"name":"B3","ticks":66000,"time":117.85702500000001,"velocity":0.7480314960629921},{"duration":0.42857100000000514,"durationTicks":240,"midi":40,"name":"E2","ticks":66000,"time":117.85702500000001,"velocity":0.7480314960629921},{"duration":0.21428550000000257,"durationTicks":120,"midi":52,"name":"E3","ticks":66240,"time":118.28559600000001,"velocity":0.7480314960629921},{"duration":0.21428550000000257,"durationTicks":120,"midi":47,"name":"B2","ticks":66240,"time":118.28559600000001,"velocity":0.7480314960629921},{"duration":0.21428549999998836,"durationTicks":120,"midi":55,"name":"G3","ticks":66360,"time":118.49988150000001,"velocity":0.7480314960629921},{"duration":0.21428550000000257,"durationTicks":120,"midi":60,"name":"C4","ticks":66480,"time":118.714167,"velocity":0.7480314960629921},{"duration":0.21428550000000257,"durationTicks":120,"midi":50,"name":"D3","ticks":66480,"time":118.714167,"velocity":0.7480314960629921},{"duration":0.21428550000000257,"durationTicks":120,"midi":59,"name":"B3","ticks":66600,"time":118.9284525,"velocity":0.7480314960629921},{"duration":0.42857100000000514,"durationTicks":240,"midi":60,"name":"C4","ticks":66720,"time":119.14273800000001,"velocity":0.7480314960629921},{"duration":0.42857100000000514,"durationTicks":240,"midi":45,"name":"A2","ticks":66720,"time":119.14273800000001,"velocity":0.7480314960629921},{"duration":0.21428550000000257,"durationTicks":120,"midi":52,"name":"E3","ticks":66960,"time":119.57130900000001,"velocity":0.7480314960629921},{"duration":0.21428549999998836,"durationTicks":120,"midi":55,"name":"G3","ticks":67080,"time":119.78559450000002,"velocity":0.7480314960629921},{"duration":0.21428550000000257,"durationTicks":120,"midi":60,"name":"C4","ticks":67200,"time":119.99988,"velocity":0.7480314960629921},{"duration":0.21428550000000257,"durationTicks":120,"midi":57,"name":"A3","ticks":67200,"time":119.99988,"velocity":0.7480314960629921},{"duration":0.21428550000000257,"durationTicks":120,"midi":59,"name":"B3","ticks":67320,"time":120.21416550000001,"velocity":0.7480314960629921},{"duration":0.42857100000000514,"durationTicks":240,"midi":60,"name":"C4","ticks":67440,"time":120.42845100000001,"velocity":0.7480314960629921},{"duration":0.42857100000000514,"durationTicks":240,"midi":45,"name":"A2","ticks":67440,"time":120.42845100000001,"velocity":0.7480314960629921},{"duration":0.21428549999998836,"durationTicks":120,"midi":60,"name":"C4","ticks":67680,"time":120.85702200000001,"velocity":0.7480314960629921},{"duration":0.21428549999998836,"durationTicks":120,"midi":52,"name":"E3","ticks":67680,"time":120.85702200000001,"velocity":0.7480314960629921},{"duration":0.21428550000000257,"durationTicks":120,"midi":59,"name":"B3","ticks":67800,"time":121.0713075,"velocity":0.7480314960629921},{"duration":0.21428550000000257,"durationTicks":120,"midi":60,"name":"C4","ticks":67920,"time":121.285593,"velocity":0.7480314960629921},{"duration":0.21428550000000257,"durationTicks":120,"midi":57,"name":"A3","ticks":67920,"time":121.285593,"velocity":0.7480314960629921},{"duration":0.21428550000000257,"durationTicks":120,"midi":61,"name":"C#4","ticks":68040,"time":121.49987850000001,"velocity":0.7480314960629921},{"duration":0.42857100000000514,"durationTicks":240,"midi":62,"name":"D4","ticks":68160,"time":121.71416400000001,"velocity":0.7480314960629921},{"duration":0.42857100000000514,"durationTicks":240,"midi":50,"name":"D3","ticks":68160,"time":121.71416400000001,"velocity":0.7480314960629921},{"duration":0.21428549999998836,"durationTicks":120,"midi":62,"name":"D4","ticks":68400,"time":122.14273500000002,"velocity":0.7480314960629921},{"duration":0.21428549999998836,"durationTicks":120,"midi":57,"name":"A3","ticks":68400,"time":122.14273500000002,"velocity":0.7480314960629921},{"duration":0.21428550000000257,"durationTicks":120,"midi":64,"name":"E4","ticks":68520,"time":122.3570205,"velocity":0.7480314960629921},{"duration":0.21428550000000257,"durationTicks":120,"midi":62,"name":"D4","ticks":68640,"time":122.571306,"velocity":0.7480314960629921},{"duration":0.21428550000000257,"durationTicks":120,"midi":54,"name":"F#3","ticks":68640,"time":122.571306,"velocity":0.7480314960629921},{"duration":0.21428550000000257,"durationTicks":120,"midi":64,"name":"E4","ticks":68760,"time":122.78559150000001,"velocity":0.7480314960629921},{"duration":0.42857099999999093,"durationTicks":240,"midi":59,"name":"B3","ticks":68880,"time":122.99987700000001,"velocity":0.7480314960629921},{"duration":0.42857099999999093,"durationTicks":240,"midi":43,"name":"G2","ticks":68880,"time":122.99987700000001,"velocity":0.7480314960629921},{"duration":0.42857100000000514,"durationTicks":240,"midi":55,"name":"G3","ticks":69120,"time":123.428448,"velocity":0.7480314960629921},{"duration":0.42857100000000514,"durationTicks":240,"midi":54,"name":"F#3","ticks":69360,"time":123.85701900000001,"velocity":0.7480314960629921},{"duration":0.42857100000000514,"durationTicks":240,"midi":42,"name":"F#2","ticks":69360,"time":123.85701900000001,"velocity":0.7480314960629921},{"duration":0.42857099999999093,"durationTicks":240,"midi":71,"name":"B4","ticks":69600,"time":124.28559000000001,"velocity":0.7480314960629921},{"duration":0.42857099999999093,"durationTicks":240,"midi":40,"name":"E2","ticks":69600,"time":124.28559000000001,"velocity":0.7480314960629921},{"duration":0.21428550000000257,"durationTicks":120,"midi":64,"name":"E4","ticks":69840,"time":124.714161,"velocity":0.7480314960629921},{"duration":0.21428550000000257,"durationTicks":120,"midi":59,"name":"B3","ticks":69840,"time":124.714161,"velocity":0.7480314960629921},{"duration":0.21428550000000257,"durationTicks":120,"midi":67,"name":"G4","ticks":69960,"time":124.9284465,"velocity":0.7480314960629921},{"duration":0.21428550000000257,"durationTicks":120,"midi":71,"name":"B4","ticks":70080,"time":125.14273200000001,"velocity":0.7480314960629921},{"duration":0.21428550000000257,"durationTicks":120,"midi":64,"name":"E4","ticks":70080,"time":125.14273200000001,"velocity":0.7480314960629921},{"duration":0.21428550000000257,"durationTicks":120,"midi":69,"name":"A4","ticks":70200,"time":125.35701750000001,"velocity":0.7480314960629921},{"duration":0.42857099999999093,"durationTicks":240,"midi":71,"name":"B4","ticks":70320,"time":125.57130300000001,"velocity":0.7480314960629921},{"duration":0.42857099999999093,"durationTicks":240,"midi":40,"name":"E2","ticks":70320,"time":125.57130300000001,"velocity":0.7480314960629921},{"duration":0.21428550000000257,"durationTicks":120,"midi":64,"name":"E4","ticks":70560,"time":125.999874,"velocity":0.7480314960629921},{"duration":0.21428550000000257,"durationTicks":120,"midi":59,"name":"B3","ticks":70560,"time":125.999874,"velocity":0.7480314960629921},{"duration":0.21428550000000257,"durationTicks":120,"midi":67,"name":"G4","ticks":70680,"time":126.21415950000001,"velocity":0.7480314960629921},{"duration":0.21428550000000257,"durationTicks":120,"midi":71,"name":"B4","ticks":70800,"time":126.42844500000001,"velocity":0.7480314960629921},{"duration":0.21428550000000257,"durationTicks":120,"midi":64,"name":"E4","ticks":70800,"time":126.42844500000001,"velocity":0.7480314960629921},{"duration":0.21428550000000257,"durationTicks":120,"midi":69,"name":"A4","ticks":70920,"time":126.64273050000001,"velocity":0.7480314960629921},{"duration":0.42857099999999093,"durationTicks":240,"midi":71,"name":"B4","ticks":71040,"time":126.85701600000002,"velocity":0.7480314960629921},{"duration":0.42857099999999093,"durationTicks":240,"midi":40,"name":"E2","ticks":71040,"time":126.85701600000002,"velocity":0.7480314960629921},{"duration":0.21428550000000257,"durationTicks":120,"midi":64,"name":"E4","ticks":71280,"time":127.285587,"velocity":0.7480314960629921},{"duration":0.21428550000000257,"durationTicks":120,"midi":59,"name":"B3","ticks":71280,"time":127.285587,"velocity":0.7480314960629921},{"duration":0.21428550000000257,"durationTicks":120,"midi":67,"name":"G4","ticks":71400,"time":127.49987250000001,"velocity":0.7480314960629921},{"duration":0.21428550000000257,"durationTicks":120,"midi":72,"name":"C5","ticks":71520,"time":127.71415800000001,"velocity":0.7480314960629921},{"duration":0.21428550000000257,"durationTicks":120,"midi":64,"name":"E4","ticks":71520,"time":127.71415800000001,"velocity":0.7480314960629921},{"duration":0.21428549999998836,"durationTicks":120,"midi":71,"name":"B4","ticks":71640,"time":127.92844350000001,"velocity":0.7480314960629921},{"duration":0.42857100000000514,"durationTicks":240,"midi":72,"name":"C5","ticks":71760,"time":128.142729,"velocity":0.7480314960629921},{"duration":0.42857100000000514,"durationTicks":240,"midi":45,"name":"A2","ticks":71760,"time":128.142729,"velocity":0.7480314960629921},{"duration":0.21428550000001678,"durationTicks":120,"midi":64,"name":"E4","ticks":72000,"time":128.5713,"velocity":0.7480314960629921},{"duration":0.21428550000001678,"durationTicks":120,"midi":60,"name":"C4","ticks":72000,"time":128.5713,"velocity":0.7480314960629921},{"duration":0.21428549999998836,"durationTicks":120,"midi":67,"name":"G4","ticks":72120,"time":128.78558550000002,"velocity":0.7480314960629921},{"duration":0.21428549999998836,"durationTicks":120,"midi":72,"name":"C5","ticks":72240,"time":128.999871,"velocity":0.7480314960629921},{"duration":0.21428549999998836,"durationTicks":120,"midi":64,"name":"E4","ticks":72240,"time":128.999871,"velocity":0.7480314960629921},{"duration":0.21428550000001678,"durationTicks":120,"midi":71,"name":"B4","ticks":72360,"time":129.2141565,"velocity":0.7480314960629921},{"duration":0.42857100000000514,"durationTicks":240,"midi":72,"name":"C5","ticks":72480,"time":129.42844200000002,"velocity":0.7480314960629921},{"duration":0.42857100000000514,"durationTicks":240,"midi":45,"name":"A2","ticks":72480,"time":129.42844200000002,"velocity":0.7480314960629921},{"duration":0.21428549999998836,"durationTicks":120,"midi":72,"name":"C5","ticks":72720,"time":129.85701300000002,"velocity":0.7480314960629921},{"duration":0.21428549999998836,"durationTicks":120,"midi":60,"name":"C4","ticks":72720,"time":129.85701300000002,"velocity":0.7480314960629921},{"duration":0.21428549999998836,"durationTicks":120,"midi":71,"name":"B4","ticks":72840,"time":130.0712985,"velocity":0.7480314960629921},{"duration":0.21428550000001678,"durationTicks":120,"midi":72,"name":"C5","ticks":72960,"time":130.285584,"velocity":0.7480314960629921},{"duration":0.21428550000001678,"durationTicks":120,"midi":64,"name":"E4","ticks":72960,"time":130.285584,"velocity":0.7480314960629921},{"duration":0.21428549999998836,"durationTicks":120,"midi":73,"name":"C#5","ticks":73080,"time":130.49986950000002,"velocity":0.7480314960629921},{"duration":0.42857100000000514,"durationTicks":240,"midi":74,"name":"D5","ticks":73200,"time":130.714155,"velocity":0.7480314960629921},{"duration":0.42857100000000514,"durationTicks":240,"midi":50,"name":"D3","ticks":73200,"time":130.714155,"velocity":0.7480314960629921},{"duration":0.21428549999998836,"durationTicks":120,"midi":74,"name":"D5","ticks":73440,"time":131.142726,"velocity":0.7480314960629921},{"duration":0.21428549999998836,"durationTicks":120,"midi":66,"name":"F#4","ticks":73440,"time":131.142726,"velocity":0.7480314960629921},{"duration":0.21428550000001678,"durationTicks":120,"midi":76,"name":"E5","ticks":73560,"time":131.3570115,"velocity":0.7480314960629921},{"duration":0.21428549999998836,"durationTicks":120,"midi":74,"name":"D5","ticks":73680,"time":131.57129700000002,"velocity":0.7480314960629921},{"duration":0.21428549999998836,"durationTicks":120,"midi":69,"name":"A4","ticks":73680,"time":131.57129700000002,"velocity":0.7480314960629921},{"duration":0.21428550000001678,"durationTicks":120,"midi":76,"name":"E5","ticks":73800,"time":131.7855825,"velocity":0.7480314960629921},{"duration":0.4285709999999767,"durationTicks":240,"midi":71,"name":"B4","ticks":73920,"time":131.99986800000002,"velocity":0.7480314960629921},{"duration":0.4285709999999767,"durationTicks":240,"midi":43,"name":"G2","ticks":73920,"time":131.99986800000002,"velocity":0.7480314960629921},{"duration":0.42857100000000514,"durationTicks":240,"midi":55,"name":"G3","ticks":74160,"time":132.428439,"velocity":0.7480314960629921},{"duration":0.42857100000000514,"durationTicks":240,"midi":54,"name":"F#3","ticks":74400,"time":132.85701,"velocity":0.7480314960629921},{"duration":0.42857100000000514,"durationTicks":240,"midi":42,"name":"F#2","ticks":74400,"time":132.85701,"velocity":0.7480314960629921},{"duration":0.42857100000000514,"durationTicks":240,"midi":67,"name":"G4","ticks":74640,"time":133.285581,"velocity":0.7480314960629921},{"duration":0.42857100000000514,"durationTicks":240,"midi":40,"name":"E2","ticks":74640,"time":133.285581,"velocity":0.7480314960629921},{"duration":0.21428549999998836,"durationTicks":120,"midi":47,"name":"B2","ticks":74880,"time":133.714152,"velocity":0.7480314960629921},{"duration":0.21428550000001678,"durationTicks":120,"midi":59,"name":"B3","ticks":75000,"time":133.9284375,"velocity":0.7480314960629921},{"duration":0.21428549999998836,"durationTicks":120,"midi":59,"name":"B3","ticks":75120,"time":134.14272300000002,"velocity":0.7480314960629921},{"duration":0.21428549999998836,"durationTicks":120,"midi":52,"name":"E3","ticks":75120,"time":134.14272300000002,"velocity":0.7480314960629921},{"duration":0.21428550000001678,"durationTicks":120,"midi":60,"name":"C4","ticks":75240,"time":134.3570085,"velocity":0.7480314960629921},{"duration":0.4285709999999767,"durationTicks":240,"midi":60,"name":"C4","ticks":75360,"time":134.57129400000002,"velocity":0.7480314960629921},{"duration":0.4285709999999767,"durationTicks":240,"midi":45,"name":"A2","ticks":75360,"time":134.57129400000002,"velocity":0.7480314960629921},{"duration":0.21428550000001678,"durationTicks":120,"midi":52,"name":"E3","ticks":75600,"time":134.999865,"velocity":0.7480314960629921},{"duration":0.21428549999998836,"durationTicks":120,"midi":57,"name":"A3","ticks":75720,"time":135.21415050000002,"velocity":0.7480314960629921},{"duration":0.21428550000001678,"durationTicks":120,"midi":66,"name":"F#4","ticks":75840,"time":135.428436,"velocity":0.7480314960629921},{"duration":0.21428550000001678,"durationTicks":120,"midi":55,"name":"G3","ticks":75840,"time":135.428436,"velocity":0.7480314960629921},{"duration":0.21428549999998836,"durationTicks":120,"midi":64,"name":"E4","ticks":75960,"time":135.64272150000002,"velocity":0.7480314960629921},{"duration":0.42857100000000514,"durationTicks":240,"midi":66,"name":"F#4","ticks":76080,"time":135.857007,"velocity":0.7480314960629921},{"duration":0.42857100000000514,"durationTicks":240,"midi":50,"name":"D3","ticks":76080,"time":135.857007,"velocity":0.7480314960629921},{"duration":0.21428549999998836,"durationTicks":120,"midi":42,"name":"F#2","ticks":76320,"time":136.28557800000002,"velocity":0.7480314960629921},{"duration":0.21428550000001678,"durationTicks":120,"midi":57,"name":"A3","ticks":76440,"time":136.4998635,"velocity":0.7480314960629921},{"duration":0.21428549999998836,"durationTicks":120,"midi":57,"name":"A3","ticks":76560,"time":136.71414900000002,"velocity":0.7480314960629921},{"duration":0.21428549999998836,"durationTicks":120,"midi":45,"name":"A2","ticks":76560,"time":136.71414900000002,"velocity":0.7480314960629921},{"duration":0.21428549999998836,"durationTicks":120,"midi":59,"name":"B3","ticks":76680,"time":136.9284345,"velocity":0.7480314960629921},{"duration":0.42857100000000514,"durationTicks":240,"midi":59,"name":"B3","ticks":76800,"time":137.14272,"velocity":0.7480314960629921},{"duration":0.42857100000000514,"durationTicks":240,"midi":43,"name":"G2","ticks":76800,"time":137.14272,"velocity":0.7480314960629921},{"duration":0.21428550000001678,"durationTicks":120,"midi":55,"name":"G3","ticks":77040,"time":137.571291,"velocity":0.7480314960629921},{"duration":0.21428549999998836,"durationTicks":120,"midi":55,"name":"G3","ticks":77160,"time":137.78557650000002,"velocity":0.7480314960629921},{"duration":0.21428550000001678,"durationTicks":120,"midi":64,"name":"E4","ticks":77280,"time":137.999862,"velocity":0.7480314960629921},{"duration":0.21428550000001678,"durationTicks":120,"midi":42,"name":"F#2","ticks":77280,"time":137.999862,"velocity":0.7480314960629921},{"duration":0.21428549999998836,"durationTicks":120,"midi":62,"name":"D4","ticks":77400,"time":138.21414750000002,"velocity":0.7480314960629921},{"duration":0.42857100000000514,"durationTicks":240,"midi":64,"name":"E4","ticks":77520,"time":138.428433,"velocity":0.7480314960629921},{"duration":0.42857100000000514,"durationTicks":240,"midi":40,"name":"E2","ticks":77520,"time":138.428433,"velocity":0.7480314960629921},{"duration":0.21428549999998836,"durationTicks":120,"midi":47,"name":"B2","ticks":77760,"time":138.85700400000002,"velocity":0.7480314960629921},{"duration":0.21428550000001678,"durationTicks":120,"midi":55,"name":"G3","ticks":77880,"time":139.0712895,"velocity":0.7480314960629921},{"duration":0.21428549999998836,"durationTicks":120,"midi":55,"name":"G3","ticks":78000,"time":139.28557500000002,"velocity":0.7480314960629921},{"duration":0.21428549999998836,"durationTicks":120,"midi":40,"name":"E2","ticks":78000,"time":139.28557500000002,"velocity":0.7480314960629921},{"duration":0.21428549999998836,"durationTicks":120,"midi":57,"name":"A3","ticks":78120,"time":139.4998605,"velocity":0.7480314960629921},{"duration":0.42857100000000514,"durationTicks":240,"midi":57,"name":"A3","ticks":78240,"time":139.714146,"velocity":0.7480314960629921},{"duration":0.42857100000000514,"durationTicks":240,"midi":42,"name":"F#2","ticks":78240,"time":139.714146,"velocity":0.7480314960629921},{"duration":0.21428550000001678,"durationTicks":120,"midi":49,"name":"C#3","ticks":78480,"time":140.142717,"velocity":0.7480314960629921},{"duration":0.21428549999998836,"durationTicks":120,"midi":54,"name":"F#3","ticks":78600,"time":140.35700250000002,"velocity":0.7480314960629921},{"duration":0.21428549999998836,"durationTicks":120,"midi":59,"name":"B3","ticks":78720,"time":140.571288,"velocity":0.7480314960629921},{"duration":0.21428549999998836,"durationTicks":120,"midi":42,"name":"F#2","ticks":78720,"time":140.571288,"velocity":0.7480314960629921},{"duration":0.21428550000001678,"durationTicks":120,"midi":57,"name":"A3","ticks":78840,"time":140.7855735,"velocity":0.7480314960629921},{"duration":0.42857100000000514,"durationTicks":240,"midi":59,"name":"B3","ticks":78960,"time":140.99985900000001,"velocity":0.7480314960629921},{"duration":0.42857100000000514,"durationTicks":240,"midi":47,"name":"B2","ticks":78960,"time":140.99985900000001,"velocity":0.7480314960629921},{"duration":0.42857100000000514,"durationTicks":240,"midi":49,"name":"C#3","ticks":79200,"time":141.42843000000002,"velocity":0.7480314960629921},{"duration":0.4285709999999767,"durationTicks":240,"midi":51,"name":"D#3","ticks":79440,"time":141.85700100000003,"velocity":0.7480314960629921},{"duration":0.42857100000000514,"durationTicks":240,"midi":67,"name":"G4","ticks":79680,"time":142.285572,"velocity":0.7480314960629921},{"duration":0.42857100000000514,"durationTicks":240,"midi":40,"name":"E2","ticks":79680,"time":142.285572,"velocity":0.7480314960629921},{"duration":0.21428550000001678,"durationTicks":120,"midi":47,"name":"B2","ticks":79920,"time":142.714143,"velocity":0.7480314960629921},{"duration":0.21428549999998836,"durationTicks":120,"midi":67,"name":"G4","ticks":80040,"time":142.92842850000002,"velocity":0.7480314960629921},{"duration":0.21428549999998836,"durationTicks":120,"midi":67,"name":"G4","ticks":80160,"time":143.142714,"velocity":0.7480314960629921},{"duration":0.21428549999998836,"durationTicks":120,"midi":55,"name":"G3","ticks":80160,"time":143.142714,"velocity":0.7480314960629921},{"duration":0.21428550000001678,"durationTicks":120,"midi":69,"name":"A4","ticks":80280,"time":143.3569995,"velocity":0.7480314960629921},{"duration":0.42857100000000514,"durationTicks":240,"midi":69,"name":"A4","ticks":80400,"time":143.57128500000002,"velocity":0.7480314960629921},{"duration":0.42857100000000514,"durationTicks":240,"midi":45,"name":"A2","ticks":80400,"time":143.57128500000002,"velocity":0.7480314960629921},{"duration":0.21428549999998836,"durationTicks":120,"midi":52,"name":"E3","ticks":80640,"time":143.99985600000002,"velocity":0.7480314960629921},{"duration":0.21428549999998836,"durationTicks":120,"midi":67,"name":"G4","ticks":80760,"time":144.2141415,"velocity":0.7480314960629921},{"duration":0.21428550000001678,"durationTicks":120,"midi":66,"name":"F#4","ticks":80880,"time":144.428427,"velocity":0.7480314960629921},{"duration":0.21428550000001678,"durationTicks":120,"midi":57,"name":"A3","ticks":80880,"time":144.428427,"velocity":0.7480314960629921},{"duration":0.21428549999998836,"durationTicks":120,"midi":64,"name":"E4","ticks":81000,"time":144.64271250000002,"velocity":0.7480314960629921},{"duration":0.42857100000000514,"durationTicks":240,"midi":62,"name":"D4","ticks":81120,"time":144.856998,"velocity":0.7480314960629921},{"duration":0.42857100000000514,"durationTicks":240,"midi":50,"name":"D3","ticks":81120,"time":144.856998,"velocity":0.7480314960629921},{"duration":0.21428549999998836,"durationTicks":120,"midi":57,"name":"A3","ticks":81360,"time":145.285569,"velocity":0.7480314960629921},{"duration":0.21428550000001678,"durationTicks":120,"midi":62,"name":"D4","ticks":81480,"time":145.4998545,"velocity":0.7480314960629921},{"duration":0.21428549999998836,"durationTicks":120,"midi":64,"name":"E4","ticks":81600,"time":145.71414000000001,"velocity":0.7480314960629921},{"duration":0.21428549999998836,"durationTicks":120,"midi":54,"name":"F#3","ticks":81600,"time":145.71414000000001,"velocity":0.7480314960629921},{"duration":0.21428550000001678,"durationTicks":120,"midi":62,"name":"D4","ticks":81720,"time":145.9284255,"velocity":0.7480314960629921},{"duration":0.42857100000000514,"durationTicks":240,"midi":59,"name":"B3","ticks":81840,"time":146.14271100000002,"velocity":0.7480314960629921},{"duration":0.42857100000000514,"durationTicks":240,"midi":43,"name":"G2","ticks":81840,"time":146.14271100000002,"velocity":0.7480314960629921},{"duration":0.4285709999999767,"durationTicks":240,"midi":55,"name":"G3","ticks":82080,"time":146.57128200000002,"velocity":0.7480314960629921},{"duration":0.42857100000000514,"durationTicks":240,"midi":54,"name":"F#3","ticks":82320,"time":146.999853,"velocity":0.7480314960629921},{"duration":0.42857100000000514,"durationTicks":240,"midi":42,"name":"F#2","ticks":82320,"time":146.999853,"velocity":0.7480314960629921},{"duration":0.42857100000000514,"durationTicks":240,"midi":67,"name":"G4","ticks":82560,"time":147.428424,"velocity":0.7480314960629921},{"duration":0.42857100000000514,"durationTicks":240,"midi":40,"name":"E2","ticks":82560,"time":147.428424,"velocity":0.7480314960629921},{"duration":0.21428549999998836,"durationTicks":120,"midi":47,"name":"B2","ticks":82800,"time":147.856995,"velocity":0.7480314960629921},{"duration":0.21428550000001678,"durationTicks":120,"midi":67,"name":"G4","ticks":82920,"time":148.0712805,"velocity":0.7480314960629921},{"duration":0.21428549999998836,"durationTicks":120,"midi":67,"name":"G4","ticks":83040,"time":148.28556600000002,"velocity":0.7480314960629921},{"duration":0.21428549999998836,"durationTicks":120,"midi":55,"name":"G3","ticks":83040,"time":148.28556600000002,"velocity":0.7480314960629921},{"duration":0.21428550000001678,"durationTicks":120,"midi":69,"name":"A4","ticks":83160,"time":148.4998515,"velocity":0.7480314960629921},{"duration":0.4285709999999767,"durationTicks":240,"midi":69,"name":"A4","ticks":83280,"time":148.71413700000002,"velocity":0.7480314960629921},{"duration":0.4285709999999767,"durationTicks":240,"midi":45,"name":"A2","ticks":83280,"time":148.71413700000002,"velocity":0.7480314960629921},{"duration":0.21428550000001678,"durationTicks":120,"midi":52,"name":"E3","ticks":83520,"time":149.142708,"velocity":0.7480314960629921},{"duration":0.21428549999998836,"durationTicks":120,"midi":67,"name":"G4","ticks":83640,"time":149.35699350000002,"velocity":0.7480314960629921},{"duration":0.21428550000001678,"durationTicks":120,"midi":66,"name":"F#4","ticks":83760,"time":149.571279,"velocity":0.7480314960629921},{"duration":0.21428550000001678,"durationTicks":120,"midi":57,"name":"A3","ticks":83760,"time":149.571279,"velocity":0.7480314960629921},{"duration":0.21428549999998836,"durationTicks":120,"midi":64,"name":"E4","ticks":83880,"time":149.78556450000002,"velocity":0.7480314960629921},{"duration":0.42857100000000514,"durationTicks":240,"midi":62,"name":"D4","ticks":84000,"time":149.99985,"velocity":0.7480314960629921},{"duration":0.42857100000000514,"durationTicks":240,"midi":50,"name":"D3","ticks":84000,"time":149.99985,"velocity":0.7480314960629921},{"duration":0.21428549999998836,"durationTicks":120,"midi":57,"name":"A3","ticks":84240,"time":150.42842100000001,"velocity":0.7480314960629921},{"duration":0.21428550000001678,"durationTicks":120,"midi":62,"name":"D4","ticks":84360,"time":150.6427065,"velocity":0.7480314960629921},{"duration":0.21428549999998836,"durationTicks":120,"midi":64,"name":"E4","ticks":84480,"time":150.85699200000002,"velocity":0.7480314960629921},{"duration":0.21428549999998836,"durationTicks":120,"midi":54,"name":"F#3","ticks":84480,"time":150.85699200000002,"velocity":0.7480314960629921},{"duration":0.21428550000001678,"durationTicks":120,"midi":62,"name":"D4","ticks":84600,"time":151.0712775,"velocity":0.7480314960629921},{"duration":0.4285709999999767,"durationTicks":240,"midi":64,"name":"E4","ticks":84720,"time":151.28556300000002,"velocity":0.7480314960629921},{"duration":0.4285709999999767,"durationTicks":240,"midi":40,"name":"E2","ticks":84720,"time":151.28556300000002,"velocity":0.7480314960629921},{"duration":0.42857100000000514,"durationTicks":240,"midi":47,"name":"B2","ticks":84960,"time":151.714134,"velocity":0.7480314960629921},{"duration":0.42857100000000514,"durationTicks":240,"midi":59,"name":"B3","ticks":85200,"time":152.142705,"velocity":0.7480314960629921},{"duration":0.42857100000000514,"durationTicks":240,"midi":55,"name":"G3","ticks":85200,"time":152.142705,"velocity":0.7480314960629921},{"duration":0.42857100000000514,"durationTicks":240,"midi":52,"name":"E3","ticks":85200,"time":152.142705,"velocity":0.7480314960629921},{"duration":0.42857100000000514,"durationTicks":240,"midi":67,"name":"G4","ticks":85440,"time":152.571276,"velocity":0.7480314960629921},{"duration":0.42857100000000514,"durationTicks":240,"midi":40,"name":"E2","ticks":85440,"time":152.571276,"velocity":0.7480314960629921},{"duration":0.21428549999998836,"durationTicks":120,"midi":47,"name":"B2","ticks":85680,"time":152.99984700000002,"velocity":0.7480314960629921},{"duration":0.21428550000001678,"durationTicks":120,"midi":67,"name":"G4","ticks":85800,"time":153.2141325,"velocity":0.7480314960629921},{"duration":0.21428549999998836,"durationTicks":120,"midi":67,"name":"G4","ticks":85920,"time":153.42841800000002,"velocity":0.7480314960629921},{"duration":0.21428549999998836,"durationTicks":120,"midi":55,"name":"G3","ticks":85920,"time":153.42841800000002,"velocity":0.7480314960629921},{"duration":0.21428549999998836,"durationTicks":120,"midi":69,"name":"A4","ticks":86040,"time":153.6427035,"velocity":0.7480314960629921},{"duration":0.42857100000000514,"durationTicks":240,"midi":69,"name":"A4","ticks":86160,"time":153.856989,"velocity":0.7480314960629921},{"duration":0.42857100000000514,"durationTicks":240,"midi":45,"name":"A2","ticks":86160,"time":153.856989,"velocity":0.7480314960629921},{"duration":0.21428550000001678,"durationTicks":120,"midi":52,"name":"E3","ticks":86400,"time":154.28556,"velocity":0.7480314960629921},{"duration":0.21428549999998836,"durationTicks":120,"midi":67,"name":"G4","ticks":86520,"time":154.49984550000002,"velocity":0.7480314960629921},{"duration":0.21428550000001678,"durationTicks":120,"midi":66,"name":"F#4","ticks":86640,"time":154.714131,"velocity":0.7480314960629921},{"duration":0.21428550000001678,"durationTicks":120,"midi":57,"name":"A3","ticks":86640,"time":154.714131,"velocity":0.7480314960629921},{"duration":0.21428549999998836,"durationTicks":120,"midi":64,"name":"E4","ticks":86760,"time":154.92841650000003,"velocity":0.7480314960629921},{"duration":0.42857100000000514,"durationTicks":240,"midi":62,"name":"D4","ticks":86880,"time":155.142702,"velocity":0.7480314960629921},{"duration":0.42857100000000514,"durationTicks":240,"midi":50,"name":"D3","ticks":86880,"time":155.142702,"velocity":0.7480314960629921},{"duration":0.21428549999998836,"durationTicks":120,"midi":57,"name":"A3","ticks":87120,"time":155.57127300000002,"velocity":0.7480314960629921},{"duration":0.21428550000001678,"durationTicks":120,"midi":62,"name":"D4","ticks":87240,"time":155.7855585,"velocity":0.7480314960629921},{"duration":0.21428549999998836,"durationTicks":120,"midi":64,"name":"E4","ticks":87360,"time":155.99984400000002,"velocity":0.7480314960629921},{"duration":0.21428549999998836,"durationTicks":120,"midi":54,"name":"F#3","ticks":87360,"time":155.99984400000002,"velocity":0.7480314960629921},{"duration":0.21428549999998836,"durationTicks":120,"midi":62,"name":"D4","ticks":87480,"time":156.2141295,"velocity":0.7480314960629921},{"duration":0.42857100000000514,"durationTicks":240,"midi":59,"name":"B3","ticks":87600,"time":156.428415,"velocity":0.7480314960629921},{"duration":0.42857100000000514,"durationTicks":240,"midi":43,"name":"G2","ticks":87600,"time":156.428415,"velocity":0.7480314960629921},{"duration":0.42857100000000514,"durationTicks":240,"midi":55,"name":"G3","ticks":87840,"time":156.856986,"velocity":0.7480314960629921},{"duration":0.42857100000000514,"durationTicks":240,"midi":54,"name":"F#3","ticks":88080,"time":157.285557,"velocity":0.7480314960629921},{"duration":0.42857100000000514,"durationTicks":240,"midi":42,"name":"F#2","ticks":88080,"time":157.285557,"velocity":0.7480314960629921},{"duration":0.42857100000000514,"durationTicks":240,"midi":67,"name":"G4","ticks":88320,"time":157.71412800000002,"velocity":0.7480314960629921},{"duration":0.42857100000000514,"durationTicks":240,"midi":40,"name":"E2","ticks":88320,"time":157.71412800000002,"velocity":0.7480314960629921},{"duration":0.21428549999998836,"durationTicks":120,"midi":47,"name":"B2","ticks":88560,"time":158.14269900000002,"velocity":0.7480314960629921},{"duration":0.21428550000001678,"durationTicks":120,"midi":67,"name":"G4","ticks":88680,"time":158.3569845,"velocity":0.7480314960629921},{"duration":0.21428549999998836,"durationTicks":120,"midi":67,"name":"G4","ticks":88800,"time":158.57127000000003,"velocity":0.7480314960629921},{"duration":0.21428549999998836,"durationTicks":120,"midi":55,"name":"G3","ticks":88800,"time":158.57127000000003,"velocity":0.7480314960629921},{"duration":0.21428549999998836,"durationTicks":120,"midi":69,"name":"A4","ticks":88920,"time":158.78555550000002,"velocity":0.7480314960629921},{"duration":0.42857100000000514,"durationTicks":240,"midi":69,"name":"A4","ticks":89040,"time":158.999841,"velocity":0.7480314960629921},{"duration":0.42857100000000514,"durationTicks":240,"midi":45,"name":"A2","ticks":89040,"time":158.999841,"velocity":0.7480314960629921},{"duration":0.21428550000001678,"durationTicks":120,"midi":52,"name":"E3","ticks":89280,"time":159.428412,"velocity":0.7480314960629921},{"duration":0.21428549999998836,"durationTicks":120,"midi":67,"name":"G4","ticks":89400,"time":159.64269750000003,"velocity":0.7480314960629921},{"duration":0.21428549999998836,"durationTicks":120,"midi":66,"name":"F#4","ticks":89520,"time":159.856983,"velocity":0.7480314960629921},{"duration":0.21428549999998836,"durationTicks":120,"midi":57,"name":"A3","ticks":89520,"time":159.856983,"velocity":0.7480314960629921},{"duration":0.21428550000001678,"durationTicks":120,"midi":64,"name":"E4","ticks":89640,"time":160.0712685,"velocity":0.7480314960629921},{"duration":0.42857100000000514,"durationTicks":240,"midi":62,"name":"D4","ticks":89760,"time":160.28555400000002,"velocity":0.7480314960629921},{"duration":0.42857100000000514,"durationTicks":240,"midi":50,"name":"D3","ticks":89760,"time":160.28555400000002,"velocity":0.7480314960629921},{"duration":0.21428549999998836,"durationTicks":120,"midi":57,"name":"A3","ticks":90000,"time":160.71412500000002,"velocity":0.7480314960629921},{"duration":0.21428549999998836,"durationTicks":120,"midi":62,"name":"D4","ticks":90120,"time":160.9284105,"velocity":0.7480314960629921},{"duration":0.21428550000001678,"durationTicks":120,"midi":64,"name":"E4","ticks":90240,"time":161.142696,"velocity":0.7480314960629921},{"duration":0.21428550000001678,"durationTicks":120,"midi":54,"name":"F#3","ticks":90240,"time":161.142696,"velocity":0.7480314960629921},{"duration":0.21428549999998836,"durationTicks":120,"midi":62,"name":"D4","ticks":90360,"time":161.35698150000002,"velocity":0.7480314960629921},{"duration":0.42857100000000514,"durationTicks":240,"midi":64,"name":"E4","ticks":90480,"time":161.571267,"velocity":0.7480314960629921},{"duration":0.42857100000000514,"durationTicks":240,"midi":40,"name":"E2","ticks":90480,"time":161.571267,"velocity":0.7480314960629921},{"duration":0.42857100000000514,"durationTicks":240,"midi":47,"name":"B2","ticks":90720,"time":161.999838,"velocity":0.7480314960629921},{"duration":0.42857100000000514,"durationTicks":240,"midi":52,"name":"E3","ticks":90960,"time":162.42840900000002,"velocity":0.7480314960629921},{"duration":0.42857100000000514,"durationTicks":240,"midi":47,"name":"B2","ticks":91200,"time":162.85698000000002,"velocity":0.7480314960629921},{"duration":0.4285709999999767,"durationTicks":240,"midi":52,"name":"E3","ticks":91440,"time":163.28555100000003,"velocity":0.7480314960629921},{"duration":0.42857100000000514,"durationTicks":240,"midi":55,"name":"G3","ticks":91680,"time":163.714122,"velocity":0.7480314960629921},{"duration":0.42857100000000514,"durationTicks":240,"midi":59,"name":"B3","ticks":91920,"time":164.142693,"velocity":0.7480314960629921},{"duration":0.42857100000000514,"durationTicks":240,"midi":40,"name":"E2","ticks":91920,"time":164.142693,"velocity":0.7480314960629921},{"duration":0.21428549999998836,"durationTicks":120,"midi":52,"name":"E3","ticks":92160,"time":164.571264,"velocity":0.7480314960629921},{"duration":0.21428549999998836,"durationTicks":120,"midi":47,"name":"B2","ticks":92160,"time":164.571264,"velocity":0.7480314960629921},{"duration":0.21428550000001678,"durationTicks":120,"midi":55,"name":"G3","ticks":92280,"time":164.7855495,"velocity":0.7480314960629921},{"duration":0.21428549999998836,"durationTicks":120,"midi":59,"name":"B3","ticks":92400,"time":164.99983500000002,"velocity":0.7480314960629921},{"duration":0.21428549999998836,"durationTicks":120,"midi":52,"name":"E3","ticks":92400,"time":164.99983500000002,"velocity":0.7480314960629921},{"duration":0.21428550000001678,"durationTicks":120,"midi":57,"name":"A3","ticks":92520,"time":165.2141205,"velocity":0.7480314960629921},{"duration":0.4285709999999767,"durationTicks":240,"midi":59,"name":"B3","ticks":92640,"time":165.42840600000002,"velocity":0.7480314960629921},{"duration":0.4285709999999767,"durationTicks":240,"midi":40,"name":"E2","ticks":92640,"time":165.42840600000002,"velocity":0.7480314960629921},{"duration":0.21428550000001678,"durationTicks":120,"midi":52,"name":"E3","ticks":92880,"time":165.856977,"velocity":0.7480314960629921},{"duration":0.21428550000001678,"durationTicks":120,"midi":47,"name":"B2","ticks":92880,"time":165.856977,"velocity":0.7480314960629921},{"duration":0.21428549999998836,"durationTicks":120,"midi":55,"name":"G3","ticks":93000,"time":166.07126250000002,"velocity":0.7480314960629921},{"duration":0.21428550000001678,"durationTicks":120,"midi":59,"name":"B3","ticks":93120,"time":166.285548,"velocity":0.7480314960629921},{"duration":0.21428550000001678,"durationTicks":120,"midi":52,"name":"E3","ticks":93120,"time":166.285548,"velocity":0.7480314960629921},{"duration":0.21428549999998836,"durationTicks":120,"midi":57,"name":"A3","ticks":93240,"time":166.49983350000002,"velocity":0.7480314960629921},{"duration":0.42857100000000514,"durationTicks":240,"midi":59,"name":"B3","ticks":93360,"time":166.714119,"velocity":0.7480314960629921},{"duration":0.42857100000000514,"durationTicks":240,"midi":40,"name":"E2","ticks":93360,"time":166.714119,"velocity":0.7480314960629921},{"duration":0.21428549999998836,"durationTicks":120,"midi":52,"name":"E3","ticks":93600,"time":167.14269000000002,"velocity":0.7480314960629921},{"duration":0.21428549999998836,"durationTicks":120,"midi":47,"name":"B2","ticks":93600,"time":167.14269000000002,"velocity":0.7480314960629921},{"duration":0.21428550000001678,"durationTicks":120,"midi":55,"name":"G3","ticks":93720,"time":167.3569755,"velocity":0.7480314960629921},{"duration":0.21428549999998836,"durationTicks":120,"midi":60,"name":"C4","ticks":93840,"time":167.57126100000002,"velocity":0.7480314960629921},{"duration":0.21428549999998836,"durationTicks":120,"midi":50,"name":"D3","ticks":93840,"time":167.57126100000002,"velocity":0.7480314960629921},{"duration":0.21428550000001678,"durationTicks":120,"midi":59,"name":"B3","ticks":93960,"time":167.7855465,"velocity":0.7480314960629921},{"duration":0.4285709999999767,"durationTicks":240,"midi":60,"name":"C4","ticks":94080,"time":167.99983200000003,"velocity":0.7480314960629921},{"duration":0.4285709999999767,"durationTicks":240,"midi":45,"name":"A2","ticks":94080,"time":167.99983200000003,"velocity":0.7480314960629921},{"duration":0.21428550000001678,"durationTicks":120,"midi":52,"name":"E3","ticks":94320,"time":168.428403,"velocity":0.7480314960629921},{"duration":0.21428549999998836,"durationTicks":120,"midi":55,"name":"G3","ticks":94440,"time":168.64268850000002,"velocity":0.7480314960629921},{"duration":0.21428550000001678,"durationTicks":120,"midi":60,"name":"C4","ticks":94560,"time":168.856974,"velocity":0.7480314960629921},{"duration":0.21428550000001678,"durationTicks":120,"midi":57,"name":"A3","ticks":94560,"time":168.856974,"velocity":0.7480314960629921},{"duration":0.21428549999998836,"durationTicks":120,"midi":59,"name":"B3","ticks":94680,"time":169.07125950000002,"velocity":0.7480314960629921},{"duration":0.42857100000000514,"durationTicks":240,"midi":60,"name":"C4","ticks":94800,"time":169.285545,"velocity":0.7480314960629921},{"duration":0.42857100000000514,"durationTicks":240,"midi":45,"name":"A2","ticks":94800,"time":169.285545,"velocity":0.7480314960629921},{"duration":0.21428549999998836,"durationTicks":120,"midi":60,"name":"C4","ticks":95040,"time":169.71411600000002,"velocity":0.7480314960629921},{"duration":0.21428549999998836,"durationTicks":120,"midi":52,"name":"E3","ticks":95040,"time":169.71411600000002,"velocity":0.7480314960629921},{"duration":0.21428550000001678,"durationTicks":120,"midi":59,"name":"B3","ticks":95160,"time":169.9284015,"velocity":0.7480314960629921},{"duration":0.21428549999998836,"durationTicks":120,"midi":60,"name":"C4","ticks":95280,"time":170.14268700000002,"velocity":0.7480314960629921},{"duration":0.21428549999998836,"durationTicks":120,"midi":57,"name":"A3","ticks":95280,"time":170.14268700000002,"velocity":0.7480314960629921},{"duration":0.21428549999998836,"durationTicks":120,"midi":61,"name":"C#4","ticks":95400,"time":170.3569725,"velocity":0.7480314960629921},{"duration":0.42857100000000514,"durationTicks":240,"midi":62,"name":"D4","ticks":95520,"time":170.571258,"velocity":0.7480314960629921},{"duration":0.42857100000000514,"durationTicks":240,"midi":50,"name":"D3","ticks":95520,"time":170.571258,"velocity":0.7480314960629921},{"duration":0.21428550000001678,"durationTicks":120,"midi":62,"name":"D4","ticks":95760,"time":170.999829,"velocity":0.7480314960629921},{"duration":0.21428550000001678,"durationTicks":120,"midi":57,"name":"A3","ticks":95760,"time":170.999829,"velocity":0.7480314960629921},{"duration":0.21428549999998836,"durationTicks":120,"midi":64,"name":"E4","ticks":95880,"time":171.21411450000002,"velocity":0.7480314960629921},{"duration":0.21428550000001678,"durationTicks":120,"midi":62,"name":"D4","ticks":96000,"time":171.4284,"velocity":0.7480314960629921},{"duration":0.21428550000001678,"durationTicks":120,"midi":54,"name":"F#3","ticks":96000,"time":171.4284,"velocity":0.7480314960629921},{"duration":0.21428549999998836,"durationTicks":120,"midi":64,"name":"E4","ticks":96120,"time":171.64268550000003,"velocity":0.7480314960629921},{"duration":0.42857100000000514,"durationTicks":240,"midi":59,"name":"B3","ticks":96240,"time":171.85697100000002,"velocity":0.7480314960629921},{"duration":0.42857100000000514,"durationTicks":240,"midi":43,"name":"G2","ticks":96240,"time":171.85697100000002,"velocity":0.7480314960629921},{"duration":0.42857100000000514,"durationTicks":240,"midi":55,"name":"G3","ticks":96480,"time":172.28554200000002,"velocity":0.7480314960629921},{"duration":0.4285709999999767,"durationTicks":240,"midi":54,"name":"F#3","ticks":96720,"time":172.71411300000003,"velocity":0.7480314960629921},{"duration":0.4285709999999767,"durationTicks":240,"midi":42,"name":"F#2","ticks":96720,"time":172.71411300000003,"velocity":0.7480314960629921},{"duration":0.42857100000000514,"durationTicks":240,"midi":71,"name":"B4","ticks":96960,"time":173.142684,"velocity":0.7480314960629921},{"duration":0.42857100000000514,"durationTicks":240,"midi":40,"name":"E2","ticks":96960,"time":173.142684,"velocity":0.7480314960629921},{"duration":0.21428550000001678,"durationTicks":120,"midi":64,"name":"E4","ticks":97200,"time":173.571255,"velocity":0.7480314960629921},{"duration":0.21428550000001678,"durationTicks":120,"midi":59,"name":"B3","ticks":97200,"time":173.571255,"velocity":0.7480314960629921},{"duration":0.21428549999998836,"durationTicks":120,"midi":67,"name":"G4","ticks":97320,"time":173.78554050000002,"velocity":0.7480314960629921},{"duration":0.21428549999998836,"durationTicks":120,"midi":71,"name":"B4","ticks":97440,"time":173.999826,"velocity":0.7480314960629921},{"duration":0.21428549999998836,"durationTicks":120,"midi":64,"name":"E4","ticks":97440,"time":173.999826,"velocity":0.7480314960629921},{"duration":0.21428550000001678,"durationTicks":120,"midi":69,"name":"A4","ticks":97560,"time":174.2141115,"velocity":0.7480314960629921},{"duration":0.42857100000000514,"durationTicks":240,"midi":71,"name":"B4","ticks":97680,"time":174.42839700000002,"velocity":0.7480314960629921},{"duration":0.42857100000000514,"durationTicks":240,"midi":40,"name":"E2","ticks":97680,"time":174.42839700000002,"velocity":0.7480314960629921},{"duration":0.21428549999998836,"durationTicks":120,"midi":64,"name":"E4","ticks":97920,"time":174.85696800000002,"velocity":0.7480314960629921},{"duration":0.21428549999998836,"durationTicks":120,"midi":59,"name":"B3","ticks":97920,"time":174.85696800000002,"velocity":0.7480314960629921},{"duration":0.21428550000001678,"durationTicks":120,"midi":67,"name":"G4","ticks":98040,"time":175.0712535,"velocity":0.7480314960629921},{"duration":0.21428549999998836,"durationTicks":120,"midi":71,"name":"B4","ticks":98160,"time":175.28553900000003,"velocity":0.7480314960629921},{"duration":0.21428549999998836,"durationTicks":120,"midi":64,"name":"E4","ticks":98160,"time":175.28553900000003,"velocity":0.7480314960629921},{"duration":0.21428549999998836,"durationTicks":120,"midi":69,"name":"A4","ticks":98280,"time":175.49982450000002,"velocity":0.7480314960629921},{"duration":0.42857100000000514,"durationTicks":240,"midi":71,"name":"B4","ticks":98400,"time":175.71411,"velocity":0.7480314960629921},{"duration":0.42857100000000514,"durationTicks":240,"midi":40,"name":"E2","ticks":98400,"time":175.71411,"velocity":0.7480314960629921},{"duration":0.21428550000001678,"durationTicks":120,"midi":64,"name":"E4","ticks":98640,"time":176.142681,"velocity":0.7480314960629921},{"duration":0.21428550000001678,"durationTicks":120,"midi":59,"name":"B3","ticks":98640,"time":176.142681,"velocity":0.7480314960629921},{"duration":0.21428549999998836,"durationTicks":120,"midi":67,"name":"G4","ticks":98760,"time":176.35696650000003,"velocity":0.7480314960629921},{"duration":0.21428549999998836,"durationTicks":120,"midi":72,"name":"C5","ticks":98880,"time":176.57125200000002,"velocity":0.7480314960629921},{"duration":0.21428549999998836,"durationTicks":120,"midi":64,"name":"E4","ticks":98880,"time":176.57125200000002,"velocity":0.7480314960629921},{"duration":0.21428550000001678,"durationTicks":120,"midi":71,"name":"B4","ticks":99000,"time":176.7855375,"velocity":0.7480314960629921},{"duration":0.42857100000000514,"durationTicks":240,"midi":72,"name":"C5","ticks":99120,"time":176.99982300000002,"velocity":0.7480314960629921},{"duration":0.42857100000000514,"durationTicks":240,"midi":45,"name":"A2","ticks":99120,"time":176.99982300000002,"velocity":0.7480314960629921},{"duration":0.21428549999998836,"durationTicks":120,"midi":64,"name":"E4","ticks":99360,"time":177.42839400000003,"velocity":0.7480314960629921},{"duration":0.21428549999998836,"durationTicks":120,"midi":60,"name":"C4","ticks":99360,"time":177.42839400000003,"velocity":0.7480314960629921},{"duration":0.21428549999998836,"durationTicks":120,"midi":67,"name":"G4","ticks":99480,"time":177.6426795,"velocity":0.7480314960629921},{"duration":0.21428550000001678,"durationTicks":120,"midi":72,"name":"C5","ticks":99600,"time":177.856965,"velocity":0.7480314960629921},{"duration":0.21428550000001678,"durationTicks":120,"midi":64,"name":"E4","ticks":99600,"time":177.856965,"velocity":0.7480314960629921},{"duration":0.21428549999998836,"durationTicks":120,"midi":71,"name":"B4","ticks":99720,"time":178.07125050000002,"velocity":0.7480314960629921},{"duration":0.42857100000000514,"durationTicks":240,"midi":72,"name":"C5","ticks":99840,"time":178.285536,"velocity":0.7480314960629921},{"duration":0.42857100000000514,"durationTicks":240,"midi":45,"name":"A2","ticks":99840,"time":178.285536,"velocity":0.7480314960629921},{"duration":0.21428549999998836,"durationTicks":120,"midi":72,"name":"C5","ticks":100080,"time":178.714107,"velocity":0.7480314960629921},{"duration":0.21428549999998836,"durationTicks":120,"midi":60,"name":"C4","ticks":100080,"time":178.714107,"velocity":0.7480314960629921},{"duration":0.21428550000001678,"durationTicks":120,"midi":71,"name":"B4","ticks":100200,"time":178.9283925,"velocity":0.7480314960629921},{"duration":0.21428549999998836,"durationTicks":120,"midi":72,"name":"C5","ticks":100320,"time":179.14267800000002,"velocity":0.7480314960629921},{"duration":0.21428549999998836,"durationTicks":120,"midi":64,"name":"E4","ticks":100320,"time":179.14267800000002,"velocity":0.7480314960629921},{"duration":0.21428550000001678,"durationTicks":120,"midi":73,"name":"C#5","ticks":100440,"time":179.3569635,"velocity":0.7480314960629921},{"duration":0.42857100000000514,"durationTicks":240,"midi":74,"name":"D5","ticks":100560,"time":179.57124900000002,"velocity":0.7480314960629921},{"duration":0.42857100000000514,"durationTicks":240,"midi":50,"name":"D3","ticks":100560,"time":179.57124900000002,"velocity":0.7480314960629921},{"duration":0.21428549999998836,"durationTicks":120,"midi":74,"name":"D5","ticks":100800,"time":179.99982000000003,"velocity":0.7480314960629921},{"duration":0.21428549999998836,"durationTicks":120,"midi":66,"name":"F#4","ticks":100800,"time":179.99982000000003,"velocity":0.7480314960629921},{"duration":0.21428549999998836,"durationTicks":120,"midi":76,"name":"E5","ticks":100920,"time":180.21410550000002,"velocity":0.7480314960629921},{"duration":0.21428550000001678,"durationTicks":120,"midi":74,"name":"D5","ticks":101040,"time":180.428391,"velocity":0.7480314960629921},{"duration":0.21428550000001678,"durationTicks":120,"midi":69,"name":"A4","ticks":101040,"time":180.428391,"velocity":0.7480314960629921},{"duration":0.21428549999998836,"durationTicks":120,"midi":76,"name":"E5","ticks":101160,"time":180.64267650000002,"velocity":0.7480314960629921},{"duration":0.42857100000000514,"durationTicks":240,"midi":71,"name":"B4","ticks":101280,"time":180.856962,"velocity":0.7480314960629921},{"duration":0.42857100000000514,"durationTicks":240,"midi":43,"name":"G2","ticks":101280,"time":180.856962,"velocity":0.7480314960629921},{"duration":0.42857100000000514,"durationTicks":240,"midi":55,"name":"G3","ticks":101520,"time":181.28553300000002,"velocity":0.7480314960629921},{"duration":0.42857100000000514,"durationTicks":240,"midi":54,"name":"F#3","ticks":101760,"time":181.71410400000002,"velocity":0.7480314960629921},{"duration":0.42857100000000514,"durationTicks":240,"midi":42,"name":"F#2","ticks":101760,"time":181.71410400000002,"velocity":0.7480314960629921},{"duration":0.4285709999999767,"durationTicks":240,"midi":67,"name":"G4","ticks":102000,"time":182.14267500000003,"velocity":0.7480314960629921},{"duration":0.4285709999999767,"durationTicks":240,"midi":40,"name":"E2","ticks":102000,"time":182.14267500000003,"velocity":0.7480314960629921},{"duration":0.21428550000001678,"durationTicks":120,"midi":47,"name":"B2","ticks":102240,"time":182.571246,"velocity":0.7480314960629921},{"duration":0.21428549999998836,"durationTicks":120,"midi":67,"name":"G4","ticks":102360,"time":182.78553150000002,"velocity":0.7480314960629921},{"duration":0.21428550000001678,"durationTicks":120,"midi":67,"name":"G4","ticks":102480,"time":182.999817,"velocity":0.7480314960629921},{"duration":0.21428550000001678,"durationTicks":120,"midi":55,"name":"G3","ticks":102480,"time":182.999817,"velocity":0.7480314960629921},{"duration":0.21428549999998836,"durationTicks":120,"midi":69,"name":"A4","ticks":102600,"time":183.21410250000002,"velocity":0.7480314960629921},{"duration":0.42857100000000514,"durationTicks":240,"midi":69,"name":"A4","ticks":102720,"time":183.428388,"velocity":0.7480314960629921},{"duration":0.42857100000000514,"durationTicks":240,"midi":45,"name":"A2","ticks":102720,"time":183.428388,"velocity":0.7480314960629921},{"duration":0.21428549999998836,"durationTicks":120,"midi":52,"name":"E3","ticks":102960,"time":183.85695900000002,"velocity":0.7480314960629921},{"duration":0.21428550000001678,"durationTicks":120,"midi":67,"name":"G4","ticks":103080,"time":184.0712445,"velocity":0.7480314960629921},{"duration":0.21428549999998836,"durationTicks":120,"midi":66,"name":"F#4","ticks":103200,"time":184.28553000000002,"velocity":0.7480314960629921},{"duration":0.21428549999998836,"durationTicks":120,"midi":57,"name":"A3","ticks":103200,"time":184.28553000000002,"velocity":0.7480314960629921},{"duration":0.21428550000001678,"durationTicks":120,"midi":64,"name":"E4","ticks":103320,"time":184.4998155,"velocity":0.7480314960629921},{"duration":0.4285709999999767,"durationTicks":240,"midi":62,"name":"D4","ticks":103440,"time":184.71410100000003,"velocity":0.7480314960629921},{"duration":0.4285709999999767,"durationTicks":240,"midi":50,"name":"D3","ticks":103440,"time":184.71410100000003,"velocity":0.7480314960629921},{"duration":0.21428550000001678,"durationTicks":120,"midi":57,"name":"A3","ticks":103680,"time":185.142672,"velocity":0.7480314960629921},{"duration":0.21428549999998836,"durationTicks":120,"midi":62,"name":"D4","ticks":103800,"time":185.35695750000002,"velocity":0.7480314960629921},{"duration":0.21428550000001678,"durationTicks":120,"midi":64,"name":"E4","ticks":103920,"time":185.571243,"velocity":0.7480314960629921},{"duration":0.21428550000001678,"durationTicks":120,"midi":54,"name":"F#3","ticks":103920,"time":185.571243,"velocity":0.7480314960629921},{"duration":0.21428549999998836,"durationTicks":120,"midi":62,"name":"D4","ticks":104040,"time":185.78552850000003,"velocity":0.7480314960629921},{"duration":0.42857100000000514,"durationTicks":240,"midi":59,"name":"B3","ticks":104160,"time":185.99981400000001,"velocity":0.7480314960629921},{"duration":0.42857100000000514,"durationTicks":240,"midi":43,"name":"G2","ticks":104160,"time":185.99981400000001,"velocity":0.7480314960629921},{"duration":0.42857100000000514,"durationTicks":240,"midi":55,"name":"G3","ticks":104400,"time":186.42838500000002,"velocity":0.7480314960629921},{"duration":0.4285709999999767,"durationTicks":240,"midi":54,"name":"F#3","ticks":104640,"time":186.85695600000003,"velocity":0.7480314960629921},{"duration":0.4285709999999767,"durationTicks":240,"midi":42,"name":"F#2","ticks":104640,"time":186.85695600000003,"velocity":0.7480314960629921},{"duration":0.42857100000000514,"durationTicks":240,"midi":67,"name":"G4","ticks":104880,"time":187.285527,"velocity":0.7480314960629921},{"duration":0.42857100000000514,"durationTicks":240,"midi":40,"name":"E2","ticks":104880,"time":187.285527,"velocity":0.7480314960629921},{"duration":0.21428550000001678,"durationTicks":120,"midi":47,"name":"B2","ticks":105120,"time":187.714098,"velocity":0.7480314960629921},{"duration":0.21428549999998836,"durationTicks":120,"midi":67,"name":"G4","ticks":105240,"time":187.92838350000002,"velocity":0.7480314960629921},{"duration":0.21428550000001678,"durationTicks":120,"midi":67,"name":"G4","ticks":105360,"time":188.142669,"velocity":0.7480314960629921},{"duration":0.21428550000001678,"durationTicks":120,"midi":55,"name":"G3","ticks":105360,"time":188.142669,"velocity":0.7480314960629921},{"duration":0.21428549999998836,"durationTicks":120,"midi":69,"name":"A4","ticks":105480,"time":188.35695450000003,"velocity":0.7480314960629921},{"duration":0.42857100000000514,"durationTicks":240,"midi":69,"name":"A4","ticks":105600,"time":188.57124000000002,"velocity":0.7480314960629921},{"duration":0.42857100000000514,"durationTicks":240,"midi":45,"name":"A2","ticks":105600,"time":188.57124000000002,"velocity":0.7480314960629921},{"duration":0.21428549999998836,"durationTicks":120,"midi":52,"name":"E3","ticks":105840,"time":188.99981100000002,"velocity":0.7480314960629921},{"duration":0.21428550000001678,"durationTicks":120,"midi":67,"name":"G4","ticks":105960,"time":189.2140965,"velocity":0.7480314960629921},{"duration":0.21428549999998836,"durationTicks":120,"midi":66,"name":"F#4","ticks":106080,"time":189.42838200000003,"velocity":0.7480314960629921},{"duration":0.21428549999998836,"durationTicks":120,"midi":57,"name":"A3","ticks":106080,"time":189.42838200000003,"velocity":0.7480314960629921},{"duration":0.21428549999998836,"durationTicks":120,"midi":64,"name":"E4","ticks":106200,"time":189.64266750000002,"velocity":0.7480314960629921},{"duration":0.42857100000000514,"durationTicks":240,"midi":62,"name":"D4","ticks":106320,"time":189.856953,"velocity":0.7480314960629921},{"duration":0.42857100000000514,"durationTicks":240,"midi":50,"name":"D3","ticks":106320,"time":189.856953,"velocity":0.7480314960629921},{"duration":0.21428550000001678,"durationTicks":120,"midi":57,"name":"A3","ticks":106560,"time":190.285524,"velocity":0.7480314960629921},{"duration":0.21428549999998836,"durationTicks":120,"midi":62,"name":"D4","ticks":106680,"time":190.49980950000003,"velocity":0.7480314960629921},{"duration":0.21428549999998836,"durationTicks":120,"midi":64,"name":"E4","ticks":106800,"time":190.71409500000001,"velocity":0.7480314960629921},{"duration":0.21428549999998836,"durationTicks":120,"midi":54,"name":"F#3","ticks":106800,"time":190.71409500000001,"velocity":0.7480314960629921},{"duration":0.21428550000001678,"durationTicks":120,"midi":62,"name":"D4","ticks":106920,"time":190.9283805,"velocity":0.7480314960629921},{"duration":0.42857100000000514,"durationTicks":240,"midi":64,"name":"E4","ticks":107040,"time":191.14266600000002,"velocity":0.7480314960629921},{"duration":0.42857100000000514,"durationTicks":240,"midi":40,"name":"E2","ticks":107040,"time":191.14266600000002,"velocity":0.7480314960629921},{"duration":0.42857100000000514,"durationTicks":240,"midi":47,"name":"B2","ticks":107280,"time":191.57123700000002,"velocity":0.7480314960629921},{"duration":0.4285709999999767,"durationTicks":240,"midi":59,"name":"B3","ticks":107520,"time":191.99980800000003,"velocity":0.7480314960629921},{"duration":0.4285709999999767,"durationTicks":240,"midi":55,"name":"G3","ticks":107520,"time":191.99980800000003,"velocity":0.7480314960629921},{"duration":0.4285709999999767,"durationTicks":240,"midi":52,"name":"E3","ticks":107520,"time":191.99980800000003,"velocity":0.7480314960629921},{"duration":0.42857100000000514,"durationTicks":240,"midi":67,"name":"G4","ticks":107760,"time":192.428379,"velocity":0.7480314960629921},{"duration":0.42857100000000514,"durationTicks":240,"midi":40,"name":"E2","ticks":107760,"time":192.428379,"velocity":0.7480314960629921},{"duration":0.21428550000001678,"durationTicks":120,"midi":47,"name":"B2","ticks":108000,"time":192.85695,"velocity":0.7480314960629921},{"duration":0.21428549999998836,"durationTicks":120,"midi":67,"name":"G4","ticks":108120,"time":193.07123550000003,"velocity":0.7480314960629921},{"duration":0.21428549999998836,"durationTicks":120,"midi":67,"name":"G4","ticks":108240,"time":193.28552100000002,"velocity":0.7480314960629921},{"duration":0.21428549999998836,"durationTicks":120,"midi":55,"name":"G3","ticks":108240,"time":193.28552100000002,"velocity":0.7480314960629921},{"duration":0.21428550000001678,"durationTicks":120,"midi":69,"name":"A4","ticks":108360,"time":193.4998065,"velocity":0.7480314960629921},{"duration":0.42857100000000514,"durationTicks":240,"midi":69,"name":"A4","ticks":108480,"time":193.71409200000002,"velocity":0.7480314960629921},{"duration":0.42857100000000514,"durationTicks":240,"midi":45,"name":"A2","ticks":108480,"time":193.71409200000002,"velocity":0.7480314960629921},{"duration":0.21428549999998836,"durationTicks":120,"midi":52,"name":"E3","ticks":108720,"time":194.14266300000003,"velocity":0.7480314960629921},{"duration":0.21428549999998836,"durationTicks":120,"midi":67,"name":"G4","ticks":108840,"time":194.35694850000002,"velocity":0.7480314960629921},{"duration":0.21428550000001678,"durationTicks":120,"midi":66,"name":"F#4","ticks":108960,"time":194.571234,"velocity":0.7480314960629921},{"duration":0.21428550000001678,"durationTicks":120,"midi":57,"name":"A3","ticks":108960,"time":194.571234,"velocity":0.7480314960629921},{"duration":0.21428549999998836,"durationTicks":120,"midi":64,"name":"E4","ticks":109080,"time":194.78551950000002,"velocity":0.7480314960629921},{"duration":0.42857100000000514,"durationTicks":240,"midi":62,"name":"D4","ticks":109200,"time":194.999805,"velocity":0.7480314960629921},{"duration":0.42857100000000514,"durationTicks":240,"midi":50,"name":"D3","ticks":109200,"time":194.999805,"velocity":0.7480314960629921},{"duration":0.21428549999998836,"durationTicks":120,"midi":57,"name":"A3","ticks":109440,"time":195.42837600000001,"velocity":0.7480314960629921},{"duration":0.21428550000001678,"durationTicks":120,"midi":62,"name":"D4","ticks":109560,"time":195.6426615,"velocity":0.7480314960629921},{"duration":0.21428549999998836,"durationTicks":120,"midi":64,"name":"E4","ticks":109680,"time":195.85694700000002,"velocity":0.7480314960629921},{"duration":0.21428549999998836,"durationTicks":120,"midi":54,"name":"F#3","ticks":109680,"time":195.85694700000002,"velocity":0.7480314960629921},{"duration":0.21428550000001678,"durationTicks":120,"midi":62,"name":"D4","ticks":109800,"time":196.0712325,"velocity":0.7480314960629921},{"duration":0.42857100000000514,"durationTicks":240,"midi":59,"name":"B3","ticks":109920,"time":196.28551800000002,"velocity":0.7480314960629921},{"duration":0.42857100000000514,"durationTicks":240,"midi":43,"name":"G2","ticks":109920,"time":196.28551800000002,"velocity":0.7480314960629921},{"duration":0.4285709999999767,"durationTicks":240,"midi":55,"name":"G3","ticks":110160,"time":196.71408900000003,"velocity":0.7480314960629921},{"duration":0.42857100000000514,"durationTicks":240,"midi":54,"name":"F#3","ticks":110400,"time":197.14266,"velocity":0.7480314960629921},{"duration":0.42857100000000514,"durationTicks":240,"midi":42,"name":"F#2","ticks":110400,"time":197.14266,"velocity":0.7480314960629921},{"duration":0.42857100000000514,"durationTicks":240,"midi":67,"name":"G4","ticks":110640,"time":197.571231,"velocity":0.7480314960629921},{"duration":0.42857100000000514,"durationTicks":240,"midi":40,"name":"E2","ticks":110640,"time":197.571231,"velocity":0.7480314960629921},{"duration":0.21428549999998836,"durationTicks":120,"midi":47,"name":"B2","ticks":110880,"time":197.99980200000002,"velocity":0.7480314960629921},{"duration":0.21428550000001678,"durationTicks":120,"midi":67,"name":"G4","ticks":111000,"time":198.2140875,"velocity":0.7480314960629921},{"duration":0.21428549999998836,"durationTicks":120,"midi":67,"name":"G4","ticks":111120,"time":198.42837300000002,"velocity":0.7480314960629921},{"duration":0.21428549999998836,"durationTicks":120,"midi":55,"name":"G3","ticks":111120,"time":198.42837300000002,"velocity":0.7480314960629921},{"duration":0.21428550000001678,"durationTicks":120,"midi":69,"name":"A4","ticks":111240,"time":198.6426585,"velocity":0.7480314960629921},{"duration":0.4285709999999767,"durationTicks":240,"midi":69,"name":"A4","ticks":111360,"time":198.85694400000003,"velocity":0.7480314960629921},{"duration":0.4285709999999767,"durationTicks":240,"midi":45,"name":"A2","ticks":111360,"time":198.85694400000003,"velocity":0.7480314960629921},{"duration":0.21428550000001678,"durationTicks":120,"midi":52,"name":"E3","ticks":111600,"time":199.285515,"velocity":0.7480314960629921},{"duration":0.21428549999998836,"durationTicks":120,"midi":67,"name":"G4","ticks":111720,"time":199.49980050000002,"velocity":0.7480314960629921},{"duration":0.21428550000001678,"durationTicks":120,"midi":66,"name":"F#4","ticks":111840,"time":199.714086,"velocity":0.7480314960629921},{"duration":0.21428550000001678,"durationTicks":120,"midi":57,"name":"A3","ticks":111840,"time":199.714086,"velocity":0.7480314960629921},{"duration":0.21428549999998836,"durationTicks":120,"midi":64,"name":"E4","ticks":111960,"time":199.92837150000003,"velocity":0.7480314960629921},{"duration":0.42857100000000514,"durationTicks":240,"midi":62,"name":"D4","ticks":112080,"time":200.142657,"velocity":0.7480314960629921},{"duration":0.42857100000000514,"durationTicks":240,"midi":50,"name":"D3","ticks":112080,"time":200.142657,"velocity":0.7480314960629921},{"duration":0.21428549999998836,"durationTicks":120,"midi":57,"name":"A3","ticks":112320,"time":200.57122800000002,"velocity":0.7480314960629921},{"duration":0.21428550000001678,"durationTicks":120,"midi":62,"name":"D4","ticks":112440,"time":200.7855135,"velocity":0.7480314960629921},{"duration":0.21428549999998836,"durationTicks":120,"midi":64,"name":"E4","ticks":112560,"time":200.99979900000002,"velocity":0.7480314960629921},{"duration":0.21428549999998836,"durationTicks":120,"midi":54,"name":"F#3","ticks":112560,"time":200.99979900000002,"velocity":0.7480314960629921},{"duration":0.21428550000001678,"durationTicks":120,"midi":62,"name":"D4","ticks":112680,"time":201.2140845,"velocity":0.7480314960629921},{"duration":0.4285709999999767,"durationTicks":240,"midi":64,"name":"E4","ticks":112800,"time":201.42837000000003,"velocity":0.7480314960629921},{"duration":0.4285709999999767,"durationTicks":240,"midi":59,"name":"B3","ticks":112800,"time":201.42837000000003,"velocity":0.7480314960629921},{"duration":0.4285709999999767,"durationTicks":240,"midi":55,"name":"G3","ticks":112800,"time":201.42837000000003,"velocity":0.7480314960629921},{"duration":0.4285709999999767,"durationTicks":240,"midi":40,"name":"E2","ticks":112800,"time":201.42837000000003,"velocity":0.7480314960629921},{"duration":0.42857100000000514,"durationTicks":240,"midi":47,"name":"B2","ticks":113040,"time":201.856941,"velocity":0.7480314960629921},{"duration":0.42857100000000514,"durationTicks":240,"midi":55,"name":"G3","ticks":113280,"time":202.285512,"velocity":0.7480314960629921},{"duration":0.42857100000000514,"durationTicks":240,"midi":47,"name":"B2","ticks":113520,"time":202.71408300000002,"velocity":0.7480314960629921},{"duration":0.42857100000000514,"durationTicks":240,"midi":55,"name":"G3","ticks":113760,"time":203.14265400000002,"velocity":0.7480314960629921},{"duration":0.21428549999998836,"durationTicks":120,"midi":47,"name":"B2","ticks":114000,"time":203.57122500000003,"velocity":0.7480314960629921},{"duration":0.21428549999998836,"durationTicks":120,"midi":64,"name":"E4","ticks":114120,"time":203.78551050000002,"velocity":0.7480314960629921},{"duration":0.42857100000000514,"durationTicks":240,"midi":67,"name":"G4","ticks":114240,"time":203.999796,"velocity":0.7480314960629921},{"duration":0.42857100000000514,"durationTicks":240,"midi":40,"name":"E2","ticks":114240,"time":203.999796,"velocity":0.7480314960629921},{"duration":0.21428550000001678,"durationTicks":120,"midi":47,"name":"B2","ticks":114480,"time":204.428367,"velocity":0.7480314960629921},{"duration":0.21428549999998836,"durationTicks":120,"midi":67,"name":"G4","ticks":114600,"time":204.64265250000003,"velocity":0.7480314960629921},{"duration":0.21428550000001678,"durationTicks":120,"midi":67,"name":"G4","ticks":114720,"time":204.856938,"velocity":0.7480314960629921},{"duration":0.21428550000001678,"durationTicks":120,"midi":55,"name":"G3","ticks":114720,"time":204.856938,"velocity":0.7480314960629921},{"duration":0.21428549999998836,"durationTicks":120,"midi":69,"name":"A4","ticks":114840,"time":205.07122350000003,"velocity":0.7480314960629921},{"duration":0.42857100000000514,"durationTicks":240,"midi":69,"name":"A4","ticks":114960,"time":205.28550900000002,"velocity":0.7480314960629921},{"duration":0.42857100000000514,"durationTicks":240,"midi":45,"name":"A2","ticks":114960,"time":205.28550900000002,"velocity":0.7480314960629921},{"duration":0.21428549999998836,"durationTicks":120,"midi":52,"name":"E3","ticks":115200,"time":205.71408000000002,"velocity":0.7480314960629921},{"duration":0.21428550000001678,"durationTicks":120,"midi":67,"name":"G4","ticks":115320,"time":205.9283655,"velocity":0.7480314960629921},{"duration":0.21428549999998836,"durationTicks":120,"midi":66,"name":"F#4","ticks":115440,"time":206.14265100000003,"velocity":0.7480314960629921},{"duration":0.21428549999998836,"durationTicks":120,"midi":57,"name":"A3","ticks":115440,"time":206.14265100000003,"velocity":0.7480314960629921},{"duration":0.21428549999998836,"durationTicks":120,"midi":64,"name":"E4","ticks":115560,"time":206.35693650000002,"velocity":0.7480314960629921},{"duration":0.42857100000000514,"durationTicks":240,"midi":62,"name":"D4","ticks":115680,"time":206.571222,"velocity":0.7480314960629921},{"duration":0.42857100000000514,"durationTicks":240,"midi":50,"name":"D3","ticks":115680,"time":206.571222,"velocity":0.7480314960629921},{"duration":0.21428550000001678,"durationTicks":120,"midi":57,"name":"A3","ticks":115920,"time":206.999793,"velocity":0.7480314960629921},{"duration":0.21428549999998836,"durationTicks":120,"midi":62,"name":"D4","ticks":116040,"time":207.21407850000003,"velocity":0.7480314960629921},{"duration":0.21428549999998836,"durationTicks":120,"midi":64,"name":"E4","ticks":116160,"time":207.42836400000002,"velocity":0.7480314960629921},{"duration":0.21428549999998836,"durationTicks":120,"midi":54,"name":"F#3","ticks":116160,"time":207.42836400000002,"velocity":0.7480314960629921},{"duration":0.21428550000001678,"durationTicks":120,"midi":62,"name":"D4","ticks":116280,"time":207.6426495,"velocity":0.7480314960629921},{"duration":0.42857100000000514,"durationTicks":240,"midi":64,"name":"E4","ticks":116400,"time":207.85693500000002,"velocity":0.7480314960629921},{"duration":0.42857100000000514,"durationTicks":240,"midi":40,"name":"E2","ticks":116400,"time":207.85693500000002,"velocity":0.7480314960629921},{"duration":0.4285709999999767,"durationTicks":240,"midi":47,"name":"B2","ticks":116640,"time":208.28550600000003,"velocity":0.7480314960629921},{"duration":0.42857100000000514,"durationTicks":240,"midi":59,"name":"B3","ticks":116880,"time":208.714077,"velocity":0.7480314960629921},{"duration":0.42857100000000514,"durationTicks":240,"midi":55,"name":"G3","ticks":116880,"time":208.714077,"velocity":0.7480314960629921},{"duration":0.42857100000000514,"durationTicks":240,"midi":52,"name":"E3","ticks":116880,"time":208.714077,"velocity":0.7480314960629921},{"duration":0.42857100000000514,"durationTicks":240,"midi":67,"name":"G4","ticks":117120,"time":209.142648,"velocity":0.7480314960629921},{"duration":0.42857100000000514,"durationTicks":240,"midi":40,"name":"E2","ticks":117120,"time":209.142648,"velocity":0.7480314960629921},{"duration":0.21428550000001678,"durationTicks":120,"midi":47,"name":"B2","ticks":117360,"time":209.571219,"velocity":0.7480314960629921},{"duration":0.21428549999998836,"durationTicks":120,"midi":67,"name":"G4","ticks":117480,"time":209.78550450000003,"velocity":0.7480314960629921},{"duration":0.21428549999998836,"durationTicks":120,"midi":67,"name":"G4","ticks":117600,"time":209.99979000000002,"velocity":0.7480314960629921},{"duration":0.21428549999998836,"durationTicks":120,"midi":55,"name":"G3","ticks":117600,"time":209.99979000000002,"velocity":0.7480314960629921},{"duration":0.21428550000001678,"durationTicks":120,"midi":69,"name":"A4","ticks":117720,"time":210.2140755,"velocity":0.7480314960629921},{"duration":0.42857100000000514,"durationTicks":240,"midi":69,"name":"A4","ticks":117840,"time":210.42836100000002,"velocity":0.7480314960629921},{"duration":0.42857100000000514,"durationTicks":240,"midi":45,"name":"A2","ticks":117840,"time":210.42836100000002,"velocity":0.7480314960629921},{"duration":0.21428549999998836,"durationTicks":120,"midi":52,"name":"E3","ticks":118080,"time":210.85693200000003,"velocity":0.7480314960629921},{"duration":0.21428549999998836,"durationTicks":120,"midi":67,"name":"G4","ticks":118200,"time":211.07121750000002,"velocity":0.7480314960629921},{"duration":0.21428550000001678,"durationTicks":120,"midi":66,"name":"F#4","ticks":118320,"time":211.285503,"velocity":0.7480314960629921},{"duration":0.21428550000001678,"durationTicks":120,"midi":57,"name":"A3","ticks":118320,"time":211.285503,"velocity":0.7480314960629921},{"duration":0.21428549999998836,"durationTicks":120,"midi":64,"name":"E4","ticks":118440,"time":211.49978850000002,"velocity":0.7480314960629921},{"duration":0.42857100000000514,"durationTicks":240,"midi":62,"name":"D4","ticks":118560,"time":211.714074,"velocity":0.7480314960629921},{"duration":0.42857100000000514,"durationTicks":240,"midi":50,"name":"D3","ticks":118560,"time":211.714074,"velocity":0.7480314960629921},{"duration":0.21428549999998836,"durationTicks":120,"midi":57,"name":"A3","ticks":118800,"time":212.14264500000002,"velocity":0.7480314960629921},{"duration":0.21428550000001678,"durationTicks":120,"midi":62,"name":"D4","ticks":118920,"time":212.3569305,"velocity":0.7480314960629921},{"duration":0.21428549999998836,"durationTicks":120,"midi":64,"name":"E4","ticks":119040,"time":212.57121600000002,"velocity":0.7480314960629921},{"duration":0.21428549999998836,"durationTicks":120,"midi":54,"name":"F#3","ticks":119040,"time":212.57121600000002,"velocity":0.7480314960629921},{"duration":0.21428550000001678,"durationTicks":120,"midi":62,"name":"D4","ticks":119160,"time":212.7855015,"velocity":0.7480314960629921},{"duration":0.42857100000000514,"durationTicks":240,"midi":59,"name":"B3","ticks":119280,"time":212.99978700000003,"velocity":0.7480314960629921},{"duration":0.42857100000000514,"durationTicks":240,"midi":43,"name":"G2","ticks":119280,"time":212.99978700000003,"velocity":0.7480314960629921},{"duration":0.4285709999999767,"durationTicks":240,"midi":55,"name":"G3","ticks":119520,"time":213.42835800000003,"velocity":0.7480314960629921},{"duration":0.42857100000000514,"durationTicks":240,"midi":54,"name":"F#3","ticks":119760,"time":213.856929,"velocity":0.7480314960629921},{"duration":0.42857100000000514,"durationTicks":240,"midi":42,"name":"F#2","ticks":119760,"time":213.856929,"velocity":0.7480314960629921},{"duration":0.42857100000000514,"durationTicks":240,"midi":67,"name":"G4","ticks":120000,"time":214.2855,"velocity":0.7480314960629921},{"duration":0.42857100000000514,"durationTicks":240,"midi":40,"name":"E2","ticks":120000,"time":214.2855,"velocity":0.7480314960629921},{"duration":0.21428549999998836,"durationTicks":120,"midi":47,"name":"B2","ticks":120240,"time":214.71407100000002,"velocity":0.7480314960629921},{"duration":0.21428550000001678,"durationTicks":120,"midi":67,"name":"G4","ticks":120360,"time":214.9283565,"velocity":0.7480314960629921},{"duration":0.21428549999998836,"durationTicks":120,"midi":67,"name":"G4","ticks":120480,"time":215.14264200000002,"velocity":0.7480314960629921},{"duration":0.21428549999998836,"durationTicks":120,"midi":55,"name":"G3","ticks":120480,"time":215.14264200000002,"velocity":0.7480314960629921},{"duration":0.21428550000001678,"durationTicks":120,"midi":69,"name":"A4","ticks":120600,"time":215.3569275,"velocity":0.7480314960629921},{"duration":0.4285709999999767,"durationTicks":240,"midi":69,"name":"A4","ticks":120720,"time":215.57121300000003,"velocity":0.7480314960629921},{"duration":0.4285709999999767,"durationTicks":240,"midi":45,"name":"A2","ticks":120720,"time":215.57121300000003,"velocity":0.7480314960629921},{"duration":0.21428550000001678,"durationTicks":120,"midi":52,"name":"E3","ticks":120960,"time":215.999784,"velocity":0.7480314960629921},{"duration":0.21428549999998836,"durationTicks":120,"midi":67,"name":"G4","ticks":121080,"time":216.21406950000002,"velocity":0.7480314960629921},{"duration":0.21428550000001678,"durationTicks":120,"midi":66,"name":"F#4","ticks":121200,"time":216.428355,"velocity":0.7480314960629921},{"duration":0.21428550000001678,"durationTicks":120,"midi":57,"name":"A3","ticks":121200,"time":216.428355,"velocity":0.7480314960629921},{"duration":0.21428549999998836,"durationTicks":120,"midi":64,"name":"E4","ticks":121320,"time":216.64264050000003,"velocity":0.7480314960629921},{"duration":0.42857100000000514,"durationTicks":240,"midi":62,"name":"D4","ticks":121440,"time":216.85692600000002,"velocity":0.7480314960629921},{"duration":0.42857100000000514,"durationTicks":240,"midi":50,"name":"D3","ticks":121440,"time":216.85692600000002,"velocity":0.7480314960629921},{"duration":0.21428549999998836,"durationTicks":120,"midi":57,"name":"A3","ticks":121680,"time":217.28549700000002,"velocity":0.7480314960629921},{"duration":0.21428550000001678,"durationTicks":120,"midi":62,"name":"D4","ticks":121800,"time":217.4997825,"velocity":0.7480314960629921},{"duration":0.21428549999998836,"durationTicks":120,"midi":64,"name":"E4","ticks":121920,"time":217.71406800000003,"velocity":0.7480314960629921},{"duration":0.21428549999998836,"durationTicks":120,"midi":54,"name":"F#3","ticks":121920,"time":217.71406800000003,"velocity":0.7480314960629921},{"duration":0.21428550000001678,"durationTicks":120,"midi":62,"name":"D4","ticks":122040,"time":217.92835350000001,"velocity":0.7480314960629921},{"duration":0.4285709999999767,"durationTicks":240,"midi":64,"name":"E4","ticks":122160,"time":218.14263900000003,"velocity":0.7480314960629921},{"duration":0.4285709999999767,"durationTicks":240,"midi":40,"name":"E2","ticks":122160,"time":218.14263900000003,"velocity":0.7480314960629921},{"duration":0.42857100000000514,"durationTicks":240,"midi":47,"name":"B2","ticks":122400,"time":218.57121,"velocity":0.7480314960629921},{"duration":0.42857100000000514,"durationTicks":240,"midi":52,"name":"E3","ticks":122640,"time":218.999781,"velocity":0.7480314960629921},{"duration":0.42857100000000514,"durationTicks":240,"midi":55,"name":"G3","ticks":122880,"time":219.42835200000002,"velocity":0.7480314960629921},{"duration":0.42857100000000514,"durationTicks":240,"midi":59,"name":"B3","ticks":123120,"time":219.85692300000002,"velocity":0.7480314960629921},{"duration":0.4285709999999767,"durationTicks":240,"midi":64,"name":"E4","ticks":123360,"time":220.28549400000003,"velocity":0.7480314960629921},{"duration":1.2857130000000154,"durationTicks":720,"midi":76,"name":"E5","ticks":123600,"time":220.714065,"velocity":0.7480314960629921},{"duration":1.2857130000000154,"durationTicks":720,"midi":71,"name":"B4","ticks":123600,"time":220.714065,"velocity":0.7480314960629921},{"duration":1.2857130000000154,"durationTicks":720,"midi":67,"name":"G4","ticks":123600,"time":220.714065,"velocity":0.7480314960629921}]}'),G="/blog/piano/";function A(){return/Android|webOS|iPhone|iPad|iPod|BlackBerry|IEMobile|Opera Mini/i.test(navigator.userAgent)}const p=[{id:1,name:"C2",keyCode:"49",key:"1",url:G+"a49.mp3",type:"white"},{id:2,name:"C#2",keyCode:"b49",key:"!",url:G+"b49.mp3",type:"black"},{id:3,name:"D2",keyCode:"50",key:"2",url:G+"a50.mp3",type:"white"},{id:4,name:"D#2",keyCode:"b50",key:"@",url:G+"b50.mp3",type:"black"},{id:5,name:"E2",keyCode:"51",key:"3",url:G+"a51.mp3",type:"white"},{id:6,name:"F2",keyCode:"52",key:"4",url:G+"a52.mp3",type:"white"},{id:7,name:"F#2",keyCode:"b52",key:"$",url:G+"b52.mp3",type:"black"},{id:8,name:"G2",keyCode:"53",key:"5",url:G+"a53.mp3",type:"white"},{id:9,name:"G#2",keyCode:"b53",key:"%",url:G+"b53.mp3",type:"black"},{id:10,name:"A2",keyCode:"54",key:"6",url:G+"a54.mp3",type:"white"},{id:11,name:"A#2",keyCode:"b54",key:"^",url:G+"b54.mp3",type:"black"},{id:12,name:"B2",keyCode:"55",key:"7",url:G+"a55.mp3",type:"white"},{id:13,name:"C3",keyCode:"56",key:"8",url:G+"a56.mp3",type:"white"},{id:14,name:"C#3",keyCode:"b56",key:"*",url:G+"b56.mp3",type:"black"},{id:15,name:"D3",keyCode:"57",key:"9",url:G+"a57.mp3",type:"white"},{id:16,name:"D#3",keyCode:"b57",key:"(",url:G+"b57.mp3",type:"black"},{id:17,name:"E3",keyCode:"48",key:"0",url:G+"a48.mp3",type:"white"},{id:18,name:"F3",keyCode:"81",key:"q",url:G+"a81.mp3",type:"white"},{id:19,name:"F#3",keyCode:"b81",key:"Q",url:G+"b81.mp3",type:"black"},{id:20,name:"G3",keyCode:"87",key:"w",url:G+"a87.mp3",type:"white"},{id:21,name:"G#3",keyCode:"b87",key:"W",url:G+"b87.mp3",type:"black"},{id:22,name:"A3",keyCode:"69",key:"e",url:G+"a69.mp3",type:"white"},{id:23,name:"A#3",keyCode:"b69",key:"E",url:G+"b69.mp3",type:"black"},{id:24,name:"B3",keyCode:"82",key:"r",url:G+"a82.mp3",type:"white"},{id:25,name:"C4",keyCode:"84",key:"t",url:G+"a84.mp3",type:"white"},{id:26,name:"C#4",keyCode:"b84",key:"T",url:G+"b84.mp3",type:"black"},{id:27,name:"D4",keyCode:"89",key:"y",url:G+"a89.mp3",type:"white"},{id:28,name:"D#4",keyCode:"b89",key:"Y",url:G+"b89.mp3",type:"black"},{id:29,name:"E4",keyCode:"85",key:"u",url:G+"a85.mp3",type:"white"},{id:30,name:"F4",keyCode:"73",key:"i",url:G+"a73.mp3",type:"white"},{id:31,name:"F#4",keyCode:"b73",key:"I",url:G+"b73.mp3",type:"black"},{id:32,name:"G4",keyCode:"79",key:"o",url:G+"a79.mp3",type:"white"},{id:33,name:"G#4",keyCode:"b79",key:"O",url:G+"b79.mp3",type:"black"},{id:34,name:"A4",keyCode:"80",key:"p",url:G+"a80.mp3",type:"white"},{id:35,name:"A#4",keyCode:"b80",key:"P",url:G+"b80.mp3",type:"black"},{id:36,name:"B4",keyCode:"65",key:"a",url:G+"a65.mp3",type:"white"},{id:37,name:"C5",keyCode:"83",key:"s",url:G+"a83.mp3",type:"white"},{id:38,name:"C#5",keyCode:"b83",key:"S",url:G+"b83.mp3",type:"black"},{id:39,name:"D5",keyCode:"68",key:"d",url:G+"a68.mp3",type:"white"},{id:40,name:"D#5",keyCode:"b68",key:"D",url:G+"b68.mp3",type:"black"},{id:41,name:"E5",keyCode:"70",key:"f",url:G+"a70.mp3",type:"white"},{id:42,name:"F5",keyCode:"71",key:"g",url:G+"a71.mp3",type:"white"},{id:43,name:"F#5",keyCode:"b71",key:"G",url:G+"b71.mp3",type:"black"},{id:44,name:"G5",keyCode:"72",key:"h",url:G+"a72.mp3",type:"white"},{id:45,name:"G#5",keyCode:"b72",key:"H",url:G+"b72.mp3",type:"black"},{id:46,name:"A5",keyCode:"74",key:"j",url:G+"a74.mp3",type:"white"},{id:47,name:"A#5",keyCode:"b74",key:"J",url:G+"b74.mp3",type:"black"},{id:48,name:"B5",keyCode:"75",key:"k",url:G+"a75.mp3",type:"white"},{id:49,name:"C6",keyCode:"76",key:"l",url:G+"a76.mp3",type:"white"},{id:50,name:"C#6",keyCode:"b76",key:"L",url:G+"b76.mp3",type:"black"},{id:51,name:"D6",keyCode:"90",key:"z",url:G+"a90.mp3",type:"white"},{id:52,name:"D#6",keyCode:"b90",key:"Z",url:G+"b90.mp3",type:"black"},{id:53,name:"E6",keyCode:"88",key:"x",url:G+"a88.mp3",type:"white"},{id:54,name:"F6",keyCode:"67",key:"c",url:G+"a67.mp3",type:"white"},{id:55,name:"F#6",keyCode:"b67",key:"C",url:G+"b67.mp3",type:"black"},{id:56,name:"G6",keyCode:"86",key:"v",url:G+"a86.mp3",type:"white"},{id:57,name:"G#6",keyCode:"b86",key:"V",url:G+"b86.mp3",type:"black"},{id:58,name:"A6",keyCode:"66",key:"b",url:G+"a66.mp3",type:"white"},{id:59,name:"A#6",keyCode:"b66",key:"B",url:G+"b66.mp3",type:"black"},{id:60,name:"B6",keyCode:"78",key:"n",url:G+"a78.mp3",type:"white"}],C=()=>{p.forEach(((i,t)=>{document.getElementById(i.name).classList.remove(`key-${t%12+1}-active`)}))},D=i=>{const t=p.find((t=>t.key===i.key));if(!t)return;const e=new MouseEvent(A()?"touchstart":"mousedown",{bubbles:!0,cancelable:!0,view:window,button:0});document.getElementById(t.name).dispatchEvent(e)},F=i=>{const t=p.find((t=>t.key===i.key));if(!t)return;const e=new MouseEvent(A()?"touchend":"mouseup",{bubbles:!0,cancelable:!0,view:window,button:0});document.getElementById(t.name).dispatchEvent(e)},b=(0,n.memo)((function(i){const t=(0,n.useRef)(null),e=(0,n.useRef)({});const a=(i,n)=>{document.getElementById(i.name).classList.add(`key-${n}-active`),function(i){if(e.current[i]){const n=t.current.createBufferSource();n.buffer=e.current[i],n.connect(t.current.destination),n.start()}}(i.name)},o=(0,n.useRef)(),[m,c]=(0,n.useState)(!1),[d,r]=(0,n.useState)(p.map((i=>({...i,load:!1}))));return(0,n.useEffect)((()=>(c(A()),window.playPiano=()=>{clearTimeout(o.current),(i=>{const t=i.notes,e=Date.now(),n=A(),a=()=>{t.slice(0,20).forEach((i=>{if(Date.now()-e>=1e3*i.time){const e=new MouseEvent(n?"touchstart":"mousedown",{bubbles:!0,cancelable:!0,view:window,button:0}),a=new MouseEvent(n?"touchend":"mouseup",{bubbles:!0,cancelable:!0,view:window,button:0});document.getElementById(i.name).dispatchEvent(e),setTimeout((()=>{document.getElementById(i.name).dispatchEvent(a)}),80),t.shift()}})),o.current=setTimeout(a,28)};a()})(B)},()=>{clearTimeout(o.current)})),[]),(0,n.useEffect)((()=>{t.current=new(window.AudioContext||window.webkitAudioContext),Promise.all(p.map((i=>{return n=i.name,a=i.url,new Promise(((i,o)=>{fetch(a).then((i=>i.arrayBuffer())).then((i=>t.current.decodeAudioData(i))).then((t=>{e.current[n]=t,r((i=>i.map((i=>i.name===n?{...i,load:!0}:i)))),i(!0)})).catch((i=>{console.error("Failed to load audio sample:",i),o(i)}))}));var n,a}))).then((()=>{console.log("All audio samples loaded."),i.setPianoIsReady(!0)})).catch((i=>{console.error("Failed to load audio samples:",i)}));const n=A();return n||document.addEventListener("mouseup",C),n&&document.addEventListener("touchend",C),document.addEventListener("keydown",D),document.addEventListener("keyup",F),()=>{n||document.removeEventListener("mouseup",C),n&&document.removeEventListener("touchend",C),document.removeEventListener("keydown",D),document.removeEventListener("keyup",F)}}),[]),n.createElement("div",{className:"piano-box"},n.createElement("section",{className:"piano",id:"piano"},d.map(((i,t)=>n.createElement("button",{id:i.name,style:i.load?void 0:{display:"none"},onMouseDown:m?void 0:()=>a(i,t%12+1),onTouchStart:m?()=>a(i,t%12+1):void 0,key:i.id,type:"button",tabIndex:-1,className:"key-"+(t%12+1),title:i.name})))))}));function h(){const{siteConfig:i}=(0,m.Z)(),[t,e]=(0,n.useState)(!1),[c,d]=(0,n.useState)(!1),[r,u]=(0,n.useState)(!1);return n.createElement("header",{className:(0,a.Z)(E.heroBanner)},n.createElement("div",{className:"container"},n.createElement("section",{className:E.logoBox},n.createElement("div",{className:E.logo},n.createElement(b,{setPianoIsReady:d}),r?n.createElement("section",{className:(0,a.Z)(E.playBarTip,E.playBar)},n.createElement("p",null,"\u6309\u952e\u6216\u8005\u9f20\u6807\u70b9\u51fb\u53ef\u5f39\u594f\u54e6\uff5e")):n.createElement("section",{className:(0,a.Z)({hide:t||!c},E.playBar)},n.createElement("p",null,"\u8981\u6765\u4e00\u66f2\u5417?"),n.createElement("div",null,n.createElement("button",{onClick:()=>{e(!0),window.playPiano()}},"\u7ed9\u6715\u5f39\u4e00\u4e2a"),n.createElement("button",{onClick:()=>u(!0)},"\u6211\u8981\u81ea\u5df1\u5f39")))),n.createElement("h1",{className:(0,a.Z)("hero__title")},i.title),n.createElement("p",{className:"hero__subtitle"},i.tagline),n.createElement("div",{className:E.buttons},n.createElement(o.Z,{className:"button button--secondary button--lg",to:"/HTML"},"\u9605\u8bfb\u6587\u6863\u2192")))))}function f(){const{siteConfig:i}=(0,m.Z)();return n.createElement(c.Z,{title:`Hello from ${i.title}`,description:"Description will go into a meta tag in <head />"},n.createElement(h,null),n.createElement("main",null,n.createElement(T,null)))}}}]);